<ttFont>
    <TTGlyph name="A" xMin="61" yMin="0" xMax="681" yMax="732">
      <contour>
        <pt x="681" y="0" on="1"/>
        <pt x="642" y="0" on="1"/>
        <pt x="515" y="300" on="1"/>
        <pt x="227" y="300" on="1"/>
        <pt x="100" y="0" on="1"/>
        <pt x="61" y="0" on="1"/>
        <pt x="371" y="732" on="1"/>
      </contour>
      <contour>
        <pt x="361" y="616" on="1"/>
        <pt x="241" y="334" on="1"/>
        <pt x="500" y="334" on="1"/>
        <pt x="381" y="616" on="1"/>
        <pt x="371" y="648" on="1"/>
      </contour>
    </TTGlyph>
    <TTGlyph name="AE" xMin="61" yMin="0" xMax="698" yMax="700">
      <contour>
        <pt x="371" y="0" on="1"/>
        <pt x="371" y="300" on="1"/>
        <pt x="227" y="300" on="1"/>
        <pt x="100" y="0" on="1"/>
        <pt x="61" y="0" on="1"/>
        <pt x="357" y="700" on="1"/>
        <pt x="684" y="700" on="1"/>
        <pt x="684" y="667" on="1"/>
        <pt x="408" y="667" on="1"/>
        <pt x="408" y="369" on="1"/>
        <pt x="645" y="369" on="1"/>
        <pt x="645" y="336" on="1"/>
        <pt x="408" y="336" on="1"/>
        <pt x="408" y="33" on="1"/>
        <pt x="698" y="33" on="1"/>
        <pt x="698" y="0" on="1"/>
      </contour>
      <contour>
        <pt x="362" y="619" on="1"/>
        <pt x="241" y="334" on="1"/>
        <pt x="371" y="334" on="1"/>
        <pt x="371" y="617" on="1"/>
        <pt x="372" y="647" on="1"/>
      </contour>
    </TTGlyph>
    <TTGlyph name="Aacute" xMin="61" yMin="0" xMax="681" yMax="933">
      <contour>
        <pt x="354" y="800" on="1"/>
        <pt x="444" y="933" on="1"/>
        <pt x="481" y="933" on="1"/>
        <pt x="387" y="800" on="1"/>
      </contour>
      <contour>
        <pt x="681" y="0" on="1"/>
        <pt x="642" y="0" on="1"/>
        <pt x="515" y="300" on="1"/>
        <pt x="227" y="300" on="1"/>
        <pt x="100" y="0" on="1"/>
        <pt x="61" y="0" on="1"/>
        <pt x="371" y="732" on="1"/>
      </contour>
      <contour>
        <pt x="361" y="616" on="1"/>
        <pt x="241" y="334" on="1"/>
        <pt x="500" y="334" on="1"/>
        <pt x="381" y="616" on="1"/>
        <pt x="371" y="648" on="1"/>
      </contour>
    </TTGlyph>
    <TTGlyph name="Abreve" xMin="61" yMin="0" xMax="681" yMax="924">
      <contour>
        <pt x="681" y="0" on="1"/>
        <pt x="642" y="0" on="1"/>
        <pt x="515" y="300" on="1"/>
        <pt x="227" y="300" on="1"/>
        <pt x="100" y="0" on="1"/>
        <pt x="61" y="0" on="1"/>
        <pt x="371" y="732" on="1"/>
      </contour>
      <contour>
        <pt x="361" y="616" on="1"/>
        <pt x="241" y="334" on="1"/>
        <pt x="500" y="334" on="1"/>
        <pt x="381" y="616" on="1"/>
        <pt x="371" y="648" on="1"/>
      </contour>
      <contour>
        <pt x="437" y="767" on="0"/>
        <pt x="305" y="767" on="0"/>
        <pt x="209" y="858" on="0"/>
        <pt x="208" y="924" on="1"/>
        <pt x="241" y="924" on="1"/>
        <pt x="242" y="868" on="0"/>
        <pt x="315" y="799" on="0"/>
        <pt x="428" y="799" on="0"/>
        <pt x="499" y="867" on="0"/>
        <pt x="500" y="924" on="1"/>
        <pt x="532" y="924" on="1"/>
        <pt x="532" y="858" on="0"/>
      </contour>
    </TTGlyph>
    <TTGlyph name="Acircumflex" xMin="61" yMin="0" xMax="681" yMax="981">
      <contour>
        <pt x="681" y="0" on="1"/>
        <pt x="642" y="0" on="1"/>
        <pt x="515" y="300" on="1"/>
        <pt x="227" y="300" on="1"/>
        <pt x="100" y="0" on="1"/>
        <pt x="61" y="0" on="1"/>
        <pt x="371" y="732" on="1"/>
      </contour>
      <contour>
        <pt x="361" y="616" on="1"/>
        <pt x="241" y="334" on="1"/>
        <pt x="500" y="334" on="1"/>
        <pt x="381" y="616" on="1"/>
        <pt x="371" y="648" on="1"/>
      </contour>
      <contour>
        <pt x="371" y="981" on="1"/>
        <pt x="491" y="800" on="1"/>
        <pt x="458" y="800" on="1"/>
        <pt x="371" y="922" on="1"/>
        <pt x="284" y="800" on="1"/>
        <pt x="251" y="800" on="1"/>
      </contour>
    </TTGlyph>
    <TTGlyph name="Adieresis" xMin="61" yMin="0" xMax="681" yMax="864">
      <contour>
        <pt x="288" y="818" on="0"/>
        <pt x="269" y="800" on="0"/>
        <pt x="244" y="800" on="0"/>
        <pt x="225" y="818" on="0"/>
        <pt x="225" y="845" on="0"/>
        <pt x="245" y="864" on="0"/>
        <pt x="269" y="864" on="0"/>
        <pt x="288" y="845" on="0"/>
      </contour>
      <contour>
        <pt x="521" y="818" on="0"/>
        <pt x="502" y="800" on="0"/>
        <pt x="477" y="800" on="0"/>
        <pt x="458" y="818" on="0"/>
        <pt x="458" y="845" on="0"/>
        <pt x="478" y="864" on="0"/>
        <pt x="502" y="864" on="0"/>
        <pt x="521" y="845" on="0"/>
      </contour>
      <contour>
        <pt x="681" y="0" on="1"/>
        <pt x="642" y="0" on="1"/>
        <pt x="515" y="300" on="1"/>
        <pt x="227" y="300" on="1"/>
        <pt x="100" y="0" on="1"/>
        <pt x="61" y="0" on="1"/>
        <pt x="371" y="732" on="1"/>
      </contour>
      <contour>
        <pt x="361" y="616" on="1"/>
        <pt x="241" y="334" on="1"/>
        <pt x="500" y="334" on="1"/>
        <pt x="381" y="616" on="1"/>
        <pt x="371" y="648" on="1"/>
      </contour>
    </TTGlyph>
    <TTGlyph name="Agrave" xMin="61" yMin="0" xMax="681" yMax="933">
      <contour>
        <pt x="298" y="933" on="1"/>
        <pt x="388" y="800" on="1"/>
        <pt x="355" y="800" on="1"/>
        <pt x="261" y="933" on="1"/>
      </contour>
      <contour>
        <pt x="681" y="0" on="1"/>
        <pt x="642" y="0" on="1"/>
        <pt x="515" y="300" on="1"/>
        <pt x="227" y="300" on="1"/>
        <pt x="100" y="0" on="1"/>
        <pt x="61" y="0" on="1"/>
        <pt x="371" y="732" on="1"/>
      </contour>
      <contour>
        <pt x="361" y="616" on="1"/>
        <pt x="241" y="334" on="1"/>
        <pt x="500" y="334" on="1"/>
        <pt x="381" y="616" on="1"/>
        <pt x="371" y="648" on="1"/>
      </contour>
    </TTGlyph>
    <TTGlyph name="Amacron" xMin="61" yMin="0" xMax="681" yMax="841">
      <contour>
        <pt x="681" y="0" on="1"/>
        <pt x="642" y="0" on="1"/>
        <pt x="515" y="300" on="1"/>
        <pt x="227" y="300" on="1"/>
        <pt x="100" y="0" on="1"/>
        <pt x="61" y="0" on="1"/>
        <pt x="371" y="732" on="1"/>
      </contour>
      <contour>
        <pt x="361" y="616" on="1"/>
        <pt x="241" y="334" on="1"/>
        <pt x="500" y="334" on="1"/>
        <pt x="381" y="616" on="1"/>
        <pt x="371" y="648" on="1"/>
      </contour>
      <contour>
        <pt x="255" y="808" on="1"/>
        <pt x="255" y="841" on="1"/>
        <pt x="485" y="841" on="1"/>
        <pt x="485" y="808" on="1"/>
      </contour>
    </TTGlyph>
    <TTGlyph name="Aogonek" xMin="61" yMin="-241" xMax="681" yMax="732">
      <contour>
        <pt x="657" y="-209" on="1"/>
        <pt x="657" y="-241" on="1"/>
        <pt x="609" y="-241" on="0"/>
        <pt x="556" y="-180" on="0"/>
        <pt x="556" y="-86" on="0"/>
        <pt x="592" y="-59" on="1"/>
        <pt x="595" y="-57" on="0"/>
        <pt x="617" y="-44" on="0"/>
        <pt x="624" y="-39" on="1"/>
        <pt x="642" y="-25" on="0"/>
        <pt x="642" y="0" on="1"/>
        <pt x="515" y="300" on="1"/>
        <pt x="227" y="300" on="1"/>
        <pt x="100" y="0" on="1"/>
        <pt x="61" y="0" on="1"/>
        <pt x="371" y="732" on="1"/>
        <pt x="681" y="0" on="1"/>
        <pt x="681" y="-22" on="0"/>
        <pt x="655" y="-48" on="0"/>
        <pt x="650" y="-53" on="1"/>
        <pt x="637" y="-64" on="0"/>
        <pt x="612" y="-81" on="1"/>
        <pt x="587" y="-105" on="0"/>
        <pt x="587" y="-168" on="0"/>
        <pt x="626" y="-209" on="0"/>
      </contour>
      <contour>
        <pt x="371" y="640" on="1"/>
        <pt x="241" y="334" on="1"/>
        <pt x="500" y="334" on="1"/>
      </contour>
    </TTGlyph>
    <TTGlyph name="Aring" xMin="61" yMin="0" xMax="681" yMax="905">
      <contour>
        <pt x="304" y="811" on="0"/>
        <pt x="304" y="865" on="0"/>
        <pt x="344" y="905" on="0"/>
        <pt x="398" y="905" on="0"/>
        <pt x="438" y="865" on="0"/>
        <pt x="438" y="811" on="0"/>
        <pt x="398" y="771" on="0"/>
        <pt x="344" y="771" on="0"/>
      </contour>
      <contour>
        <pt x="332" y="855" on="0"/>
        <pt x="332" y="821" on="0"/>
        <pt x="354" y="799" on="0"/>
        <pt x="388" y="799" on="0"/>
        <pt x="410" y="821" on="0"/>
        <pt x="410" y="855" on="0"/>
        <pt x="388" y="877" on="0"/>
        <pt x="354" y="877" on="0"/>
      </contour>
      <contour>
        <pt x="681" y="0" on="1"/>
        <pt x="642" y="0" on="1"/>
        <pt x="515" y="300" on="1"/>
        <pt x="227" y="300" on="1"/>
        <pt x="100" y="0" on="1"/>
        <pt x="61" y="0" on="1"/>
        <pt x="371" y="732" on="1"/>
      </contour>
      <contour>
        <pt x="361" y="616" on="1"/>
        <pt x="241" y="334" on="1"/>
        <pt x="500" y="334" on="1"/>
        <pt x="381" y="616" on="1"/>
        <pt x="371" y="648" on="1"/>
      </contour>
    </TTGlyph>
    <TTGlyph name="Atilde" xMin="61" yMin="0" xMax="681" yMax="874">
      <contour>
        <pt x="519" y="824" on="0"/>
        <pt x="467" y="788" on="0"/>
        <pt x="397" y="788" on="0"/>
        <pt x="335" y="846" on="0"/>
        <pt x="311" y="846" on="1"/>
        <pt x="255" y="846" on="0"/>
        <pt x="249" y="800" on="1"/>
        <pt x="221" y="803" on="1"/>
        <pt x="223" y="838" on="0"/>
        <pt x="275" y="874" on="0"/>
        <pt x="345" y="874" on="0"/>
        <pt x="407" y="816" on="0"/>
        <pt x="431" y="816" on="1"/>
        <pt x="487" y="816" on="0"/>
        <pt x="493" y="862" on="1"/>
        <pt x="521" y="859" on="1"/>
      </contour>
      <contour>
        <pt x="681" y="0" on="1"/>
        <pt x="642" y="0" on="1"/>
        <pt x="515" y="300" on="1"/>
        <pt x="227" y="300" on="1"/>
        <pt x="100" y="0" on="1"/>
        <pt x="61" y="0" on="1"/>
        <pt x="371" y="732" on="1"/>
      </contour>
      <contour>
        <pt x="361" y="616" on="1"/>
        <pt x="241" y="334" on="1"/>
        <pt x="500" y="334" on="1"/>
        <pt x="381" y="616" on="1"/>
        <pt x="371" y="648" on="1"/>
      </contour>
    </TTGlyph>
    <TTGlyph name="B" xMin="80" yMin="0" xMax="463" yMax="700">
      <contour>
        <pt x="80" y="0" on="1"/>
        <pt x="80" y="700" on="1"/>
        <pt x="231" y="700" on="1"/>
        <pt x="328" y="700" on="0"/>
        <pt x="437" y="615" on="0"/>
        <pt x="437" y="525" on="1"/>
        <pt x="437" y="461" on="0"/>
        <pt x="373" y="369" on="0"/>
        <pt x="311" y="352" on="1"/>
        <pt x="376" y="338" on="0"/>
        <pt x="463" y="249" on="0"/>
        <pt x="463" y="180" on="1"/>
        <pt x="463" y="95" on="0"/>
        <pt x="337" y="0" on="0"/>
        <pt x="249" y="0" on="1"/>
      </contour>
      <contour>
        <pt x="117" y="336" on="1"/>
        <pt x="117" y="33" on="1"/>
        <pt x="249" y="33" on="1"/>
        <pt x="325" y="33" on="0"/>
        <pt x="426" y="110" on="0"/>
        <pt x="426" y="257" on="0"/>
        <pt x="313" y="336" on="0"/>
        <pt x="232" y="336" on="1"/>
      </contour>
      <contour>
        <pt x="117" y="667" on="1"/>
        <pt x="117" y="369" on="1"/>
        <pt x="246" y="369" on="1"/>
        <pt x="316" y="369" on="0"/>
        <pt x="400" y="455" on="0"/>
        <pt x="400" y="525" on="1"/>
        <pt x="400" y="667" on="0"/>
        <pt x="244" y="667" on="1"/>
      </contour>
    </TTGlyph>
    <TTGlyph name="C" xMin="62" yMin="-8" xMax="600" yMax="708">
      <contour>
        <pt x="572" y="68" on="1"/>
        <pt x="600" y="41" on="1"/>
        <pt x="516" y="-8" on="0"/>
        <pt x="419" y="-8" on="1"/>
        <pt x="271" y="-8" on="0"/>
        <pt x="62" y="201" on="0"/>
        <pt x="62" y="498" on="0"/>
        <pt x="271" y="708" on="0"/>
        <pt x="419" y="708" on="1"/>
        <pt x="517" y="708" on="0"/>
        <pt x="599" y="660" on="1"/>
        <pt x="573" y="631" on="1"/>
        <pt x="499" y="671" on="0"/>
        <pt x="419" y="671" on="1"/>
        <pt x="287" y="671" on="0"/>
        <pt x="99" y="481" on="0"/>
        <pt x="99" y="217" on="0"/>
        <pt x="287" y="29" on="0"/>
        <pt x="419" y="29" on="1"/>
        <pt x="500" y="29" on="0"/>
      </contour>
    </TTGlyph>
    <TTGlyph name="Cacute" xMin="62" yMin="-8" xMax="600" yMax="937">
      <contour>
        <pt x="572" y="68" on="1"/>
        <pt x="600" y="41" on="1"/>
        <pt x="516" y="-8" on="0"/>
        <pt x="419" y="-8" on="1"/>
        <pt x="271" y="-8" on="0"/>
        <pt x="62" y="201" on="0"/>
        <pt x="62" y="498" on="0"/>
        <pt x="271" y="708" on="0"/>
        <pt x="419" y="708" on="1"/>
        <pt x="517" y="708" on="0"/>
        <pt x="599" y="660" on="1"/>
        <pt x="573" y="631" on="1"/>
        <pt x="499" y="671" on="0"/>
        <pt x="419" y="671" on="1"/>
        <pt x="287" y="671" on="0"/>
        <pt x="99" y="481" on="0"/>
        <pt x="99" y="217" on="0"/>
        <pt x="287" y="29" on="0"/>
        <pt x="419" y="29" on="1"/>
        <pt x="500" y="29" on="0"/>
      </contour>
      <contour>
        <pt x="400" y="804" on="1"/>
        <pt x="490" y="937" on="1"/>
        <pt x="527" y="937" on="1"/>
        <pt x="433" y="804" on="1"/>
      </contour>
    </TTGlyph>
    <TTGlyph name="Ccaron" xMin="62" yMin="-8" xMax="600" yMax="1006">
      <contour>
        <pt x="572" y="68" on="1"/>
        <pt x="600" y="41" on="1"/>
        <pt x="516" y="-8" on="0"/>
        <pt x="419" y="-8" on="1"/>
        <pt x="271" y="-8" on="0"/>
        <pt x="62" y="201" on="0"/>
        <pt x="62" y="498" on="0"/>
        <pt x="271" y="708" on="0"/>
        <pt x="419" y="708" on="1"/>
        <pt x="517" y="708" on="0"/>
        <pt x="599" y="660" on="1"/>
        <pt x="573" y="631" on="1"/>
        <pt x="499" y="671" on="0"/>
        <pt x="419" y="671" on="1"/>
        <pt x="287" y="671" on="0"/>
        <pt x="99" y="481" on="0"/>
        <pt x="99" y="217" on="0"/>
        <pt x="287" y="29" on="0"/>
        <pt x="419" y="29" on="1"/>
        <pt x="500" y="29" on="0"/>
      </contour>
      <contour>
        <pt x="540" y="1006" on="1"/>
        <pt x="420" y="825" on="1"/>
        <pt x="300" y="1006" on="1"/>
        <pt x="333" y="1006" on="1"/>
        <pt x="420" y="884" on="1"/>
        <pt x="507" y="1006" on="1"/>
      </contour>
    </TTGlyph>
    <TTGlyph name="Ccedilla" xMin="62" yMin="-241" xMax="600" yMax="708">
      <contour>
        <pt x="572" y="68" on="1"/>
        <pt x="600" y="41" on="1"/>
        <pt x="522" y="-5" on="0"/>
        <pt x="429" y="-8" on="1"/>
        <pt x="429" y="-33" on="0"/>
        <pt x="443" y="-42" on="1"/>
        <pt x="448" y="-46" on="0"/>
        <pt x="457" y="-51" on="1"/>
        <pt x="506" y="-78" on="0"/>
        <pt x="506" y="-137" on="1"/>
        <pt x="506" y="-180" on="0"/>
        <pt x="453" y="-241" on="0"/>
        <pt x="412" y="-241" on="1"/>
        <pt x="330" y="-241" on="0"/>
        <pt x="305" y="-169" on="1"/>
        <pt x="339" y="-161" on="1"/>
        <pt x="345" y="-182" on="0"/>
        <pt x="381" y="-209" on="0"/>
        <pt x="436" y="-209" on="0"/>
        <pt x="475" y="-168" on="0"/>
        <pt x="475" y="-105" on="0"/>
        <pt x="450" y="-81" on="1"/>
        <pt x="443" y="-76" on="0"/>
        <pt x="416" y="-59" on="0"/>
        <pt x="410" y="-54" on="1"/>
        <pt x="392" y="-41" on="0"/>
        <pt x="392" y="-16" on="1"/>
        <pt x="392" y="-7" on="1"/>
        <pt x="253" y="3" on="0"/>
        <pt x="62" y="208" on="0"/>
        <pt x="62" y="498" on="0"/>
        <pt x="271" y="708" on="0"/>
        <pt x="419" y="708" on="1"/>
        <pt x="517" y="708" on="0"/>
        <pt x="599" y="660" on="1"/>
        <pt x="573" y="631" on="1"/>
        <pt x="499" y="671" on="0"/>
        <pt x="419" y="671" on="1"/>
        <pt x="287" y="671" on="0"/>
        <pt x="99" y="481" on="0"/>
        <pt x="99" y="217" on="0"/>
        <pt x="287" y="29" on="0"/>
        <pt x="419" y="29" on="1"/>
        <pt x="500" y="29" on="0"/>
      </contour>
    </TTGlyph>
    <TTGlyph name="Ccircumflex" xMin="62" yMin="-8" xMax="600" yMax="985">
      <contour>
        <pt x="572" y="68" on="1"/>
        <pt x="600" y="41" on="1"/>
        <pt x="516" y="-8" on="0"/>
        <pt x="419" y="-8" on="1"/>
        <pt x="271" y="-8" on="0"/>
        <pt x="62" y="201" on="0"/>
        <pt x="62" y="498" on="0"/>
        <pt x="271" y="708" on="0"/>
        <pt x="419" y="708" on="1"/>
        <pt x="517" y="708" on="0"/>
        <pt x="599" y="660" on="1"/>
        <pt x="573" y="631" on="1"/>
        <pt x="499" y="671" on="0"/>
        <pt x="419" y="671" on="1"/>
        <pt x="287" y="671" on="0"/>
        <pt x="99" y="481" on="0"/>
        <pt x="99" y="217" on="0"/>
        <pt x="287" y="29" on="0"/>
        <pt x="419" y="29" on="1"/>
        <pt x="500" y="29" on="0"/>
      </contour>
      <contour>
        <pt x="416" y="985" on="1"/>
        <pt x="536" y="804" on="1"/>
        <pt x="503" y="804" on="1"/>
        <pt x="416" y="926" on="1"/>
        <pt x="329" y="804" on="1"/>
        <pt x="296" y="804" on="1"/>
      </contour>
    </TTGlyph>
    <TTGlyph name="Cdotaccent" xMin="62" yMin="-8" xMax="600" yMax="890">
      <contour>
        <pt x="572" y="68" on="1"/>
        <pt x="600" y="41" on="1"/>
        <pt x="516" y="-8" on="0"/>
        <pt x="419" y="-8" on="1"/>
        <pt x="271" y="-8" on="0"/>
        <pt x="62" y="201" on="0"/>
        <pt x="62" y="498" on="0"/>
        <pt x="271" y="708" on="0"/>
        <pt x="419" y="708" on="1"/>
        <pt x="517" y="708" on="0"/>
        <pt x="599" y="660" on="1"/>
        <pt x="573" y="631" on="1"/>
        <pt x="499" y="671" on="0"/>
        <pt x="419" y="671" on="1"/>
        <pt x="287" y="671" on="0"/>
        <pt x="99" y="481" on="0"/>
        <pt x="99" y="217" on="0"/>
        <pt x="287" y="29" on="0"/>
        <pt x="419" y="29" on="1"/>
        <pt x="500" y="29" on="0"/>
      </contour>
      <contour>
        <pt x="450" y="844" on="0"/>
        <pt x="431" y="826" on="0"/>
        <pt x="406" y="826" on="0"/>
        <pt x="387" y="844" on="0"/>
        <pt x="387" y="871" on="0"/>
        <pt x="407" y="890" on="0"/>
        <pt x="431" y="890" on="0"/>
        <pt x="450" y="871" on="0"/>
      </contour>
    </TTGlyph>
    <TTGlyph name="D" xMin="82" yMin="0" xMax="580" yMax="700">
      <contour>
        <pt x="82" y="0" on="1"/>
        <pt x="82" y="700" on="1"/>
        <pt x="221" y="700" on="1"/>
        <pt x="372" y="700" on="0"/>
        <pt x="580" y="506" on="0"/>
        <pt x="580" y="350" on="1"/>
        <pt x="580" y="221" on="0"/>
        <pt x="492" y="116" on="1"/>
        <pt x="447" y="64" on="0"/>
        <pt x="289" y="0" on="0"/>
        <pt x="186" y="0" on="1"/>
      </contour>
      <contour>
        <pt x="119" y="667" on="1"/>
        <pt x="119" y="33" on="1"/>
        <pt x="203" y="33" on="1"/>
        <pt x="350" y="33" on="0"/>
        <pt x="543" y="208" on="0"/>
        <pt x="543" y="492" on="0"/>
        <pt x="350" y="667" on="0"/>
        <pt x="203" y="667" on="1"/>
      </contour>
    </TTGlyph>
    <TTGlyph name="Dcaron" xMin="82" yMin="0" xMax="580" yMax="1006">
      <contour>
        <pt x="82" y="0" on="1"/>
        <pt x="82" y="700" on="1"/>
        <pt x="221" y="700" on="1"/>
        <pt x="372" y="700" on="0"/>
        <pt x="580" y="506" on="0"/>
        <pt x="580" y="350" on="1"/>
        <pt x="580" y="221" on="0"/>
        <pt x="492" y="116" on="1"/>
        <pt x="447" y="64" on="0"/>
        <pt x="289" y="0" on="0"/>
        <pt x="186" y="0" on="1"/>
      </contour>
      <contour>
        <pt x="119" y="667" on="1"/>
        <pt x="119" y="33" on="1"/>
        <pt x="203" y="33" on="1"/>
        <pt x="350" y="33" on="0"/>
        <pt x="543" y="208" on="0"/>
        <pt x="543" y="492" on="0"/>
        <pt x="350" y="667" on="0"/>
        <pt x="203" y="667" on="1"/>
      </contour>
      <contour>
        <pt x="446" y="1006" on="1"/>
        <pt x="326" y="825" on="1"/>
        <pt x="206" y="1006" on="1"/>
        <pt x="239" y="1006" on="1"/>
        <pt x="326" y="884" on="1"/>
        <pt x="413" y="1006" on="1"/>
      </contour>
    </TTGlyph>
    <TTGlyph name="Dcroat" xMin="-14" yMin="0" xMax="580" yMax="700">
      <contour>
        <pt x="-14" y="374" on="1"/>
        <pt x="-14" y="407" on="1"/>
        <pt x="82" y="407" on="1"/>
        <pt x="82" y="700" on="1"/>
        <pt x="221" y="700" on="1"/>
        <pt x="372" y="700" on="0"/>
        <pt x="580" y="506" on="0"/>
        <pt x="580" y="350" on="1"/>
        <pt x="580" y="221" on="0"/>
        <pt x="492" y="116" on="1"/>
        <pt x="447" y="64" on="0"/>
        <pt x="289" y="0" on="0"/>
        <pt x="186" y="0" on="1"/>
        <pt x="82" y="0" on="1"/>
        <pt x="82" y="374" on="1"/>
      </contour>
      <contour>
        <pt x="119" y="374" on="1"/>
        <pt x="119" y="33" on="1"/>
        <pt x="203" y="33" on="1"/>
        <pt x="350" y="33" on="0"/>
        <pt x="543" y="208" on="0"/>
        <pt x="543" y="492" on="0"/>
        <pt x="350" y="667" on="0"/>
        <pt x="203" y="667" on="1"/>
        <pt x="119" y="667" on="1"/>
        <pt x="119" y="407" on="1"/>
        <pt x="216" y="407" on="1"/>
        <pt x="216" y="374" on="1"/>
      </contour>
    </TTGlyph>
    <TTGlyph name="Delta" xMin="53" yMin="250" xMax="116" yMax="314">
      <contour>
        <pt x="116" y="268" on="0"/>
        <pt x="97" y="250" on="0"/>
        <pt x="72" y="250" on="0"/>
        <pt x="53" y="268" on="0"/>
        <pt x="53" y="295" on="0"/>
        <pt x="73" y="314" on="0"/>
        <pt x="97" y="314" on="0"/>
        <pt x="116" y="295" on="0"/>
      </contour>
    </TTGlyph>
    <TTGlyph name="E" xMin="91" yMin="0" xMax="514" yMax="700">
      <contour>
        <pt x="91" y="0" on="1"/>
        <pt x="91" y="700" on="1"/>
        <pt x="500" y="700" on="1"/>
        <pt x="500" y="667" on="1"/>
        <pt x="128" y="667" on="1"/>
        <pt x="128" y="369" on="1"/>
        <pt x="461" y="369" on="1"/>
        <pt x="461" y="336" on="1"/>
        <pt x="128" y="336" on="1"/>
        <pt x="128" y="33" on="1"/>
        <pt x="514" y="33" on="1"/>
        <pt x="514" y="0" on="1"/>
      </contour>
    </TTGlyph>
    <TTGlyph name="Eacute" xMin="91" yMin="0" xMax="514" yMax="933">
      <contour>
        <pt x="274" y="800" on="1"/>
        <pt x="364" y="933" on="1"/>
        <pt x="401" y="933" on="1"/>
        <pt x="307" y="800" on="1"/>
      </contour>
      <contour>
        <pt x="91" y="0" on="1"/>
        <pt x="91" y="700" on="1"/>
        <pt x="500" y="700" on="1"/>
        <pt x="500" y="667" on="1"/>
        <pt x="128" y="667" on="1"/>
        <pt x="128" y="369" on="1"/>
        <pt x="461" y="369" on="1"/>
        <pt x="461" y="336" on="1"/>
        <pt x="128" y="336" on="1"/>
        <pt x="128" y="33" on="1"/>
        <pt x="514" y="33" on="1"/>
        <pt x="514" y="0" on="1"/>
      </contour>
    </TTGlyph>
    <TTGlyph name="Ebreve" xMin="91" yMin="0" xMax="514" yMax="924">
      <contour>
        <pt x="91" y="0" on="1"/>
        <pt x="91" y="700" on="1"/>
        <pt x="500" y="700" on="1"/>
        <pt x="500" y="667" on="1"/>
        <pt x="128" y="667" on="1"/>
        <pt x="128" y="369" on="1"/>
        <pt x="461" y="369" on="1"/>
        <pt x="461" y="336" on="1"/>
        <pt x="128" y="336" on="1"/>
        <pt x="128" y="33" on="1"/>
        <pt x="514" y="33" on="1"/>
        <pt x="514" y="0" on="1"/>
      </contour>
      <contour>
        <pt x="367" y="767" on="0"/>
        <pt x="235" y="767" on="0"/>
        <pt x="139" y="858" on="0"/>
        <pt x="138" y="924" on="1"/>
        <pt x="171" y="924" on="1"/>
        <pt x="172" y="868" on="0"/>
        <pt x="245" y="799" on="0"/>
        <pt x="358" y="799" on="0"/>
        <pt x="429" y="867" on="0"/>
        <pt x="430" y="924" on="1"/>
        <pt x="462" y="924" on="1"/>
        <pt x="462" y="858" on="0"/>
      </contour>
    </TTGlyph>
    <TTGlyph name="Ecaron" xMin="91" yMin="0" xMax="514" yMax="1006">
      <contour>
        <pt x="91" y="0" on="1"/>
        <pt x="91" y="700" on="1"/>
        <pt x="500" y="700" on="1"/>
        <pt x="500" y="667" on="1"/>
        <pt x="128" y="667" on="1"/>
        <pt x="128" y="369" on="1"/>
        <pt x="461" y="369" on="1"/>
        <pt x="461" y="336" on="1"/>
        <pt x="128" y="336" on="1"/>
        <pt x="128" y="33" on="1"/>
        <pt x="514" y="33" on="1"/>
        <pt x="514" y="0" on="1"/>
      </contour>
      <contour>
        <pt x="420" y="1006" on="1"/>
        <pt x="300" y="825" on="1"/>
        <pt x="180" y="1006" on="1"/>
        <pt x="213" y="1006" on="1"/>
        <pt x="300" y="884" on="1"/>
        <pt x="387" y="1006" on="1"/>
      </contour>
    </TTGlyph>
    <TTGlyph name="Ecircumflex" xMin="91" yMin="0" xMax="514" yMax="981">
      <contour>
        <pt x="91" y="0" on="1"/>
        <pt x="91" y="700" on="1"/>
        <pt x="500" y="700" on="1"/>
        <pt x="500" y="667" on="1"/>
        <pt x="128" y="667" on="1"/>
        <pt x="128" y="369" on="1"/>
        <pt x="461" y="369" on="1"/>
        <pt x="461" y="336" on="1"/>
        <pt x="128" y="336" on="1"/>
        <pt x="128" y="33" on="1"/>
        <pt x="514" y="33" on="1"/>
        <pt x="514" y="0" on="1"/>
      </contour>
      <contour>
        <pt x="300" y="981" on="1"/>
        <pt x="420" y="800" on="1"/>
        <pt x="387" y="800" on="1"/>
        <pt x="300" y="922" on="1"/>
        <pt x="213" y="800" on="1"/>
        <pt x="180" y="800" on="1"/>
      </contour>
    </TTGlyph>
    <TTGlyph name="Edieresis" xMin="91" yMin="0" xMax="514" yMax="864">
      <contour>
        <pt x="210" y="818" on="0"/>
        <pt x="191" y="800" on="0"/>
        <pt x="166" y="800" on="0"/>
        <pt x="147" y="818" on="0"/>
        <pt x="147" y="845" on="0"/>
        <pt x="167" y="864" on="0"/>
        <pt x="191" y="864" on="0"/>
        <pt x="210" y="845" on="0"/>
      </contour>
      <contour>
        <pt x="443" y="818" on="0"/>
        <pt x="424" y="800" on="0"/>
        <pt x="399" y="800" on="0"/>
        <pt x="380" y="818" on="0"/>
        <pt x="380" y="845" on="0"/>
        <pt x="400" y="864" on="0"/>
        <pt x="424" y="864" on="0"/>
        <pt x="443" y="845" on="0"/>
      </contour>
      <contour>
        <pt x="91" y="0" on="1"/>
        <pt x="91" y="700" on="1"/>
        <pt x="500" y="700" on="1"/>
        <pt x="500" y="667" on="1"/>
        <pt x="128" y="667" on="1"/>
        <pt x="128" y="369" on="1"/>
        <pt x="461" y="369" on="1"/>
        <pt x="461" y="336" on="1"/>
        <pt x="128" y="336" on="1"/>
        <pt x="128" y="33" on="1"/>
        <pt x="514" y="33" on="1"/>
        <pt x="514" y="0" on="1"/>
      </contour>
    </TTGlyph>
    <TTGlyph name="Edotaccent" xMin="91" yMin="0" xMax="514" yMax="890">
      <contour>
        <pt x="91" y="0" on="1"/>
        <pt x="91" y="700" on="1"/>
        <pt x="500" y="700" on="1"/>
        <pt x="500" y="667" on="1"/>
        <pt x="128" y="667" on="1"/>
        <pt x="128" y="369" on="1"/>
        <pt x="461" y="369" on="1"/>
        <pt x="461" y="336" on="1"/>
        <pt x="128" y="336" on="1"/>
        <pt x="128" y="33" on="1"/>
        <pt x="514" y="33" on="1"/>
        <pt x="514" y="0" on="1"/>
      </contour>
      <contour>
        <pt x="332" y="844" on="0"/>
        <pt x="313" y="826" on="0"/>
        <pt x="288" y="826" on="0"/>
        <pt x="269" y="844" on="0"/>
        <pt x="269" y="871" on="0"/>
        <pt x="289" y="890" on="0"/>
        <pt x="313" y="890" on="0"/>
        <pt x="332" y="871" on="0"/>
      </contour>
    </TTGlyph>
    <TTGlyph name="Egrave" xMin="91" yMin="0" xMax="514" yMax="933">
      <contour>
        <pt x="217" y="933" on="1"/>
        <pt x="307" y="800" on="1"/>
        <pt x="274" y="800" on="1"/>
        <pt x="180" y="933" on="1"/>
      </contour>
      <contour>
        <pt x="91" y="0" on="1"/>
        <pt x="91" y="700" on="1"/>
        <pt x="500" y="700" on="1"/>
        <pt x="500" y="667" on="1"/>
        <pt x="128" y="667" on="1"/>
        <pt x="128" y="369" on="1"/>
        <pt x="461" y="369" on="1"/>
        <pt x="461" y="336" on="1"/>
        <pt x="128" y="336" on="1"/>
        <pt x="128" y="33" on="1"/>
        <pt x="514" y="33" on="1"/>
        <pt x="514" y="0" on="1"/>
      </contour>
    </TTGlyph>
    <TTGlyph name="Emacron" xMin="91" yMin="0" xMax="514" yMax="841">
      <contour>
        <pt x="91" y="0" on="1"/>
        <pt x="91" y="700" on="1"/>
        <pt x="500" y="700" on="1"/>
        <pt x="500" y="667" on="1"/>
        <pt x="128" y="667" on="1"/>
        <pt x="128" y="369" on="1"/>
        <pt x="461" y="369" on="1"/>
        <pt x="461" y="336" on="1"/>
        <pt x="128" y="336" on="1"/>
        <pt x="128" y="33" on="1"/>
        <pt x="514" y="33" on="1"/>
        <pt x="514" y="0" on="1"/>
      </contour>
      <contour>
        <pt x="185" y="808" on="1"/>
        <pt x="185" y="841" on="1"/>
        <pt x="415" y="841" on="1"/>
        <pt x="415" y="808" on="1"/>
      </contour>
    </TTGlyph>
    <TTGlyph name="Eng" xMin="100" yMin="-250" xMax="711" yMax="732">
      <contour>
        <pt x="711" y="680" on="1"/>
        <pt x="711" y="-60" on="1"/>
        <pt x="710" y="-140" on="0"/>
        <pt x="598" y="-250" on="0"/>
        <pt x="517" y="-250" on="1"/>
        <pt x="517" y="-218" on="1"/>
        <pt x="585" y="-218" on="0"/>
        <pt x="672" y="-128" on="0"/>
        <pt x="674" y="-60" on="1"/>
        <pt x="674" y="11" on="1"/>
        <pt x="137" y="633" on="1"/>
        <pt x="137" y="0" on="1"/>
        <pt x="100" y="0" on="1"/>
        <pt x="100" y="732" on="1"/>
        <pt x="674" y="67" on="1"/>
        <pt x="674" y="680" on="1"/>
      </contour>
    </TTGlyph>
    <TTGlyph name="Eogonek" xMin="91" yMin="-241" xMax="514" yMax="700">
      <contour>
        <pt x="91" y="0" on="1"/>
        <pt x="91" y="700" on="1"/>
        <pt x="500" y="700" on="1"/>
        <pt x="500" y="667" on="1"/>
        <pt x="128" y="667" on="1"/>
        <pt x="128" y="369" on="1"/>
        <pt x="461" y="369" on="1"/>
        <pt x="461" y="336" on="1"/>
        <pt x="128" y="336" on="1"/>
        <pt x="128" y="33" on="1"/>
        <pt x="514" y="33" on="1"/>
        <pt x="514" y="0" on="1"/>
        <pt x="514" y="-17" on="0"/>
        <pt x="494" y="-49" on="0"/>
        <pt x="475" y="-66" on="0"/>
        <pt x="455" y="-81" on="1"/>
        <pt x="430" y="-105" on="0"/>
        <pt x="430" y="-168" on="0"/>
        <pt x="469" y="-209" on="0"/>
        <pt x="500" y="-209" on="1"/>
        <pt x="500" y="-241" on="1"/>
        <pt x="452" y="-241" on="0"/>
        <pt x="399" y="-180" on="0"/>
        <pt x="399" y="-86" on="0"/>
        <pt x="435" y="-59" on="1"/>
        <pt x="438" y="-57" on="0"/>
        <pt x="460" y="-44" on="0"/>
        <pt x="466" y="-39" on="1"/>
        <pt x="485" y="-25" on="0"/>
        <pt x="485" y="0" on="1"/>
      </contour>
    </TTGlyph>
    <TTGlyph name="Eth" xMin="22" yMin="0" xMax="580" yMax="700">
      <contour>
        <pt x="22" y="336" on="1"/>
        <pt x="22" y="369" on="1"/>
        <pt x="82" y="369" on="1"/>
        <pt x="82" y="700" on="1"/>
        <pt x="221" y="700" on="1"/>
        <pt x="372" y="700" on="0"/>
        <pt x="580" y="506" on="0"/>
        <pt x="580" y="350" on="1"/>
        <pt x="580" y="221" on="0"/>
        <pt x="492" y="116" on="1"/>
        <pt x="447" y="64" on="0"/>
        <pt x="289" y="0" on="0"/>
        <pt x="186" y="0" on="1"/>
        <pt x="82" y="0" on="1"/>
        <pt x="82" y="336" on="1"/>
      </contour>
      <contour>
        <pt x="119" y="667" on="1"/>
        <pt x="119" y="369" on="1"/>
        <pt x="323" y="369" on="1"/>
        <pt x="323" y="336" on="1"/>
        <pt x="119" y="336" on="1"/>
        <pt x="119" y="33" on="1"/>
        <pt x="203" y="33" on="1"/>
        <pt x="350" y="33" on="0"/>
        <pt x="543" y="208" on="0"/>
        <pt x="543" y="492" on="0"/>
        <pt x="350" y="667" on="0"/>
        <pt x="203" y="667" on="1"/>
      </contour>
    </TTGlyph>
    <TTGlyph name="Euro" xMin="43" yMin="-8" xMax="541" yMax="658">
      <contour>
        <pt x="481" y="287" on="1"/>
        <pt x="481" y="255" on="1"/>
        <pt x="161" y="255" on="1"/>
        <pt x="179" y="155" on="0"/>
        <pt x="303" y="26" on="0"/>
        <pt x="458" y="25" on="0"/>
        <pt x="518" y="80" on="1"/>
        <pt x="541" y="53" on="1"/>
        <pt x="471" y="-8" on="0"/>
        <pt x="292" y="-7" on="0"/>
        <pt x="142" y="138" on="0"/>
        <pt x="123" y="255" on="1"/>
        <pt x="43" y="255" on="1"/>
        <pt x="43" y="287" on="1"/>
        <pt x="119" y="287" on="1"/>
        <pt x="118" y="300" on="0"/>
        <pt x="118" y="350" on="0"/>
        <pt x="119" y="361" on="1"/>
        <pt x="43" y="361" on="1"/>
        <pt x="43" y="393" on="1"/>
        <pt x="122" y="393" on="1"/>
        <pt x="140" y="515" on="0"/>
        <pt x="287" y="659" on="0"/>
        <pt x="388" y="658" on="1"/>
        <pt x="460" y="658" on="0"/>
        <pt x="519" y="619" on="1"/>
        <pt x="498" y="592" on="1"/>
        <pt x="448" y="625" on="0"/>
        <pt x="338" y="625" on="0"/>
        <pt x="255" y="584" on="0"/>
        <pt x="228" y="549" on="1"/>
        <pt x="177" y="482" on="0"/>
        <pt x="161" y="393" on="1"/>
        <pt x="481" y="393" on="1"/>
        <pt x="481" y="361" on="1"/>
        <pt x="157" y="361" on="1"/>
        <pt x="155" y="337" on="0"/>
        <pt x="155" y="300" on="0"/>
        <pt x="156" y="287" on="1"/>
      </contour>
    </TTGlyph>
    <TTGlyph name="F" xMin="91" yMin="0" xMax="500" yMax="700">
      <contour>
        <pt x="91" y="0" on="1"/>
        <pt x="91" y="700" on="1"/>
        <pt x="500" y="700" on="1"/>
        <pt x="500" y="667" on="1"/>
        <pt x="128" y="667" on="1"/>
        <pt x="128" y="369" on="1"/>
        <pt x="461" y="369" on="1"/>
        <pt x="461" y="336" on="1"/>
        <pt x="128" y="336" on="1"/>
        <pt x="128" y="0" on="1"/>
      </contour>
    </TTGlyph>
    <TTGlyph name="G" xMin="62" yMin="-8" xMax="614" yMax="708">
      <contour>
        <pt x="614" y="651" on="1"/>
        <pt x="587" y="623" on="1"/>
        <pt x="509" y="671" on="0"/>
        <pt x="419" y="671" on="1"/>
        <pt x="287" y="671" on="0"/>
        <pt x="99" y="481" on="0"/>
        <pt x="99" y="217" on="0"/>
        <pt x="287" y="29" on="0"/>
        <pt x="419" y="29" on="1"/>
        <pt x="497" y="29" on="0"/>
        <pt x="567" y="65" on="1"/>
        <pt x="567" y="236" on="1"/>
        <pt x="567" y="254" on="0"/>
        <pt x="559" y="266" on="0"/>
        <pt x="544" y="266" on="1"/>
        <pt x="417" y="266" on="1"/>
        <pt x="417" y="300" on="1"/>
        <pt x="555" y="300" on="1"/>
        <pt x="583" y="300" on="0"/>
        <pt x="603" y="272" on="0"/>
        <pt x="603" y="240" on="1"/>
        <pt x="603" y="44" on="1"/>
        <pt x="521" y="-8" on="0"/>
        <pt x="419" y="-8" on="1"/>
        <pt x="271" y="-8" on="0"/>
        <pt x="62" y="201" on="0"/>
        <pt x="62" y="498" on="0"/>
        <pt x="271" y="708" on="0"/>
        <pt x="419" y="708" on="1"/>
        <pt x="525" y="708" on="0"/>
      </contour>
    </TTGlyph>
    <TTGlyph name="Gbreve" xMin="62" yMin="-8" xMax="614" yMax="982">
      <contour>
        <pt x="614" y="651" on="1"/>
        <pt x="587" y="623" on="1"/>
        <pt x="509" y="671" on="0"/>
        <pt x="419" y="671" on="1"/>
        <pt x="287" y="671" on="0"/>
        <pt x="99" y="481" on="0"/>
        <pt x="99" y="217" on="0"/>
        <pt x="287" y="29" on="0"/>
        <pt x="419" y="29" on="1"/>
        <pt x="497" y="29" on="0"/>
        <pt x="567" y="65" on="1"/>
        <pt x="567" y="236" on="1"/>
        <pt x="567" y="254" on="0"/>
        <pt x="559" y="266" on="0"/>
        <pt x="544" y="266" on="1"/>
        <pt x="417" y="266" on="1"/>
        <pt x="417" y="300" on="1"/>
        <pt x="555" y="300" on="1"/>
        <pt x="583" y="300" on="0"/>
        <pt x="603" y="272" on="0"/>
        <pt x="603" y="240" on="1"/>
        <pt x="603" y="44" on="1"/>
        <pt x="521" y="-8" on="0"/>
        <pt x="419" y="-8" on="1"/>
        <pt x="271" y="-8" on="0"/>
        <pt x="62" y="201" on="0"/>
        <pt x="62" y="498" on="0"/>
        <pt x="271" y="708" on="0"/>
        <pt x="419" y="708" on="1"/>
        <pt x="525" y="708" on="0"/>
      </contour>
      <contour>
        <pt x="487" y="825" on="0"/>
        <pt x="355" y="825" on="0"/>
        <pt x="259" y="916" on="0"/>
        <pt x="258" y="982" on="1"/>
        <pt x="291" y="982" on="1"/>
        <pt x="292" y="926" on="0"/>
        <pt x="365" y="857" on="0"/>
        <pt x="478" y="857" on="0"/>
        <pt x="549" y="925" on="0"/>
        <pt x="550" y="982" on="1"/>
        <pt x="582" y="982" on="1"/>
        <pt x="582" y="916" on="0"/>
      </contour>
    </TTGlyph>
    <TTGlyph name="Gcircumflex" xMin="62" yMin="-8" xMax="614" yMax="985">
      <contour>
        <pt x="614" y="651" on="1"/>
        <pt x="587" y="623" on="1"/>
        <pt x="509" y="671" on="0"/>
        <pt x="419" y="671" on="1"/>
        <pt x="287" y="671" on="0"/>
        <pt x="99" y="481" on="0"/>
        <pt x="99" y="217" on="0"/>
        <pt x="287" y="29" on="0"/>
        <pt x="419" y="29" on="1"/>
        <pt x="497" y="29" on="0"/>
        <pt x="567" y="65" on="1"/>
        <pt x="567" y="236" on="1"/>
        <pt x="567" y="254" on="0"/>
        <pt x="559" y="266" on="0"/>
        <pt x="544" y="266" on="1"/>
        <pt x="417" y="266" on="1"/>
        <pt x="417" y="300" on="1"/>
        <pt x="555" y="300" on="1"/>
        <pt x="583" y="300" on="0"/>
        <pt x="603" y="272" on="0"/>
        <pt x="603" y="240" on="1"/>
        <pt x="603" y="44" on="1"/>
        <pt x="521" y="-8" on="0"/>
        <pt x="419" y="-8" on="1"/>
        <pt x="271" y="-8" on="0"/>
        <pt x="62" y="201" on="0"/>
        <pt x="62" y="498" on="0"/>
        <pt x="271" y="708" on="0"/>
        <pt x="419" y="708" on="1"/>
        <pt x="525" y="708" on="0"/>
      </contour>
      <contour>
        <pt x="420" y="985" on="1"/>
        <pt x="540" y="804" on="1"/>
        <pt x="507" y="804" on="1"/>
        <pt x="420" y="926" on="1"/>
        <pt x="333" y="804" on="1"/>
        <pt x="300" y="804" on="1"/>
      </contour>
    </TTGlyph>
    <TTGlyph name="Gcommaaccent" xMin="62" yMin="-250" xMax="614" yMax="708">
      <contour>
        <pt x="440" y="-44" on="1"/>
        <pt x="354" y="-250" on="1"/>
        <pt x="323" y="-250" on="1"/>
        <pt x="400" y="-44" on="1"/>
      </contour>
      <contour>
        <pt x="614" y="651" on="1"/>
        <pt x="587" y="623" on="1"/>
        <pt x="509" y="671" on="0"/>
        <pt x="419" y="671" on="1"/>
        <pt x="287" y="671" on="0"/>
        <pt x="99" y="481" on="0"/>
        <pt x="99" y="217" on="0"/>
        <pt x="287" y="29" on="0"/>
        <pt x="419" y="29" on="1"/>
        <pt x="497" y="29" on="0"/>
        <pt x="567" y="65" on="1"/>
        <pt x="567" y="236" on="1"/>
        <pt x="567" y="254" on="0"/>
        <pt x="559" y="266" on="0"/>
        <pt x="544" y="266" on="1"/>
        <pt x="417" y="266" on="1"/>
        <pt x="417" y="300" on="1"/>
        <pt x="555" y="300" on="1"/>
        <pt x="583" y="300" on="0"/>
        <pt x="603" y="272" on="0"/>
        <pt x="603" y="240" on="1"/>
        <pt x="603" y="44" on="1"/>
        <pt x="521" y="-8" on="0"/>
        <pt x="419" y="-8" on="1"/>
        <pt x="271" y="-8" on="0"/>
        <pt x="62" y="201" on="0"/>
        <pt x="62" y="498" on="0"/>
        <pt x="271" y="708" on="0"/>
        <pt x="419" y="708" on="1"/>
        <pt x="525" y="708" on="0"/>
      </contour>
    </TTGlyph>
    <TTGlyph name="Gdotaccent" xMin="62" yMin="-8" xMax="614" yMax="890">
      <contour>
        <pt x="614" y="651" on="1"/>
        <pt x="587" y="623" on="1"/>
        <pt x="509" y="671" on="0"/>
        <pt x="419" y="671" on="1"/>
        <pt x="287" y="671" on="0"/>
        <pt x="99" y="481" on="0"/>
        <pt x="99" y="217" on="0"/>
        <pt x="287" y="29" on="0"/>
        <pt x="419" y="29" on="1"/>
        <pt x="497" y="29" on="0"/>
        <pt x="567" y="65" on="1"/>
        <pt x="567" y="236" on="1"/>
        <pt x="567" y="254" on="0"/>
        <pt x="559" y="266" on="0"/>
        <pt x="544" y="266" on="1"/>
        <pt x="417" y="266" on="1"/>
        <pt x="417" y="300" on="1"/>
        <pt x="555" y="300" on="1"/>
        <pt x="583" y="300" on="0"/>
        <pt x="603" y="272" on="0"/>
        <pt x="603" y="240" on="1"/>
        <pt x="603" y="44" on="1"/>
        <pt x="521" y="-8" on="0"/>
        <pt x="419" y="-8" on="1"/>
        <pt x="271" y="-8" on="0"/>
        <pt x="62" y="201" on="0"/>
        <pt x="62" y="498" on="0"/>
        <pt x="271" y="708" on="0"/>
        <pt x="419" y="708" on="1"/>
        <pt x="525" y="708" on="0"/>
      </contour>
      <contour>
        <pt x="452" y="844" on="0"/>
        <pt x="433" y="826" on="0"/>
        <pt x="408" y="826" on="0"/>
        <pt x="389" y="844" on="0"/>
        <pt x="389" y="871" on="0"/>
        <pt x="409" y="890" on="0"/>
        <pt x="433" y="890" on="0"/>
        <pt x="452" y="871" on="0"/>
      </contour>
    </TTGlyph>
    <TTGlyph name="H" xMin="100" yMin="0" xMax="600" yMax="700">
      <contour>
        <pt x="100" y="0" on="1"/>
        <pt x="100" y="700" on="1"/>
        <pt x="137" y="700" on="1"/>
        <pt x="137" y="369" on="1"/>
        <pt x="563" y="369" on="1"/>
        <pt x="563" y="700" on="1"/>
        <pt x="600" y="700" on="1"/>
        <pt x="600" y="0" on="1"/>
        <pt x="563" y="0" on="1"/>
        <pt x="563" y="336" on="1"/>
        <pt x="137" y="336" on="1"/>
        <pt x="137" y="0" on="1"/>
      </contour>
    </TTGlyph>
    <TTGlyph name="Hbar" xMin="20" yMin="0" xMax="686" yMax="700">
      <contour>
        <pt x="20" y="500" on="1"/>
        <pt x="20" y="533" on="1"/>
        <pt x="100" y="533" on="1"/>
        <pt x="100" y="700" on="1"/>
        <pt x="137" y="700" on="1"/>
        <pt x="137" y="533" on="1"/>
        <pt x="563" y="533" on="1"/>
        <pt x="563" y="700" on="1"/>
        <pt x="600" y="700" on="1"/>
        <pt x="600" y="533" on="1"/>
        <pt x="686" y="533" on="1"/>
        <pt x="686" y="500" on="1"/>
        <pt x="600" y="500" on="1"/>
        <pt x="600" y="0" on="1"/>
        <pt x="563" y="0" on="1"/>
        <pt x="563" y="336" on="1"/>
        <pt x="137" y="336" on="1"/>
        <pt x="137" y="0" on="1"/>
        <pt x="100" y="0" on="1"/>
        <pt x="100" y="500" on="1"/>
      </contour>
      <contour>
        <pt x="137" y="369" on="1"/>
        <pt x="563" y="369" on="1"/>
        <pt x="563" y="500" on="1"/>
        <pt x="137" y="500" on="1"/>
      </contour>
    </TTGlyph>
    <TTGlyph name="Hcircumflex" xMin="100" yMin="0" xMax="600" yMax="985">
      <contour>
        <pt x="100" y="0" on="1"/>
        <pt x="100" y="700" on="1"/>
        <pt x="137" y="700" on="1"/>
        <pt x="137" y="369" on="1"/>
        <pt x="563" y="369" on="1"/>
        <pt x="563" y="700" on="1"/>
        <pt x="600" y="700" on="1"/>
        <pt x="600" y="0" on="1"/>
        <pt x="563" y="0" on="1"/>
        <pt x="563" y="336" on="1"/>
        <pt x="137" y="336" on="1"/>
        <pt x="137" y="0" on="1"/>
      </contour>
      <contour>
        <pt x="350" y="985" on="1"/>
        <pt x="470" y="804" on="1"/>
        <pt x="437" y="804" on="1"/>
        <pt x="350" y="926" on="1"/>
        <pt x="263" y="804" on="1"/>
        <pt x="230" y="804" on="1"/>
      </contour>
    </TTGlyph>
    <TTGlyph name="I" xMin="99" yMin="0" xMax="136" yMax="700">
      <contour>
        <pt x="99" y="700" on="1"/>
        <pt x="136" y="700" on="1"/>
        <pt x="136" y="0" on="1"/>
        <pt x="99" y="0" on="1"/>
      </contour>
    </TTGlyph>
    <TTGlyph name="IJ" xMin="99" yMin="-99" xMax="448" yMax="700">
      <contour>
        <pt x="99" y="700" on="1"/>
        <pt x="136" y="700" on="1"/>
        <pt x="136" y="0" on="1"/>
        <pt x="99" y="0" on="1"/>
      </contour>
      <contour>
        <pt x="411" y="91" on="1"/>
        <pt x="411" y="700" on="1"/>
        <pt x="448" y="700" on="1"/>
        <pt x="448" y="91" on="1"/>
        <pt x="447" y="11" on="0"/>
        <pt x="335" y="-99" on="0"/>
        <pt x="254" y="-99" on="1"/>
        <pt x="254" y="-67" on="1"/>
        <pt x="322" y="-67" on="0"/>
        <pt x="409" y="23" on="0"/>
      </contour>
    </TTGlyph>
    <TTGlyph name="Iacute" xMin="99" yMin="0" xMax="227" yMax="933">
      <contour>
        <pt x="100" y="800" on="1"/>
        <pt x="190" y="933" on="1"/>
        <pt x="227" y="933" on="1"/>
        <pt x="133" y="800" on="1"/>
      </contour>
      <contour>
        <pt x="99" y="700" on="1"/>
        <pt x="136" y="700" on="1"/>
        <pt x="136" y="0" on="1"/>
        <pt x="99" y="0" on="1"/>
      </contour>
    </TTGlyph>
    <TTGlyph name="Ibreve" xMin="-44" yMin="0" xMax="280" yMax="982">
      <contour>
        <pt x="99" y="700" on="1"/>
        <pt x="136" y="700" on="1"/>
        <pt x="136" y="0" on="1"/>
        <pt x="99" y="0" on="1"/>
      </contour>
      <contour>
        <pt x="185" y="825" on="0"/>
        <pt x="53" y="825" on="0"/>
        <pt x="-43" y="916" on="0"/>
        <pt x="-44" y="982" on="1"/>
        <pt x="-11" y="982" on="1"/>
        <pt x="-10" y="926" on="0"/>
        <pt x="63" y="857" on="0"/>
        <pt x="176" y="857" on="0"/>
        <pt x="247" y="925" on="0"/>
        <pt x="248" y="982" on="1"/>
        <pt x="280" y="982" on="1"/>
        <pt x="280" y="916" on="0"/>
      </contour>
    </TTGlyph>
    <TTGlyph name="Icircumflex" xMin="-3" yMin="0" xMax="237" yMax="981">
      <contour>
        <pt x="99" y="700" on="1"/>
        <pt x="136" y="700" on="1"/>
        <pt x="136" y="0" on="1"/>
        <pt x="99" y="0" on="1"/>
      </contour>
      <contour>
        <pt x="117" y="981" on="1"/>
        <pt x="237" y="800" on="1"/>
        <pt x="204" y="800" on="1"/>
        <pt x="117" y="922" on="1"/>
        <pt x="30" y="800" on="1"/>
        <pt x="-3" y="800" on="1"/>
      </contour>
    </TTGlyph>
    <TTGlyph name="Idieresis" xMin="-30" yMin="0" xMax="266" yMax="864">
      <contour>
        <pt x="33" y="818" on="0"/>
        <pt x="14" y="800" on="0"/>
        <pt x="-11" y="800" on="0"/>
        <pt x="-30" y="818" on="0"/>
        <pt x="-30" y="845" on="0"/>
        <pt x="-10" y="864" on="0"/>
        <pt x="14" y="864" on="0"/>
        <pt x="33" y="845" on="0"/>
      </contour>
      <contour>
        <pt x="266" y="818" on="0"/>
        <pt x="247" y="800" on="0"/>
        <pt x="222" y="800" on="0"/>
        <pt x="203" y="818" on="0"/>
        <pt x="203" y="845" on="0"/>
        <pt x="223" y="864" on="0"/>
        <pt x="247" y="864" on="0"/>
        <pt x="266" y="845" on="0"/>
      </contour>
      <contour>
        <pt x="99" y="700" on="1"/>
        <pt x="136" y="700" on="1"/>
        <pt x="136" y="0" on="1"/>
        <pt x="99" y="0" on="1"/>
      </contour>
    </TTGlyph>
    <TTGlyph name="Idotaccent" xMin="86" yMin="0" xMax="149" yMax="890">
      <contour>
        <pt x="99" y="700" on="1"/>
        <pt x="136" y="700" on="1"/>
        <pt x="136" y="0" on="1"/>
        <pt x="99" y="0" on="1"/>
      </contour>
      <contour>
        <pt x="149" y="844" on="0"/>
        <pt x="130" y="826" on="0"/>
        <pt x="105" y="826" on="0"/>
        <pt x="86" y="844" on="0"/>
        <pt x="86" y="871" on="0"/>
        <pt x="106" y="890" on="0"/>
        <pt x="130" y="890" on="0"/>
        <pt x="149" y="871" on="0"/>
      </contour>
    </TTGlyph>
    <TTGlyph name="Igrave" xMin="6" yMin="0" xMax="136" yMax="933">
      <contour>
        <pt x="43" y="933" on="1"/>
        <pt x="133" y="800" on="1"/>
        <pt x="100" y="800" on="1"/>
        <pt x="6" y="933" on="1"/>
      </contour>
      <contour>
        <pt x="99" y="700" on="1"/>
        <pt x="136" y="700" on="1"/>
        <pt x="136" y="0" on="1"/>
        <pt x="99" y="0" on="1"/>
      </contour>
    </TTGlyph>
    <TTGlyph name="Iogonek" xMin="13" yMin="-241" xMax="136" yMax="700">
      <contour>
        <pt x="99" y="700" on="1"/>
        <pt x="136" y="700" on="1"/>
        <pt x="136" y="0" on="1"/>
        <pt x="136" y="-30" on="0"/>
        <pt x="100" y="-58" on="1"/>
        <pt x="84" y="-70" on="1"/>
        <pt x="72" y="-79" on="0"/>
        <pt x="69" y="-81" on="1"/>
        <pt x="44" y="-105" on="0"/>
        <pt x="44" y="-168" on="0"/>
        <pt x="83" y="-209" on="0"/>
        <pt x="114" y="-209" on="1"/>
        <pt x="114" y="-241" on="1"/>
        <pt x="66" y="-241" on="0"/>
        <pt x="13" y="-180" on="0"/>
        <pt x="13" y="-86" on="0"/>
        <pt x="49" y="-59" on="1"/>
        <pt x="52" y="-57" on="0"/>
        <pt x="74" y="-44" on="0"/>
        <pt x="80" y="-39" on="1"/>
        <pt x="99" y="-25" on="0"/>
        <pt x="99" y="0" on="1"/>
      </contour>
    </TTGlyph>
    <TTGlyph name="Itilde" xMin="-3" yMin="0" xMax="240" yMax="868">
      <contour>
        <pt x="99" y="700" on="1"/>
        <pt x="136" y="700" on="1"/>
        <pt x="136" y="0" on="1"/>
        <pt x="99" y="0" on="1"/>
      </contour>
      <contour>
        <pt x="238" y="819" on="0"/>
        <pt x="198" y="783" on="0"/>
        <pt x="141" y="783" on="0"/>
        <pt x="83" y="840" on="0"/>
        <pt x="68" y="840" on="1"/>
        <pt x="30" y="840" on="0"/>
        <pt x="25" y="793" on="1"/>
        <pt x="-3" y="796" on="1"/>
        <pt x="-1" y="832" on="0"/>
        <pt x="39" y="868" on="0"/>
        <pt x="93" y="868" on="0"/>
        <pt x="154" y="811" on="0"/>
        <pt x="169" y="811" on="1"/>
        <pt x="207" y="811" on="0"/>
        <pt x="212" y="858" on="1"/>
        <pt x="240" y="855" on="1"/>
      </contour>
    </TTGlyph>
    <TTGlyph name="J" xMin="18" yMin="-99" xMax="212" yMax="700">
      <contour>
        <pt x="175" y="91" on="1"/>
        <pt x="175" y="700" on="1"/>
        <pt x="212" y="700" on="1"/>
        <pt x="212" y="91" on="1"/>
        <pt x="211" y="11" on="0"/>
        <pt x="99" y="-99" on="0"/>
        <pt x="18" y="-99" on="1"/>
        <pt x="18" y="-67" on="1"/>
        <pt x="86" y="-67" on="0"/>
        <pt x="173" y="23" on="0"/>
      </contour>
    </TTGlyph>
    <TTGlyph name="Jcircumflex" xMin="18" yMin="-99" xMax="314" yMax="985">
      <contour>
        <pt x="175" y="91" on="1"/>
        <pt x="175" y="700" on="1"/>
        <pt x="212" y="700" on="1"/>
        <pt x="212" y="91" on="1"/>
        <pt x="211" y="11" on="0"/>
        <pt x="99" y="-99" on="0"/>
        <pt x="18" y="-99" on="1"/>
        <pt x="18" y="-67" on="1"/>
        <pt x="86" y="-67" on="0"/>
        <pt x="173" y="23" on="0"/>
      </contour>
      <contour>
        <pt x="194" y="985" on="1"/>
        <pt x="314" y="804" on="1"/>
        <pt x="281" y="804" on="1"/>
        <pt x="194" y="926" on="1"/>
        <pt x="107" y="804" on="1"/>
        <pt x="74" y="804" on="1"/>
      </contour>
    </TTGlyph>
    <TTGlyph name="K" xMin="73" yMin="0" xMax="547" yMax="700">
      <contour>
        <pt x="547" y="0" on="1"/>
        <pt x="504" y="0" on="1"/>
        <pt x="192" y="395" on="1"/>
        <pt x="110" y="317" on="1"/>
        <pt x="110" y="0" on="1"/>
        <pt x="73" y="0" on="1"/>
        <pt x="73" y="700" on="1"/>
        <pt x="110" y="700" on="1"/>
        <pt x="110" y="382" on="1"/>
        <pt x="107" y="350" on="1"/>
        <pt x="126" y="373" on="1"/>
        <pt x="469" y="700" on="1"/>
        <pt x="512" y="700" on="1"/>
        <pt x="216" y="418" on="1"/>
      </contour>
    </TTGlyph>
    <TTGlyph name="Kcommaaccent" xMin="73" yMin="-250" xMax="547" yMax="700">
      <contour>
        <pt x="300" y="-44" on="1"/>
        <pt x="214" y="-250" on="1"/>
        <pt x="183" y="-250" on="1"/>
        <pt x="260" y="-44" on="1"/>
      </contour>
      <contour>
        <pt x="547" y="0" on="1"/>
        <pt x="504" y="0" on="1"/>
        <pt x="192" y="395" on="1"/>
        <pt x="110" y="317" on="1"/>
        <pt x="110" y="0" on="1"/>
        <pt x="73" y="0" on="1"/>
        <pt x="73" y="700" on="1"/>
        <pt x="110" y="700" on="1"/>
        <pt x="110" y="382" on="1"/>
        <pt x="107" y="350" on="1"/>
        <pt x="126" y="373" on="1"/>
        <pt x="469" y="700" on="1"/>
        <pt x="512" y="700" on="1"/>
        <pt x="216" y="418" on="1"/>
      </contour>
    </TTGlyph>
    <TTGlyph name="L" xMin="91" yMin="0" xMax="514" yMax="700">
      <contour>
        <pt x="91" y="0" on="1"/>
        <pt x="91" y="700" on="1"/>
        <pt x="128" y="700" on="1"/>
        <pt x="128" y="33" on="1"/>
        <pt x="514" y="33" on="1"/>
        <pt x="514" y="0" on="1"/>
      </contour>
    </TTGlyph>
    <TTGlyph name="Lacute" xMin="91" yMin="0" xMax="514" yMax="937">
      <contour>
        <pt x="91" y="0" on="1"/>
        <pt x="91" y="700" on="1"/>
        <pt x="128" y="700" on="1"/>
        <pt x="128" y="33" on="1"/>
        <pt x="514" y="33" on="1"/>
        <pt x="514" y="0" on="1"/>
      </contour>
      <contour>
        <pt x="97" y="804" on="1"/>
        <pt x="187" y="937" on="1"/>
        <pt x="224" y="937" on="1"/>
        <pt x="130" y="804" on="1"/>
      </contour>
    </TTGlyph>
    <TTGlyph name="Lcaron" xMin="91" yMin="0" xMax="514" yMax="700">
      <contour>
        <pt x="91" y="0" on="1"/>
        <pt x="91" y="700" on="1"/>
        <pt x="128" y="700" on="1"/>
        <pt x="128" y="33" on="1"/>
        <pt x="514" y="33" on="1"/>
        <pt x="514" y="0" on="1"/>
      </contour>
      <contour>
        <pt x="279" y="555" on="1"/>
        <pt x="258" y="579" on="1"/>
        <pt x="305" y="624" on="0"/>
        <pt x="291" y="693" on="1"/>
        <pt x="323" y="700" on="1"/>
        <pt x="340" y="616" on="0"/>
      </contour>
    </TTGlyph>
    <TTGlyph name="Lcommaaccent" xMin="91" yMin="-250" xMax="514" yMax="700">
      <contour>
        <pt x="340" y="-44" on="1"/>
        <pt x="254" y="-250" on="1"/>
        <pt x="223" y="-250" on="1"/>
        <pt x="300" y="-44" on="1"/>
      </contour>
      <contour>
        <pt x="91" y="0" on="1"/>
        <pt x="91" y="700" on="1"/>
        <pt x="128" y="700" on="1"/>
        <pt x="128" y="33" on="1"/>
        <pt x="514" y="33" on="1"/>
        <pt x="514" y="0" on="1"/>
      </contour>
    </TTGlyph>
    <TTGlyph name="Ldot" xMin="91" yMin="0" xMax="514" yMax="700">
      <contour>
        <pt x="91" y="0" on="1"/>
        <pt x="91" y="700" on="1"/>
        <pt x="128" y="700" on="1"/>
        <pt x="128" y="33" on="1"/>
        <pt x="514" y="33" on="1"/>
        <pt x="514" y="0" on="1"/>
      </contour>
      <contour>
        <pt x="332" y="392" on="0"/>
        <pt x="313" y="374" on="0"/>
        <pt x="288" y="374" on="0"/>
        <pt x="269" y="392" on="0"/>
        <pt x="269" y="419" on="0"/>
        <pt x="289" y="438" on="0"/>
        <pt x="313" y="438" on="0"/>
        <pt x="332" y="419" on="0"/>
      </contour>
    </TTGlyph>
    <TTGlyph name="Lslash" xMin="17" yMin="0" xMax="514" yMax="700">
      <contour>
        <pt x="91" y="0" on="1"/>
        <pt x="91" y="223" on="1"/>
        <pt x="17" y="187" on="1"/>
        <pt x="17" y="224" on="1"/>
        <pt x="91" y="260" on="1"/>
        <pt x="91" y="700" on="1"/>
        <pt x="128" y="700" on="1"/>
        <pt x="128" y="278" on="1"/>
        <pt x="315" y="369" on="1"/>
        <pt x="315" y="333" on="1"/>
        <pt x="128" y="241" on="1"/>
        <pt x="128" y="33" on="1"/>
        <pt x="514" y="33" on="1"/>
        <pt x="514" y="0" on="1"/>
      </contour>
    </TTGlyph>
    <TTGlyph name="M" xMin="100" yMin="0" xMax="832" yMax="732">
      <contour>
        <pt x="832" y="732" on="1"/>
        <pt x="832" y="0" on="1"/>
        <pt x="795" y="0" on="1"/>
        <pt x="795" y="601" on="1"/>
        <pt x="798" y="633" on="1"/>
        <pt x="780" y="606" on="1"/>
        <pt x="466" y="196" on="1"/>
        <pt x="152" y="606" on="1"/>
        <pt x="134" y="633" on="1"/>
        <pt x="137" y="601" on="1"/>
        <pt x="137" y="0" on="1"/>
        <pt x="100" y="0" on="1"/>
        <pt x="100" y="732" on="1"/>
        <pt x="466" y="257" on="1"/>
      </contour>
    </TTGlyph>
    <TTGlyph name="N" xMin="100" yMin="-32" xMax="711" yMax="732">
      <contour>
        <pt x="711" y="700" on="1"/>
        <pt x="711" y="-32" on="1"/>
        <pt x="153" y="615" on="1"/>
        <pt x="134" y="641" on="1"/>
        <pt x="137" y="609" on="1"/>
        <pt x="137" y="0" on="1"/>
        <pt x="100" y="0" on="1"/>
        <pt x="100" y="732" on="1"/>
        <pt x="658" y="85" on="1"/>
        <pt x="677" y="59" on="1"/>
        <pt x="674" y="91" on="1"/>
        <pt x="674" y="700" on="1"/>
      </contour>
    </TTGlyph>
    <TTGlyph name="Nacute" xMin="100" yMin="-32" xMax="711" yMax="937">
      <contour>
        <pt x="711" y="700" on="1"/>
        <pt x="711" y="-32" on="1"/>
        <pt x="153" y="615" on="1"/>
        <pt x="134" y="641" on="1"/>
        <pt x="137" y="609" on="1"/>
        <pt x="137" y="0" on="1"/>
        <pt x="100" y="0" on="1"/>
        <pt x="100" y="732" on="1"/>
        <pt x="658" y="85" on="1"/>
        <pt x="677" y="59" on="1"/>
        <pt x="674" y="91" on="1"/>
        <pt x="674" y="700" on="1"/>
      </contour>
      <contour>
        <pt x="400" y="804" on="1"/>
        <pt x="490" y="937" on="1"/>
        <pt x="527" y="937" on="1"/>
        <pt x="433" y="804" on="1"/>
      </contour>
    </TTGlyph>
    <TTGlyph name="Ncaron" xMin="100" yMin="-32" xMax="711" yMax="1006">
      <contour>
        <pt x="711" y="700" on="1"/>
        <pt x="711" y="-32" on="1"/>
        <pt x="153" y="615" on="1"/>
        <pt x="134" y="641" on="1"/>
        <pt x="137" y="609" on="1"/>
        <pt x="137" y="0" on="1"/>
        <pt x="100" y="0" on="1"/>
        <pt x="100" y="732" on="1"/>
        <pt x="658" y="85" on="1"/>
        <pt x="677" y="59" on="1"/>
        <pt x="674" y="91" on="1"/>
        <pt x="674" y="700" on="1"/>
      </contour>
      <contour>
        <pt x="533" y="1006" on="1"/>
        <pt x="413" y="825" on="1"/>
        <pt x="293" y="1006" on="1"/>
        <pt x="326" y="1006" on="1"/>
        <pt x="413" y="884" on="1"/>
        <pt x="500" y="1006" on="1"/>
      </contour>
    </TTGlyph>
    <TTGlyph name="Ncommaaccent" xMin="100" yMin="-250" xMax="711" yMax="732">
      <contour>
        <pt x="421" y="-44" on="1"/>
        <pt x="335" y="-250" on="1"/>
        <pt x="304" y="-250" on="1"/>
        <pt x="381" y="-44" on="1"/>
      </contour>
      <contour>
        <pt x="711" y="700" on="1"/>
        <pt x="711" y="-32" on="1"/>
        <pt x="153" y="615" on="1"/>
        <pt x="134" y="641" on="1"/>
        <pt x="137" y="609" on="1"/>
        <pt x="137" y="0" on="1"/>
        <pt x="100" y="0" on="1"/>
        <pt x="100" y="732" on="1"/>
        <pt x="658" y="85" on="1"/>
        <pt x="677" y="59" on="1"/>
        <pt x="674" y="91" on="1"/>
        <pt x="674" y="700" on="1"/>
      </contour>
    </TTGlyph>
    <TTGlyph name="Ntilde" xMin="100" yMin="-32" xMax="711" yMax="874">
      <contour>
        <pt x="557" y="824" on="0"/>
        <pt x="505" y="788" on="0"/>
        <pt x="435" y="788" on="0"/>
        <pt x="373" y="846" on="0"/>
        <pt x="349" y="846" on="1"/>
        <pt x="293" y="846" on="0"/>
        <pt x="287" y="800" on="1"/>
        <pt x="259" y="803" on="1"/>
        <pt x="261" y="838" on="0"/>
        <pt x="313" y="874" on="0"/>
        <pt x="383" y="874" on="0"/>
        <pt x="445" y="816" on="0"/>
        <pt x="469" y="816" on="1"/>
        <pt x="525" y="816" on="0"/>
        <pt x="531" y="862" on="1"/>
        <pt x="559" y="859" on="1"/>
      </contour>
      <contour>
        <pt x="711" y="700" on="1"/>
        <pt x="711" y="-32" on="1"/>
        <pt x="153" y="615" on="1"/>
        <pt x="134" y="641" on="1"/>
        <pt x="137" y="609" on="1"/>
        <pt x="137" y="0" on="1"/>
        <pt x="100" y="0" on="1"/>
        <pt x="100" y="732" on="1"/>
        <pt x="658" y="85" on="1"/>
        <pt x="677" y="59" on="1"/>
        <pt x="674" y="91" on="1"/>
        <pt x="674" y="700" on="1"/>
      </contour>
    </TTGlyph>
    <TTGlyph name="O" xMin="62" yMin="-8" xMax="778" yMax="708">
      <contour>
        <pt x="271" y="-8" on="0"/>
        <pt x="62" y="201" on="0"/>
        <pt x="62" y="498" on="0"/>
        <pt x="271" y="708" on="0"/>
        <pt x="568" y="708" on="0"/>
        <pt x="778" y="498" on="0"/>
        <pt x="778" y="201" on="0"/>
        <pt x="568" y="-8" on="0"/>
      </contour>
      <contour>
        <pt x="99" y="481" on="0"/>
        <pt x="99" y="217" on="0"/>
        <pt x="287" y="29" on="0"/>
        <pt x="551" y="29" on="0"/>
        <pt x="741" y="217" on="0"/>
        <pt x="741" y="481" on="0"/>
        <pt x="551" y="671" on="0"/>
        <pt x="287" y="671" on="0"/>
      </contour>
    </TTGlyph>
    <TTGlyph name="OE" xMin="62" yMin="-8" xMax="1022" yMax="708">
      <contour>
        <pt x="599" y="0" on="1"/>
        <pt x="599" y="40" on="1"/>
        <pt x="514" y="-8" on="0"/>
        <pt x="419" y="-8" on="1"/>
        <pt x="271" y="-8" on="0"/>
        <pt x="62" y="201" on="0"/>
        <pt x="62" y="498" on="0"/>
        <pt x="271" y="708" on="0"/>
        <pt x="419" y="708" on="1"/>
        <pt x="517" y="708" on="0"/>
        <pt x="599" y="660" on="1"/>
        <pt x="599" y="700" on="1"/>
        <pt x="1008" y="700" on="1"/>
        <pt x="1008" y="667" on="1"/>
        <pt x="636" y="667" on="1"/>
        <pt x="636" y="369" on="1"/>
        <pt x="969" y="369" on="1"/>
        <pt x="969" y="336" on="1"/>
        <pt x="636" y="336" on="1"/>
        <pt x="636" y="33" on="1"/>
        <pt x="1022" y="33" on="1"/>
        <pt x="1022" y="0" on="1"/>
      </contour>
      <contour>
        <pt x="419" y="29" on="1"/>
        <pt x="517" y="29" on="0"/>
        <pt x="599" y="84" on="1"/>
        <pt x="599" y="614" on="1"/>
        <pt x="517" y="671" on="0"/>
        <pt x="419" y="671" on="1"/>
        <pt x="287" y="671" on="0"/>
        <pt x="99" y="481" on="0"/>
        <pt x="99" y="217" on="0"/>
        <pt x="287" y="29" on="0"/>
      </contour>
    </TTGlyph>
    <TTGlyph name="Oacute" xMin="62" yMin="-8" xMax="778" yMax="933">
      <contour>
        <pt x="400" y="800" on="1"/>
        <pt x="490" y="933" on="1"/>
        <pt x="527" y="933" on="1"/>
        <pt x="433" y="800" on="1"/>
      </contour>
      <contour>
        <pt x="271" y="-8" on="0"/>
        <pt x="62" y="201" on="0"/>
        <pt x="62" y="498" on="0"/>
        <pt x="271" y="708" on="0"/>
        <pt x="568" y="708" on="0"/>
        <pt x="778" y="498" on="0"/>
        <pt x="778" y="201" on="0"/>
        <pt x="568" y="-8" on="0"/>
      </contour>
      <contour>
        <pt x="99" y="481" on="0"/>
        <pt x="99" y="217" on="0"/>
        <pt x="287" y="29" on="0"/>
        <pt x="551" y="29" on="0"/>
        <pt x="741" y="217" on="0"/>
        <pt x="741" y="481" on="0"/>
        <pt x="551" y="671" on="0"/>
        <pt x="287" y="671" on="0"/>
      </contour>
    </TTGlyph>
    <TTGlyph name="Obreve" xMin="62" yMin="-8" xMax="778" yMax="982">
      <contour>
        <pt x="271" y="-8" on="0"/>
        <pt x="62" y="201" on="0"/>
        <pt x="62" y="498" on="0"/>
        <pt x="271" y="708" on="0"/>
        <pt x="568" y="708" on="0"/>
        <pt x="778" y="498" on="0"/>
        <pt x="778" y="201" on="0"/>
        <pt x="568" y="-8" on="0"/>
      </contour>
      <contour>
        <pt x="99" y="481" on="0"/>
        <pt x="99" y="217" on="0"/>
        <pt x="287" y="29" on="0"/>
        <pt x="551" y="29" on="0"/>
        <pt x="741" y="217" on="0"/>
        <pt x="741" y="481" on="0"/>
        <pt x="551" y="671" on="0"/>
        <pt x="287" y="671" on="0"/>
      </contour>
      <contour>
        <pt x="489" y="825" on="0"/>
        <pt x="357" y="825" on="0"/>
        <pt x="261" y="916" on="0"/>
        <pt x="260" y="982" on="1"/>
        <pt x="293" y="982" on="1"/>
        <pt x="294" y="926" on="0"/>
        <pt x="367" y="857" on="0"/>
        <pt x="480" y="857" on="0"/>
        <pt x="551" y="925" on="0"/>
        <pt x="552" y="982" on="1"/>
        <pt x="584" y="982" on="1"/>
        <pt x="584" y="916" on="0"/>
      </contour>
    </TTGlyph>
    <TTGlyph name="Ocircumflex" xMin="62" yMin="-8" xMax="778" yMax="981">
      <contour>
        <pt x="271" y="-8" on="0"/>
        <pt x="62" y="201" on="0"/>
        <pt x="62" y="498" on="0"/>
        <pt x="271" y="708" on="0"/>
        <pt x="568" y="708" on="0"/>
        <pt x="778" y="498" on="0"/>
        <pt x="778" y="201" on="0"/>
        <pt x="568" y="-8" on="0"/>
      </contour>
      <contour>
        <pt x="99" y="481" on="0"/>
        <pt x="99" y="217" on="0"/>
        <pt x="287" y="29" on="0"/>
        <pt x="551" y="29" on="0"/>
        <pt x="741" y="217" on="0"/>
        <pt x="741" y="481" on="0"/>
        <pt x="551" y="671" on="0"/>
        <pt x="287" y="671" on="0"/>
      </contour>
      <contour>
        <pt x="415" y="981" on="1"/>
        <pt x="535" y="800" on="1"/>
        <pt x="502" y="800" on="1"/>
        <pt x="415" y="922" on="1"/>
        <pt x="328" y="800" on="1"/>
        <pt x="295" y="800" on="1"/>
      </contour>
    </TTGlyph>
    <TTGlyph name="Odieresis" xMin="62" yMin="-8" xMax="778" yMax="864">
      <contour>
        <pt x="338" y="818" on="0"/>
        <pt x="319" y="800" on="0"/>
        <pt x="294" y="800" on="0"/>
        <pt x="275" y="818" on="0"/>
        <pt x="275" y="845" on="0"/>
        <pt x="295" y="864" on="0"/>
        <pt x="319" y="864" on="0"/>
        <pt x="338" y="845" on="0"/>
      </contour>
      <contour>
        <pt x="571" y="818" on="0"/>
        <pt x="552" y="800" on="0"/>
        <pt x="527" y="800" on="0"/>
        <pt x="508" y="818" on="0"/>
        <pt x="508" y="845" on="0"/>
        <pt x="528" y="864" on="0"/>
        <pt x="552" y="864" on="0"/>
        <pt x="571" y="845" on="0"/>
      </contour>
      <contour>
        <pt x="271" y="-8" on="0"/>
        <pt x="62" y="201" on="0"/>
        <pt x="62" y="498" on="0"/>
        <pt x="271" y="708" on="0"/>
        <pt x="568" y="708" on="0"/>
        <pt x="778" y="498" on="0"/>
        <pt x="778" y="201" on="0"/>
        <pt x="568" y="-8" on="0"/>
      </contour>
      <contour>
        <pt x="99" y="481" on="0"/>
        <pt x="99" y="217" on="0"/>
        <pt x="287" y="29" on="0"/>
        <pt x="551" y="29" on="0"/>
        <pt x="741" y="217" on="0"/>
        <pt x="741" y="481" on="0"/>
        <pt x="551" y="671" on="0"/>
        <pt x="287" y="671" on="0"/>
      </contour>
    </TTGlyph>
    <TTGlyph name="Ograve" xMin="62" yMin="-8" xMax="778" yMax="933">
      <contour>
        <pt x="344" y="933" on="1"/>
        <pt x="434" y="800" on="1"/>
        <pt x="401" y="800" on="1"/>
        <pt x="307" y="933" on="1"/>
      </contour>
      <contour>
        <pt x="271" y="-8" on="0"/>
        <pt x="62" y="201" on="0"/>
        <pt x="62" y="498" on="0"/>
        <pt x="271" y="708" on="0"/>
        <pt x="568" y="708" on="0"/>
        <pt x="778" y="498" on="0"/>
        <pt x="778" y="201" on="0"/>
        <pt x="568" y="-8" on="0"/>
      </contour>
      <contour>
        <pt x="99" y="481" on="0"/>
        <pt x="99" y="217" on="0"/>
        <pt x="287" y="29" on="0"/>
        <pt x="551" y="29" on="0"/>
        <pt x="741" y="217" on="0"/>
        <pt x="741" y="481" on="0"/>
        <pt x="551" y="671" on="0"/>
        <pt x="287" y="671" on="0"/>
      </contour>
    </TTGlyph>
    <TTGlyph name="Ohungarumlaut" xMin="62" yMin="-8" xMax="778" yMax="937">
      <contour>
        <pt x="271" y="-8" on="0"/>
        <pt x="62" y="201" on="0"/>
        <pt x="62" y="498" on="0"/>
        <pt x="271" y="708" on="0"/>
        <pt x="568" y="708" on="0"/>
        <pt x="778" y="498" on="0"/>
        <pt x="778" y="201" on="0"/>
        <pt x="568" y="-8" on="0"/>
      </contour>
      <contour>
        <pt x="99" y="481" on="0"/>
        <pt x="99" y="217" on="0"/>
        <pt x="287" y="29" on="0"/>
        <pt x="551" y="29" on="0"/>
        <pt x="741" y="217" on="0"/>
        <pt x="741" y="481" on="0"/>
        <pt x="551" y="671" on="0"/>
        <pt x="287" y="671" on="0"/>
      </contour>
      <contour>
        <pt x="314" y="804" on="1"/>
        <pt x="404" y="937" on="1"/>
        <pt x="441" y="937" on="1"/>
        <pt x="347" y="804" on="1"/>
      </contour>
      <contour>
        <pt x="483" y="804" on="1"/>
        <pt x="573" y="937" on="1"/>
        <pt x="610" y="937" on="1"/>
        <pt x="516" y="804" on="1"/>
      </contour>
    </TTGlyph>
    <TTGlyph name="Omacron" xMin="62" yMin="-8" xMax="778" yMax="841">
      <contour>
        <pt x="271" y="-8" on="0"/>
        <pt x="62" y="201" on="0"/>
        <pt x="62" y="498" on="0"/>
        <pt x="271" y="708" on="0"/>
        <pt x="568" y="708" on="0"/>
        <pt x="778" y="498" on="0"/>
        <pt x="778" y="201" on="0"/>
        <pt x="568" y="-8" on="0"/>
      </contour>
      <contour>
        <pt x="99" y="481" on="0"/>
        <pt x="99" y="217" on="0"/>
        <pt x="287" y="29" on="0"/>
        <pt x="551" y="29" on="0"/>
        <pt x="741" y="217" on="0"/>
        <pt x="741" y="481" on="0"/>
        <pt x="551" y="671" on="0"/>
        <pt x="287" y="671" on="0"/>
      </contour>
      <contour>
        <pt x="305" y="808" on="1"/>
        <pt x="305" y="841" on="1"/>
        <pt x="535" y="841" on="1"/>
        <pt x="535" y="808" on="1"/>
      </contour>
    </TTGlyph>
    <TTGlyph name="Omega" xMin="53" yMin="250" xMax="116" yMax="314">
      <contour>
        <pt x="116" y="268" on="0"/>
        <pt x="97" y="250" on="0"/>
        <pt x="72" y="250" on="0"/>
        <pt x="53" y="268" on="0"/>
        <pt x="53" y="295" on="0"/>
        <pt x="73" y="314" on="0"/>
        <pt x="97" y="314" on="0"/>
        <pt x="116" y="295" on="0"/>
      </contour>
    </TTGlyph>
    <TTGlyph name="Oslash" xMin="62" yMin="-17" xMax="778" yMax="708">
      <contour>
        <pt x="176" y="87" on="1"/>
        <pt x="62" y="193" on="0"/>
        <pt x="62" y="498" on="0"/>
        <pt x="271" y="708" on="0"/>
        <pt x="419" y="708" on="1"/>
        <pt x="542" y="708" on="0"/>
        <pt x="639" y="632" on="1"/>
        <pt x="703" y="708" on="1"/>
        <pt x="728" y="688" on="1"/>
        <pt x="663" y="612" on="1"/>
        <pt x="778" y="505" on="0"/>
        <pt x="778" y="201" on="0"/>
        <pt x="568" y="-8" on="0"/>
        <pt x="419" y="-8" on="1"/>
        <pt x="295" y="-8" on="0"/>
        <pt x="201" y="66" on="1"/>
        <pt x="131" y="-17" on="1"/>
        <pt x="106" y="5" on="1"/>
      </contour>
      <contour>
        <pt x="287" y="671" on="0"/>
        <pt x="99" y="481" on="0"/>
        <pt x="99" y="210" on="0"/>
        <pt x="200" y="116" on="1"/>
        <pt x="614" y="604" on="1"/>
        <pt x="528" y="671" on="0"/>
        <pt x="419" y="671" on="1"/>
      </contour>
      <contour>
        <pt x="551" y="29" on="0"/>
        <pt x="741" y="217" on="0"/>
        <pt x="741" y="485" on="0"/>
        <pt x="639" y="582" on="1"/>
        <pt x="225" y="94" on="1"/>
        <pt x="311" y="29" on="0"/>
        <pt x="419" y="29" on="1"/>
      </contour>
    </TTGlyph>
    <TTGlyph name="Otilde" xMin="62" yMin="-8" xMax="778" yMax="874">
      <contour>
        <pt x="570" y="824" on="0"/>
        <pt x="518" y="788" on="0"/>
        <pt x="448" y="788" on="0"/>
        <pt x="386" y="846" on="0"/>
        <pt x="362" y="846" on="1"/>
        <pt x="306" y="846" on="0"/>
        <pt x="300" y="800" on="1"/>
        <pt x="272" y="803" on="1"/>
        <pt x="274" y="838" on="0"/>
        <pt x="326" y="874" on="0"/>
        <pt x="396" y="874" on="0"/>
        <pt x="458" y="816" on="0"/>
        <pt x="482" y="816" on="1"/>
        <pt x="538" y="816" on="0"/>
        <pt x="544" y="862" on="1"/>
        <pt x="572" y="859" on="1"/>
      </contour>
      <contour>
        <pt x="271" y="-8" on="0"/>
        <pt x="62" y="201" on="0"/>
        <pt x="62" y="498" on="0"/>
        <pt x="271" y="708" on="0"/>
        <pt x="568" y="708" on="0"/>
        <pt x="778" y="498" on="0"/>
        <pt x="778" y="201" on="0"/>
        <pt x="568" y="-8" on="0"/>
      </contour>
      <contour>
        <pt x="99" y="481" on="0"/>
        <pt x="99" y="217" on="0"/>
        <pt x="287" y="29" on="0"/>
        <pt x="551" y="29" on="0"/>
        <pt x="741" y="217" on="0"/>
        <pt x="741" y="481" on="0"/>
        <pt x="551" y="671" on="0"/>
        <pt x="287" y="671" on="0"/>
      </contour>
    </TTGlyph>
    <TTGlyph name="P" xMin="100" yMin="0" xMax="450" yMax="700">
      <contour>
        <pt x="100" y="0" on="1"/>
        <pt x="100" y="700" on="1"/>
        <pt x="244" y="700" on="1"/>
        <pt x="350" y="700" on="0"/>
        <pt x="414" y="623" on="1"/>
        <pt x="450" y="580" on="0"/>
        <pt x="450" y="520" on="1"/>
        <pt x="450" y="433" on="0"/>
        <pt x="342" y="332" on="0"/>
        <pt x="244" y="332" on="1"/>
        <pt x="137" y="332" on="1"/>
        <pt x="137" y="0" on="1"/>
      </contour>
      <contour>
        <pt x="137" y="365" on="1"/>
        <pt x="239" y="365" on="1"/>
        <pt x="370" y="365" on="0"/>
        <pt x="404" y="467" on="1"/>
        <pt x="413" y="492" on="0"/>
        <pt x="413" y="520" on="1"/>
        <pt x="413" y="579" on="0"/>
        <pt x="312" y="667" on="0"/>
        <pt x="240" y="667" on="1"/>
        <pt x="137" y="667" on="1"/>
      </contour>
    </TTGlyph>
    <TTGlyph name="Q" xMin="62" yMin="-8" xMax="800" yMax="708">
      <contour>
        <pt x="271" y="-8" on="0"/>
        <pt x="62" y="201" on="0"/>
        <pt x="62" y="498" on="0"/>
        <pt x="271" y="708" on="0"/>
        <pt x="568" y="708" on="0"/>
        <pt x="778" y="498" on="0"/>
        <pt x="778" y="349" on="1"/>
        <pt x="778" y="249" on="0"/>
        <pt x="676" y="82" on="0"/>
        <pt x="591" y="36" on="1"/>
        <pt x="800" y="36" on="1"/>
        <pt x="800" y="-1" on="1"/>
        <pt x="490" y="-1" on="1"/>
        <pt x="450" y="-8" on="0"/>
        <pt x="419" y="-8" on="1"/>
      </contour>
      <contour>
        <pt x="99" y="481" on="0"/>
        <pt x="99" y="217" on="0"/>
        <pt x="287" y="29" on="0"/>
        <pt x="551" y="29" on="0"/>
        <pt x="741" y="217" on="0"/>
        <pt x="741" y="481" on="0"/>
        <pt x="551" y="671" on="0"/>
        <pt x="287" y="671" on="0"/>
      </contour>
    </TTGlyph>
    <TTGlyph name="R" xMin="100" yMin="0" xMax="460" yMax="700">
      <contour>
        <pt x="460" y="0" on="1"/>
        <pt x="422" y="0" on="1"/>
        <pt x="267" y="332" on="1"/>
        <pt x="137" y="332" on="1"/>
        <pt x="137" y="0" on="1"/>
        <pt x="100" y="0" on="1"/>
        <pt x="100" y="700" on="1"/>
        <pt x="244" y="700" on="1"/>
        <pt x="350" y="700" on="0"/>
        <pt x="414" y="623" on="1"/>
        <pt x="450" y="580" on="0"/>
        <pt x="450" y="448" on="0"/>
        <pt x="374" y="352" on="0"/>
        <pt x="303" y="337" on="1"/>
      </contour>
      <contour>
        <pt x="137" y="365" on="1"/>
        <pt x="239" y="365" on="1"/>
        <pt x="370" y="365" on="0"/>
        <pt x="404" y="467" on="1"/>
        <pt x="413" y="492" on="0"/>
        <pt x="413" y="520" on="1"/>
        <pt x="413" y="579" on="0"/>
        <pt x="312" y="667" on="0"/>
        <pt x="240" y="667" on="1"/>
        <pt x="137" y="667" on="1"/>
      </contour>
    </TTGlyph>
    <TTGlyph name="Racute" xMin="100" yMin="0" xMax="460" yMax="937">
      <contour>
        <pt x="460" y="0" on="1"/>
        <pt x="422" y="0" on="1"/>
        <pt x="267" y="332" on="1"/>
        <pt x="137" y="332" on="1"/>
        <pt x="137" y="0" on="1"/>
        <pt x="100" y="0" on="1"/>
        <pt x="100" y="700" on="1"/>
        <pt x="244" y="700" on="1"/>
        <pt x="350" y="700" on="0"/>
        <pt x="414" y="623" on="1"/>
        <pt x="450" y="580" on="0"/>
        <pt x="450" y="448" on="0"/>
        <pt x="374" y="352" on="0"/>
        <pt x="303" y="337" on="1"/>
      </contour>
      <contour>
        <pt x="137" y="365" on="1"/>
        <pt x="239" y="365" on="1"/>
        <pt x="370" y="365" on="0"/>
        <pt x="404" y="467" on="1"/>
        <pt x="413" y="492" on="0"/>
        <pt x="413" y="520" on="1"/>
        <pt x="413" y="579" on="0"/>
        <pt x="312" y="667" on="0"/>
        <pt x="240" y="667" on="1"/>
        <pt x="137" y="667" on="1"/>
      </contour>
      <contour>
        <pt x="233" y="804" on="1"/>
        <pt x="323" y="937" on="1"/>
        <pt x="360" y="937" on="1"/>
        <pt x="266" y="804" on="1"/>
      </contour>
    </TTGlyph>
    <TTGlyph name="Rcaron" xMin="100" yMin="0" xMax="460" yMax="1006">
      <contour>
        <pt x="460" y="0" on="1"/>
        <pt x="422" y="0" on="1"/>
        <pt x="267" y="332" on="1"/>
        <pt x="137" y="332" on="1"/>
        <pt x="137" y="0" on="1"/>
        <pt x="100" y="0" on="1"/>
        <pt x="100" y="700" on="1"/>
        <pt x="244" y="700" on="1"/>
        <pt x="350" y="700" on="0"/>
        <pt x="414" y="623" on="1"/>
        <pt x="450" y="580" on="0"/>
        <pt x="450" y="448" on="0"/>
        <pt x="374" y="352" on="0"/>
        <pt x="303" y="337" on="1"/>
      </contour>
      <contour>
        <pt x="137" y="365" on="1"/>
        <pt x="239" y="365" on="1"/>
        <pt x="370" y="365" on="0"/>
        <pt x="404" y="467" on="1"/>
        <pt x="413" y="492" on="0"/>
        <pt x="413" y="520" on="1"/>
        <pt x="413" y="579" on="0"/>
        <pt x="312" y="667" on="0"/>
        <pt x="240" y="667" on="1"/>
        <pt x="137" y="667" on="1"/>
      </contour>
      <contour>
        <pt x="381" y="1006" on="1"/>
        <pt x="261" y="825" on="1"/>
        <pt x="141" y="1006" on="1"/>
        <pt x="174" y="1006" on="1"/>
        <pt x="261" y="884" on="1"/>
        <pt x="348" y="1006" on="1"/>
      </contour>
    </TTGlyph>
    <TTGlyph name="Rcommaaccent" xMin="100" yMin="-250" xMax="460" yMax="700">
      <contour>
        <pt x="301" y="-44" on="1"/>
        <pt x="215" y="-250" on="1"/>
        <pt x="184" y="-250" on="1"/>
        <pt x="261" y="-44" on="1"/>
      </contour>
      <contour>
        <pt x="460" y="0" on="1"/>
        <pt x="422" y="0" on="1"/>
        <pt x="267" y="332" on="1"/>
        <pt x="137" y="332" on="1"/>
        <pt x="137" y="0" on="1"/>
        <pt x="100" y="0" on="1"/>
        <pt x="100" y="700" on="1"/>
        <pt x="244" y="700" on="1"/>
        <pt x="350" y="700" on="0"/>
        <pt x="414" y="623" on="1"/>
        <pt x="450" y="580" on="0"/>
        <pt x="450" y="448" on="0"/>
        <pt x="374" y="352" on="0"/>
        <pt x="303" y="337" on="1"/>
      </contour>
      <contour>
        <pt x="137" y="365" on="1"/>
        <pt x="239" y="365" on="1"/>
        <pt x="370" y="365" on="0"/>
        <pt x="404" y="467" on="1"/>
        <pt x="413" y="492" on="0"/>
        <pt x="413" y="520" on="1"/>
        <pt x="413" y="579" on="0"/>
        <pt x="312" y="667" on="0"/>
        <pt x="240" y="667" on="1"/>
        <pt x="137" y="667" on="1"/>
      </contour>
    </TTGlyph>
    <TTGlyph name="S" xMin="74" yMin="-8" xMax="484" yMax="704">
      <contour>
        <pt x="425" y="644" on="1"/>
        <pt x="402" y="614" on="1"/>
        <pt x="345" y="668" on="0"/>
        <pt x="205" y="668" on="0"/>
        <pt x="134" y="586" on="0"/>
        <pt x="134" y="473" on="0"/>
        <pt x="196" y="412" on="0"/>
        <pt x="252" y="392" on="1"/>
        <pt x="286" y="381" on="1"/>
        <pt x="368" y="354" on="0"/>
        <pt x="414" y="324" on="0"/>
        <pt x="450" y="293" on="0"/>
        <pt x="460" y="276" on="1"/>
        <pt x="484" y="235" on="0"/>
        <pt x="484" y="186" on="1"/>
        <pt x="484" y="99" on="0"/>
        <pt x="362" y="-8" on="0"/>
        <pt x="273" y="-8" on="1"/>
        <pt x="162" y="-8" on="0"/>
        <pt x="74" y="83" on="1"/>
        <pt x="100" y="110" on="1"/>
        <pt x="178" y="28" on="0"/>
        <pt x="270" y="28" on="1"/>
        <pt x="341" y="28" on="0"/>
        <pt x="447" y="114" on="0"/>
        <pt x="447" y="183" on="1"/>
        <pt x="447" y="215" on="0"/>
        <pt x="418" y="269" on="0"/>
        <pt x="385" y="300" on="0"/>
        <pt x="352" y="316" on="1"/>
        <pt x="313" y="333" on="0"/>
        <pt x="252" y="352" on="1"/>
        <pt x="102" y="397" on="0"/>
        <pt x="96" y="517" on="1"/>
        <pt x="92" y="591" on="0"/>
        <pt x="182" y="704" on="0"/>
        <pt x="356" y="704" on="0"/>
      </contour>
    </TTGlyph>
    <TTGlyph name="Sacute" xMin="74" yMin="-8" xMax="484" yMax="937">
      <contour>
        <pt x="425" y="644" on="1"/>
        <pt x="402" y="614" on="1"/>
        <pt x="345" y="668" on="0"/>
        <pt x="205" y="668" on="0"/>
        <pt x="134" y="586" on="0"/>
        <pt x="134" y="473" on="0"/>
        <pt x="196" y="412" on="0"/>
        <pt x="252" y="392" on="1"/>
        <pt x="286" y="381" on="1"/>
        <pt x="368" y="354" on="0"/>
        <pt x="414" y="324" on="0"/>
        <pt x="450" y="293" on="0"/>
        <pt x="460" y="276" on="1"/>
        <pt x="484" y="235" on="0"/>
        <pt x="484" y="186" on="1"/>
        <pt x="484" y="99" on="0"/>
        <pt x="362" y="-8" on="0"/>
        <pt x="273" y="-8" on="1"/>
        <pt x="162" y="-8" on="0"/>
        <pt x="74" y="83" on="1"/>
        <pt x="100" y="110" on="1"/>
        <pt x="178" y="28" on="0"/>
        <pt x="270" y="28" on="1"/>
        <pt x="341" y="28" on="0"/>
        <pt x="447" y="114" on="0"/>
        <pt x="447" y="183" on="1"/>
        <pt x="447" y="215" on="0"/>
        <pt x="418" y="269" on="0"/>
        <pt x="385" y="300" on="0"/>
        <pt x="352" y="316" on="1"/>
        <pt x="313" y="333" on="0"/>
        <pt x="252" y="352" on="1"/>
        <pt x="102" y="397" on="0"/>
        <pt x="96" y="517" on="1"/>
        <pt x="92" y="591" on="0"/>
        <pt x="182" y="704" on="0"/>
        <pt x="356" y="704" on="0"/>
      </contour>
      <contour>
        <pt x="266" y="804" on="1"/>
        <pt x="356" y="937" on="1"/>
        <pt x="393" y="937" on="1"/>
        <pt x="299" y="804" on="1"/>
      </contour>
    </TTGlyph>
    <TTGlyph name="Scaron" xMin="74" yMin="-8" xMax="484" yMax="1006">
      <contour>
        <pt x="425" y="644" on="1"/>
        <pt x="402" y="614" on="1"/>
        <pt x="345" y="668" on="0"/>
        <pt x="205" y="668" on="0"/>
        <pt x="134" y="586" on="0"/>
        <pt x="134" y="473" on="0"/>
        <pt x="196" y="412" on="0"/>
        <pt x="252" y="392" on="1"/>
        <pt x="286" y="381" on="1"/>
        <pt x="368" y="354" on="0"/>
        <pt x="414" y="324" on="0"/>
        <pt x="450" y="293" on="0"/>
        <pt x="460" y="276" on="1"/>
        <pt x="484" y="235" on="0"/>
        <pt x="484" y="186" on="1"/>
        <pt x="484" y="99" on="0"/>
        <pt x="362" y="-8" on="0"/>
        <pt x="273" y="-8" on="1"/>
        <pt x="162" y="-8" on="0"/>
        <pt x="74" y="83" on="1"/>
        <pt x="100" y="110" on="1"/>
        <pt x="178" y="28" on="0"/>
        <pt x="270" y="28" on="1"/>
        <pt x="341" y="28" on="0"/>
        <pt x="447" y="114" on="0"/>
        <pt x="447" y="183" on="1"/>
        <pt x="447" y="215" on="0"/>
        <pt x="418" y="269" on="0"/>
        <pt x="385" y="300" on="0"/>
        <pt x="352" y="316" on="1"/>
        <pt x="313" y="333" on="0"/>
        <pt x="252" y="352" on="1"/>
        <pt x="102" y="397" on="0"/>
        <pt x="96" y="517" on="1"/>
        <pt x="92" y="591" on="0"/>
        <pt x="182" y="704" on="0"/>
        <pt x="356" y="704" on="0"/>
      </contour>
      <contour>
        <pt x="406" y="1006" on="1"/>
        <pt x="286" y="825" on="1"/>
        <pt x="166" y="1006" on="1"/>
        <pt x="199" y="1006" on="1"/>
        <pt x="286" y="884" on="1"/>
        <pt x="373" y="1006" on="1"/>
      </contour>
    </TTGlyph>
    <TTGlyph name="Scedilla" xMin="74" yMin="-241" xMax="484" yMax="704">
      <contour>
        <pt x="425" y="644" on="1"/>
        <pt x="402" y="614" on="1"/>
        <pt x="345" y="668" on="0"/>
        <pt x="205" y="668" on="0"/>
        <pt x="134" y="585" on="0"/>
        <pt x="134" y="479" on="0"/>
        <pt x="189" y="413" on="0"/>
        <pt x="252" y="392" on="1"/>
        <pt x="281" y="385" on="0"/>
        <pt x="300" y="377" on="1"/>
        <pt x="340" y="362" on="1"/>
        <pt x="363" y="353" on="0"/>
        <pt x="372" y="348" on="1"/>
        <pt x="372" y="348" on="0"/>
        <pt x="400" y="332" on="1"/>
        <pt x="419" y="321" on="0"/>
        <pt x="437" y="303" on="0"/>
        <pt x="463" y="274" on="0"/>
        <pt x="469" y="260" on="1"/>
        <pt x="484" y="225" on="0"/>
        <pt x="484" y="188" on="1"/>
        <pt x="484" y="108" on="0"/>
        <pt x="386" y="5" on="0"/>
        <pt x="307" y="-5" on="1"/>
        <pt x="307" y="-31" on="0"/>
        <pt x="321" y="-42" on="1"/>
        <pt x="326" y="-46" on="0"/>
        <pt x="336" y="-51" on="1"/>
        <pt x="384" y="-77" on="0"/>
        <pt x="384" y="-137" on="1"/>
        <pt x="384" y="-180" on="0"/>
        <pt x="331" y="-241" on="0"/>
        <pt x="290" y="-241" on="1"/>
        <pt x="208" y="-241" on="0"/>
        <pt x="183" y="-169" on="1"/>
        <pt x="217" y="-161" on="1"/>
        <pt x="223" y="-182" on="0"/>
        <pt x="259" y="-209" on="0"/>
        <pt x="314" y="-209" on="0"/>
        <pt x="353" y="-168" on="0"/>
        <pt x="353" y="-105" on="0"/>
        <pt x="328" y="-81" on="1"/>
        <pt x="322" y="-76" on="0"/>
        <pt x="293" y="-58" on="0"/>
        <pt x="288" y="-53" on="1"/>
        <pt x="270" y="-37" on="0"/>
        <pt x="270" y="-8" on="1"/>
        <pt x="161" y="-8" on="0"/>
        <pt x="74" y="83" on="1"/>
        <pt x="100" y="110" on="1"/>
        <pt x="132" y="75" on="0"/>
        <pt x="224" y="26" on="0"/>
        <pt x="270" y="28" on="1"/>
        <pt x="348" y="31" on="0"/>
        <pt x="447" y="116" on="0"/>
        <pt x="447" y="185" on="1"/>
        <pt x="447" y="216" on="0"/>
        <pt x="419" y="268" on="0"/>
        <pt x="384" y="300" on="0"/>
        <pt x="352" y="315" on="1"/>
        <pt x="315" y="333" on="0"/>
        <pt x="234" y="358" on="0"/>
        <pt x="207" y="367" on="0"/>
        <pt x="157" y="395" on="0"/>
        <pt x="124" y="428" on="0"/>
        <pt x="97" y="484" on="0"/>
        <pt x="96" y="517" on="1"/>
        <pt x="93" y="595" on="0"/>
        <pt x="182" y="704" on="0"/>
        <pt x="357" y="704" on="0"/>
      </contour>
    </TTGlyph>
    <TTGlyph name="Scircumflex" xMin="74" yMin="-8" xMax="484" yMax="985">
      <contour>
        <pt x="425" y="644" on="1"/>
        <pt x="402" y="614" on="1"/>
        <pt x="345" y="668" on="0"/>
        <pt x="205" y="668" on="0"/>
        <pt x="134" y="586" on="0"/>
        <pt x="134" y="473" on="0"/>
        <pt x="196" y="412" on="0"/>
        <pt x="252" y="392" on="1"/>
        <pt x="286" y="381" on="1"/>
        <pt x="368" y="354" on="0"/>
        <pt x="414" y="324" on="0"/>
        <pt x="450" y="293" on="0"/>
        <pt x="460" y="276" on="1"/>
        <pt x="484" y="235" on="0"/>
        <pt x="484" y="186" on="1"/>
        <pt x="484" y="99" on="0"/>
        <pt x="362" y="-8" on="0"/>
        <pt x="273" y="-8" on="1"/>
        <pt x="162" y="-8" on="0"/>
        <pt x="74" y="83" on="1"/>
        <pt x="100" y="110" on="1"/>
        <pt x="178" y="28" on="0"/>
        <pt x="270" y="28" on="1"/>
        <pt x="341" y="28" on="0"/>
        <pt x="447" y="114" on="0"/>
        <pt x="447" y="183" on="1"/>
        <pt x="447" y="215" on="0"/>
        <pt x="418" y="269" on="0"/>
        <pt x="385" y="300" on="0"/>
        <pt x="352" y="316" on="1"/>
        <pt x="313" y="333" on="0"/>
        <pt x="252" y="352" on="1"/>
        <pt x="102" y="397" on="0"/>
        <pt x="96" y="517" on="1"/>
        <pt x="92" y="591" on="0"/>
        <pt x="182" y="704" on="0"/>
        <pt x="356" y="704" on="0"/>
      </contour>
      <contour>
        <pt x="283" y="985" on="1"/>
        <pt x="403" y="804" on="1"/>
        <pt x="370" y="804" on="1"/>
        <pt x="283" y="926" on="1"/>
        <pt x="196" y="804" on="1"/>
        <pt x="163" y="804" on="1"/>
      </contour>
    </TTGlyph>
    <TTGlyph name="Scommaaccent" xMin="74" yMin="-250" xMax="484" yMax="704">
      <contour>
        <pt x="301" y="-44" on="1"/>
        <pt x="215" y="-250" on="1"/>
        <pt x="184" y="-250" on="1"/>
        <pt x="261" y="-44" on="1"/>
      </contour>
      <contour>
        <pt x="425" y="644" on="1"/>
        <pt x="402" y="614" on="1"/>
        <pt x="345" y="668" on="0"/>
        <pt x="205" y="668" on="0"/>
        <pt x="134" y="586" on="0"/>
        <pt x="134" y="473" on="0"/>
        <pt x="196" y="412" on="0"/>
        <pt x="252" y="392" on="1"/>
        <pt x="286" y="381" on="1"/>
        <pt x="368" y="354" on="0"/>
        <pt x="414" y="324" on="0"/>
        <pt x="450" y="293" on="0"/>
        <pt x="460" y="276" on="1"/>
        <pt x="484" y="235" on="0"/>
        <pt x="484" y="186" on="1"/>
        <pt x="484" y="99" on="0"/>
        <pt x="362" y="-8" on="0"/>
        <pt x="273" y="-8" on="1"/>
        <pt x="162" y="-8" on="0"/>
        <pt x="74" y="83" on="1"/>
        <pt x="100" y="110" on="1"/>
        <pt x="178" y="28" on="0"/>
        <pt x="270" y="28" on="1"/>
        <pt x="341" y="28" on="0"/>
        <pt x="447" y="114" on="0"/>
        <pt x="447" y="183" on="1"/>
        <pt x="447" y="215" on="0"/>
        <pt x="418" y="269" on="0"/>
        <pt x="385" y="300" on="0"/>
        <pt x="352" y="316" on="1"/>
        <pt x="313" y="333" on="0"/>
        <pt x="252" y="352" on="1"/>
        <pt x="102" y="397" on="0"/>
        <pt x="96" y="517" on="1"/>
        <pt x="92" y="591" on="0"/>
        <pt x="182" y="704" on="0"/>
        <pt x="356" y="704" on="0"/>
      </contour>
    </TTGlyph>
    <TTGlyph name="T" xMin="0" yMin="0" xMax="553" yMax="700">
      <contour>
        <pt x="553" y="700" on="1"/>
        <pt x="553" y="667" on="1"/>
        <pt x="295" y="667" on="1"/>
        <pt x="295" y="0" on="1"/>
        <pt x="258" y="0" on="1"/>
        <pt x="258" y="667" on="1"/>
        <pt x="0" y="667" on="1"/>
        <pt x="0" y="700" on="1"/>
      </contour>
    </TTGlyph>
    <TTGlyph name="Tbar" xMin="0" yMin="0" xMax="553" yMax="700">
      <contour>
        <pt x="391" y="500" on="1"/>
        <pt x="295" y="500" on="1"/>
        <pt x="295" y="0" on="1"/>
        <pt x="258" y="0" on="1"/>
        <pt x="258" y="500" on="1"/>
        <pt x="161" y="500" on="1"/>
        <pt x="161" y="533" on="1"/>
        <pt x="258" y="533" on="1"/>
        <pt x="258" y="667" on="1"/>
        <pt x="0" y="667" on="1"/>
        <pt x="0" y="700" on="1"/>
        <pt x="553" y="700" on="1"/>
        <pt x="553" y="667" on="1"/>
        <pt x="295" y="667" on="1"/>
        <pt x="295" y="533" on="1"/>
        <pt x="391" y="533" on="1"/>
      </contour>
    </TTGlyph>
    <TTGlyph name="Tcaron" xMin="0" yMin="0" xMax="553" yMax="1006">
      <contour>
        <pt x="553" y="700" on="1"/>
        <pt x="553" y="667" on="1"/>
        <pt x="295" y="667" on="1"/>
        <pt x="295" y="0" on="1"/>
        <pt x="258" y="0" on="1"/>
        <pt x="258" y="667" on="1"/>
        <pt x="0" y="667" on="1"/>
        <pt x="0" y="700" on="1"/>
      </contour>
      <contour>
        <pt x="397" y="1006" on="1"/>
        <pt x="277" y="825" on="1"/>
        <pt x="157" y="1006" on="1"/>
        <pt x="190" y="1006" on="1"/>
        <pt x="277" y="884" on="1"/>
        <pt x="364" y="1006" on="1"/>
      </contour>
    </TTGlyph>
    <TTGlyph name="Tcommaaccent" xMin="0" yMin="-250" xMax="553" yMax="700">
      <contour>
        <pt x="298" y="-44" on="1"/>
        <pt x="212" y="-250" on="1"/>
        <pt x="181" y="-250" on="1"/>
        <pt x="258" y="-44" on="1"/>
      </contour>
      <contour>
        <pt x="553" y="700" on="1"/>
        <pt x="553" y="667" on="1"/>
        <pt x="295" y="667" on="1"/>
        <pt x="295" y="0" on="1"/>
        <pt x="258" y="0" on="1"/>
        <pt x="258" y="667" on="1"/>
        <pt x="0" y="667" on="1"/>
        <pt x="0" y="700" on="1"/>
      </contour>
    </TTGlyph>
    <TTGlyph name="Thorn" xMin="100" yMin="0" xMax="450" yMax="700">
      <contour>
        <pt x="100" y="700" on="1"/>
        <pt x="137" y="700" on="1"/>
        <pt x="137" y="535" on="1"/>
        <pt x="244" y="535" on="1"/>
        <pt x="350" y="535" on="0"/>
        <pt x="414" y="458" on="1"/>
        <pt x="450" y="415" on="0"/>
        <pt x="450" y="355" on="1"/>
        <pt x="450" y="268" on="0"/>
        <pt x="342" y="167" on="0"/>
        <pt x="244" y="167" on="1"/>
        <pt x="137" y="167" on="1"/>
        <pt x="137" y="0" on="1"/>
        <pt x="100" y="0" on="1"/>
      </contour>
      <contour>
        <pt x="137" y="200" on="1"/>
        <pt x="239" y="200" on="1"/>
        <pt x="370" y="200" on="0"/>
        <pt x="404" y="302" on="1"/>
        <pt x="413" y="327" on="0"/>
        <pt x="413" y="355" on="1"/>
        <pt x="413" y="414" on="0"/>
        <pt x="312" y="502" on="0"/>
        <pt x="240" y="502" on="1"/>
        <pt x="137" y="502" on="1"/>
      </contour>
    </TTGlyph>
    <TTGlyph name="U" xMin="98" yMin="-8" xMax="557" yMax="700">
      <contour>
        <pt x="557" y="115" on="0"/>
        <pt x="428" y="-8" on="0"/>
        <pt x="225" y="-8" on="0"/>
        <pt x="98" y="115" on="0"/>
        <pt x="98" y="226" on="1"/>
        <pt x="98" y="700" on="1"/>
        <pt x="135" y="700" on="1"/>
        <pt x="135" y="229" on="1"/>
        <pt x="135" y="133" on="0"/>
        <pt x="241" y="25" on="0"/>
        <pt x="413" y="25" on="0"/>
        <pt x="520" y="133" on="0"/>
        <pt x="520" y="229" on="1"/>
        <pt x="520" y="700" on="1"/>
        <pt x="557" y="700" on="1"/>
        <pt x="557" y="226" on="1"/>
      </contour>
    </TTGlyph>
    <TTGlyph name="Uacute" xMin="98" yMin="-8" xMax="557" yMax="933">
      <contour>
        <pt x="300" y="800" on="1"/>
        <pt x="390" y="933" on="1"/>
        <pt x="427" y="933" on="1"/>
        <pt x="333" y="800" on="1"/>
      </contour>
      <contour>
        <pt x="557" y="115" on="0"/>
        <pt x="428" y="-8" on="0"/>
        <pt x="225" y="-8" on="0"/>
        <pt x="98" y="115" on="0"/>
        <pt x="98" y="226" on="1"/>
        <pt x="98" y="700" on="1"/>
        <pt x="135" y="700" on="1"/>
        <pt x="135" y="229" on="1"/>
        <pt x="135" y="133" on="0"/>
        <pt x="241" y="25" on="0"/>
        <pt x="413" y="25" on="0"/>
        <pt x="520" y="133" on="0"/>
        <pt x="520" y="229" on="1"/>
        <pt x="520" y="700" on="1"/>
        <pt x="557" y="700" on="1"/>
        <pt x="557" y="226" on="1"/>
      </contour>
    </TTGlyph>
    <TTGlyph name="Ubreve" xMin="98" yMin="-8" xMax="557" yMax="982">
      <contour>
        <pt x="557" y="115" on="0"/>
        <pt x="428" y="-8" on="0"/>
        <pt x="225" y="-8" on="0"/>
        <pt x="98" y="115" on="0"/>
        <pt x="98" y="226" on="1"/>
        <pt x="98" y="700" on="1"/>
        <pt x="135" y="700" on="1"/>
        <pt x="135" y="229" on="1"/>
        <pt x="135" y="133" on="0"/>
        <pt x="241" y="25" on="0"/>
        <pt x="413" y="25" on="0"/>
        <pt x="520" y="133" on="0"/>
        <pt x="520" y="229" on="1"/>
        <pt x="520" y="700" on="1"/>
        <pt x="557" y="700" on="1"/>
        <pt x="557" y="226" on="1"/>
      </contour>
      <contour>
        <pt x="393" y="825" on="0"/>
        <pt x="261" y="825" on="0"/>
        <pt x="165" y="916" on="0"/>
        <pt x="164" y="982" on="1"/>
        <pt x="197" y="982" on="1"/>
        <pt x="198" y="926" on="0"/>
        <pt x="271" y="857" on="0"/>
        <pt x="384" y="857" on="0"/>
        <pt x="455" y="925" on="0"/>
        <pt x="456" y="982" on="1"/>
        <pt x="488" y="982" on="1"/>
        <pt x="488" y="916" on="0"/>
      </contour>
    </TTGlyph>
    <TTGlyph name="Ucircumflex" xMin="98" yMin="-8" xMax="557" yMax="981">
      <contour>
        <pt x="557" y="115" on="0"/>
        <pt x="428" y="-8" on="0"/>
        <pt x="225" y="-8" on="0"/>
        <pt x="98" y="115" on="0"/>
        <pt x="98" y="226" on="1"/>
        <pt x="98" y="700" on="1"/>
        <pt x="135" y="700" on="1"/>
        <pt x="135" y="229" on="1"/>
        <pt x="135" y="133" on="0"/>
        <pt x="241" y="25" on="0"/>
        <pt x="413" y="25" on="0"/>
        <pt x="520" y="133" on="0"/>
        <pt x="520" y="229" on="1"/>
        <pt x="520" y="700" on="1"/>
        <pt x="557" y="700" on="1"/>
        <pt x="557" y="226" on="1"/>
      </contour>
      <contour>
        <pt x="325" y="981" on="1"/>
        <pt x="445" y="800" on="1"/>
        <pt x="412" y="800" on="1"/>
        <pt x="325" y="922" on="1"/>
        <pt x="238" y="800" on="1"/>
        <pt x="205" y="800" on="1"/>
      </contour>
    </TTGlyph>
    <TTGlyph name="Udieresis" xMin="98" yMin="-8" xMax="557" yMax="864">
      <contour>
        <pt x="245" y="818" on="0"/>
        <pt x="226" y="800" on="0"/>
        <pt x="201" y="800" on="0"/>
        <pt x="182" y="818" on="0"/>
        <pt x="182" y="845" on="0"/>
        <pt x="202" y="864" on="0"/>
        <pt x="226" y="864" on="0"/>
        <pt x="245" y="845" on="0"/>
      </contour>
      <contour>
        <pt x="478" y="818" on="0"/>
        <pt x="459" y="800" on="0"/>
        <pt x="434" y="800" on="0"/>
        <pt x="415" y="818" on="0"/>
        <pt x="415" y="845" on="0"/>
        <pt x="435" y="864" on="0"/>
        <pt x="459" y="864" on="0"/>
        <pt x="478" y="845" on="0"/>
      </contour>
      <contour>
        <pt x="557" y="115" on="0"/>
        <pt x="428" y="-8" on="0"/>
        <pt x="225" y="-8" on="0"/>
        <pt x="98" y="115" on="0"/>
        <pt x="98" y="226" on="1"/>
        <pt x="98" y="700" on="1"/>
        <pt x="135" y="700" on="1"/>
        <pt x="135" y="229" on="1"/>
        <pt x="135" y="133" on="0"/>
        <pt x="241" y="25" on="0"/>
        <pt x="413" y="25" on="0"/>
        <pt x="520" y="133" on="0"/>
        <pt x="520" y="229" on="1"/>
        <pt x="520" y="700" on="1"/>
        <pt x="557" y="700" on="1"/>
        <pt x="557" y="226" on="1"/>
      </contour>
    </TTGlyph>
    <TTGlyph name="Ugrave" xMin="98" yMin="-8" xMax="557" yMax="933">
      <contour>
        <pt x="243" y="933" on="1"/>
        <pt x="333" y="800" on="1"/>
        <pt x="300" y="800" on="1"/>
        <pt x="206" y="933" on="1"/>
      </contour>
      <contour>
        <pt x="557" y="115" on="0"/>
        <pt x="428" y="-8" on="0"/>
        <pt x="225" y="-8" on="0"/>
        <pt x="98" y="115" on="0"/>
        <pt x="98" y="226" on="1"/>
        <pt x="98" y="700" on="1"/>
        <pt x="135" y="700" on="1"/>
        <pt x="135" y="229" on="1"/>
        <pt x="135" y="133" on="0"/>
        <pt x="241" y="25" on="0"/>
        <pt x="413" y="25" on="0"/>
        <pt x="520" y="133" on="0"/>
        <pt x="520" y="229" on="1"/>
        <pt x="520" y="700" on="1"/>
        <pt x="557" y="700" on="1"/>
        <pt x="557" y="226" on="1"/>
      </contour>
    </TTGlyph>
    <TTGlyph name="Uhungarumlaut" xMin="98" yMin="-8" xMax="557" yMax="937">
      <contour>
        <pt x="557" y="115" on="0"/>
        <pt x="428" y="-8" on="0"/>
        <pt x="225" y="-8" on="0"/>
        <pt x="98" y="115" on="0"/>
        <pt x="98" y="226" on="1"/>
        <pt x="98" y="700" on="1"/>
        <pt x="135" y="700" on="1"/>
        <pt x="135" y="229" on="1"/>
        <pt x="135" y="133" on="0"/>
        <pt x="241" y="25" on="0"/>
        <pt x="413" y="25" on="0"/>
        <pt x="520" y="133" on="0"/>
        <pt x="520" y="229" on="1"/>
        <pt x="520" y="700" on="1"/>
        <pt x="557" y="700" on="1"/>
        <pt x="557" y="226" on="1"/>
      </contour>
      <contour>
        <pt x="224" y="804" on="1"/>
        <pt x="314" y="937" on="1"/>
        <pt x="351" y="937" on="1"/>
        <pt x="257" y="804" on="1"/>
      </contour>
      <contour>
        <pt x="393" y="804" on="1"/>
        <pt x="483" y="937" on="1"/>
        <pt x="520" y="937" on="1"/>
        <pt x="426" y="804" on="1"/>
      </contour>
    </TTGlyph>
    <TTGlyph name="Umacron" xMin="98" yMin="-8" xMax="557" yMax="841">
      <contour>
        <pt x="557" y="115" on="0"/>
        <pt x="428" y="-8" on="0"/>
        <pt x="225" y="-8" on="0"/>
        <pt x="98" y="115" on="0"/>
        <pt x="98" y="226" on="1"/>
        <pt x="98" y="700" on="1"/>
        <pt x="135" y="700" on="1"/>
        <pt x="135" y="229" on="1"/>
        <pt x="135" y="133" on="0"/>
        <pt x="241" y="25" on="0"/>
        <pt x="413" y="25" on="0"/>
        <pt x="520" y="133" on="0"/>
        <pt x="520" y="229" on="1"/>
        <pt x="520" y="700" on="1"/>
        <pt x="557" y="700" on="1"/>
        <pt x="557" y="226" on="1"/>
      </contour>
      <contour>
        <pt x="211" y="808" on="1"/>
        <pt x="211" y="841" on="1"/>
        <pt x="441" y="841" on="1"/>
        <pt x="441" y="808" on="1"/>
      </contour>
    </TTGlyph>
    <TTGlyph name="Uogonek" xMin="98" yMin="-241" xMax="557" yMax="700">
      <contour>
        <pt x="327" y="-8" on="1"/>
        <pt x="225" y="-8" on="0"/>
        <pt x="98" y="115" on="0"/>
        <pt x="98" y="226" on="1"/>
        <pt x="98" y="700" on="1"/>
        <pt x="135" y="700" on="1"/>
        <pt x="135" y="229" on="1"/>
        <pt x="135" y="133" on="0"/>
        <pt x="241" y="25" on="0"/>
        <pt x="413" y="25" on="0"/>
        <pt x="520" y="133" on="0"/>
        <pt x="520" y="229" on="1"/>
        <pt x="520" y="700" on="1"/>
        <pt x="557" y="700" on="1"/>
        <pt x="557" y="226" on="1"/>
        <pt x="557" y="130" on="0"/>
        <pt x="459" y="11" on="0"/>
        <pt x="378" y="-3" on="1"/>
        <pt x="377" y="-19" on="0"/>
        <pt x="356" y="-51" on="0"/>
        <pt x="340" y="-65" on="0"/>
        <pt x="319" y="-81" on="1"/>
        <pt x="294" y="-105" on="0"/>
        <pt x="294" y="-168" on="0"/>
        <pt x="333" y="-209" on="0"/>
        <pt x="364" y="-209" on="1"/>
        <pt x="364" y="-241" on="1"/>
        <pt x="316" y="-241" on="0"/>
        <pt x="263" y="-180" on="0"/>
        <pt x="263" y="-86" on="0"/>
        <pt x="299" y="-59" on="1"/>
        <pt x="302" y="-57" on="0"/>
        <pt x="322" y="-45" on="0"/>
        <pt x="328" y="-40" on="1"/>
        <pt x="346" y="-27" on="0"/>
        <pt x="348" y="-7" on="1"/>
        <pt x="341" y="-8" on="0"/>
      </contour>
    </TTGlyph>
    <TTGlyph name="Uring" xMin="98" yMin="-8" xMax="557" yMax="932">
      <contour>
        <pt x="557" y="115" on="0"/>
        <pt x="428" y="-8" on="0"/>
        <pt x="225" y="-8" on="0"/>
        <pt x="98" y="115" on="0"/>
        <pt x="98" y="226" on="1"/>
        <pt x="98" y="700" on="1"/>
        <pt x="135" y="700" on="1"/>
        <pt x="135" y="229" on="1"/>
        <pt x="135" y="133" on="0"/>
        <pt x="241" y="25" on="0"/>
        <pt x="413" y="25" on="0"/>
        <pt x="520" y="133" on="0"/>
        <pt x="520" y="229" on="1"/>
        <pt x="520" y="700" on="1"/>
        <pt x="557" y="700" on="1"/>
        <pt x="557" y="226" on="1"/>
      </contour>
      <contour>
        <pt x="262" y="838" on="0"/>
        <pt x="262" y="892" on="0"/>
        <pt x="302" y="932" on="0"/>
        <pt x="356" y="932" on="0"/>
        <pt x="396" y="892" on="0"/>
        <pt x="396" y="838" on="0"/>
        <pt x="356" y="798" on="0"/>
        <pt x="302" y="798" on="0"/>
      </contour>
      <contour>
        <pt x="290" y="882" on="0"/>
        <pt x="290" y="848" on="0"/>
        <pt x="312" y="826" on="0"/>
        <pt x="346" y="826" on="0"/>
        <pt x="368" y="848" on="0"/>
        <pt x="368" y="882" on="0"/>
        <pt x="346" y="904" on="0"/>
        <pt x="312" y="904" on="0"/>
      </contour>
    </TTGlyph>
    <TTGlyph name="Utilde" xMin="98" yMin="-8" xMax="557" yMax="868">
      <contour>
        <pt x="557" y="115" on="0"/>
        <pt x="428" y="-8" on="0"/>
        <pt x="225" y="-8" on="0"/>
        <pt x="98" y="115" on="0"/>
        <pt x="98" y="226" on="1"/>
        <pt x="98" y="700" on="1"/>
        <pt x="135" y="700" on="1"/>
        <pt x="135" y="229" on="1"/>
        <pt x="135" y="133" on="0"/>
        <pt x="241" y="25" on="0"/>
        <pt x="413" y="25" on="0"/>
        <pt x="520" y="133" on="0"/>
        <pt x="520" y="229" on="1"/>
        <pt x="520" y="700" on="1"/>
        <pt x="557" y="700" on="1"/>
        <pt x="557" y="226" on="1"/>
      </contour>
      <contour>
        <pt x="445" y="819" on="0"/>
        <pt x="405" y="783" on="0"/>
        <pt x="348" y="783" on="0"/>
        <pt x="290" y="840" on="0"/>
        <pt x="275" y="840" on="1"/>
        <pt x="237" y="840" on="0"/>
        <pt x="232" y="793" on="1"/>
        <pt x="204" y="796" on="1"/>
        <pt x="206" y="832" on="0"/>
        <pt x="246" y="868" on="0"/>
        <pt x="300" y="868" on="0"/>
        <pt x="361" y="811" on="0"/>
        <pt x="376" y="811" on="1"/>
        <pt x="414" y="811" on="0"/>
        <pt x="419" y="858" on="1"/>
        <pt x="447" y="855" on="1"/>
      </contour>
    </TTGlyph>
    <TTGlyph name="V" xMin="54" yMin="-32" xMax="674" yMax="700">
      <contour>
        <pt x="635" y="700" on="1"/>
        <pt x="674" y="700" on="1"/>
        <pt x="364" y="-32" on="1"/>
        <pt x="54" y="700" on="1"/>
        <pt x="93" y="700" on="1"/>
        <pt x="355" y="82" on="1"/>
        <pt x="364" y="52" on="1"/>
        <pt x="373" y="82" on="1"/>
      </contour>
    </TTGlyph>
    <TTGlyph name="W" xMin="54" yMin="-32" xMax="1046" yMax="700">
      <contour>
        <pt x="1007" y="700" on="1"/>
        <pt x="1046" y="700" on="1"/>
        <pt x="736" y="-32" on="1"/>
        <pt x="559" y="385" on="1"/>
        <pt x="550" y="415" on="1"/>
        <pt x="541" y="385" on="1"/>
        <pt x="364" y="-32" on="1"/>
        <pt x="54" y="700" on="1"/>
        <pt x="93" y="700" on="1"/>
        <pt x="355" y="82" on="1"/>
        <pt x="364" y="52" on="1"/>
        <pt x="373" y="82" on="1"/>
        <pt x="530" y="453" on="1"/>
        <pt x="426" y="700" on="1"/>
        <pt x="465" y="700" on="1"/>
        <pt x="727" y="82" on="1"/>
        <pt x="736" y="52" on="1"/>
        <pt x="745" y="82" on="1"/>
      </contour>
    </TTGlyph>
    <TTGlyph name="Wcircumflex" xMin="54" yMin="-32" xMax="1046" yMax="985">
      <contour>
        <pt x="1007" y="700" on="1"/>
        <pt x="1046" y="700" on="1"/>
        <pt x="736" y="-32" on="1"/>
        <pt x="559" y="385" on="1"/>
        <pt x="550" y="415" on="1"/>
        <pt x="541" y="385" on="1"/>
        <pt x="364" y="-32" on="1"/>
        <pt x="54" y="700" on="1"/>
        <pt x="93" y="700" on="1"/>
        <pt x="355" y="82" on="1"/>
        <pt x="364" y="52" on="1"/>
        <pt x="373" y="82" on="1"/>
        <pt x="530" y="453" on="1"/>
        <pt x="426" y="700" on="1"/>
        <pt x="465" y="700" on="1"/>
        <pt x="727" y="82" on="1"/>
        <pt x="736" y="52" on="1"/>
        <pt x="745" y="82" on="1"/>
      </contour>
      <contour>
        <pt x="553" y="985" on="1"/>
        <pt x="673" y="804" on="1"/>
        <pt x="640" y="804" on="1"/>
        <pt x="553" y="926" on="1"/>
        <pt x="466" y="804" on="1"/>
        <pt x="433" y="804" on="1"/>
      </contour>
    </TTGlyph>
    <TTGlyph name="X" xMin="93" yMin="0" xMax="600" yMax="700">
      <contour>
        <pt x="93" y="0" on="1"/>
        <pt x="326" y="357" on="1"/>
        <pt x="103" y="700" on="1"/>
        <pt x="144" y="700" on="1"/>
        <pt x="337" y="403" on="1"/>
        <pt x="350" y="376" on="1"/>
        <pt x="363" y="403" on="1"/>
        <pt x="553" y="694" on="1"/>
        <pt x="594" y="694" on="1"/>
        <pt x="371" y="351" on="1"/>
        <pt x="600" y="0" on="1"/>
        <pt x="558" y="0" on="1"/>
        <pt x="360" y="305" on="1"/>
        <pt x="346" y="333" on="1"/>
        <pt x="333" y="305" on="1"/>
        <pt x="135" y="0" on="1"/>
      </contour>
    </TTGlyph>
    <TTGlyph name="Y" xMin="41" yMin="0" xMax="594" yMax="700">
      <contour>
        <pt x="337" y="263" on="1"/>
        <pt x="336" y="0" on="1"/>
        <pt x="300" y="0" on="1"/>
        <pt x="300" y="263" on="1"/>
        <pt x="41" y="700" on="1"/>
        <pt x="78" y="700" on="1"/>
        <pt x="306" y="319" on="1"/>
        <pt x="318" y="292" on="1"/>
        <pt x="319" y="292" on="1"/>
        <pt x="330" y="319" on="1"/>
        <pt x="557" y="700" on="1"/>
        <pt x="594" y="700" on="1"/>
      </contour>
    </TTGlyph>
    <TTGlyph name="Yacute" xMin="41" yMin="0" xMax="594" yMax="933">
      <contour>
        <pt x="300" y="800" on="1"/>
        <pt x="390" y="933" on="1"/>
        <pt x="427" y="933" on="1"/>
        <pt x="333" y="800" on="1"/>
      </contour>
      <contour>
        <pt x="337" y="263" on="1"/>
        <pt x="336" y="0" on="1"/>
        <pt x="300" y="0" on="1"/>
        <pt x="300" y="263" on="1"/>
        <pt x="41" y="700" on="1"/>
        <pt x="78" y="700" on="1"/>
        <pt x="306" y="319" on="1"/>
        <pt x="318" y="292" on="1"/>
        <pt x="319" y="292" on="1"/>
        <pt x="330" y="319" on="1"/>
        <pt x="557" y="700" on="1"/>
        <pt x="594" y="700" on="1"/>
      </contour>
    </TTGlyph>
    <TTGlyph name="Ycircumflex" xMin="41" yMin="0" xMax="594" yMax="985">
      <contour>
        <pt x="337" y="263" on="1"/>
        <pt x="336" y="0" on="1"/>
        <pt x="300" y="0" on="1"/>
        <pt x="300" y="263" on="1"/>
        <pt x="41" y="700" on="1"/>
        <pt x="78" y="700" on="1"/>
        <pt x="306" y="319" on="1"/>
        <pt x="318" y="292" on="1"/>
        <pt x="319" y="292" on="1"/>
        <pt x="330" y="319" on="1"/>
        <pt x="557" y="700" on="1"/>
        <pt x="594" y="700" on="1"/>
      </contour>
      <contour>
        <pt x="319" y="985" on="1"/>
        <pt x="439" y="804" on="1"/>
        <pt x="406" y="804" on="1"/>
        <pt x="319" y="926" on="1"/>
        <pt x="232" y="804" on="1"/>
        <pt x="199" y="804" on="1"/>
      </contour>
    </TTGlyph>
    <TTGlyph name="Ydieresis" xMin="41" yMin="0" xMax="594" yMax="864">
      <contour>
        <pt x="337" y="263" on="1"/>
        <pt x="336" y="0" on="1"/>
        <pt x="300" y="0" on="1"/>
        <pt x="300" y="263" on="1"/>
        <pt x="41" y="700" on="1"/>
        <pt x="78" y="700" on="1"/>
        <pt x="306" y="319" on="1"/>
        <pt x="318" y="292" on="1"/>
        <pt x="319" y="292" on="1"/>
        <pt x="330" y="319" on="1"/>
        <pt x="557" y="700" on="1"/>
        <pt x="594" y="700" on="1"/>
      </contour>
      <contour>
        <pt x="268" y="818" on="0"/>
        <pt x="249" y="800" on="0"/>
        <pt x="224" y="800" on="0"/>
        <pt x="205" y="818" on="0"/>
        <pt x="205" y="845" on="0"/>
        <pt x="225" y="864" on="0"/>
        <pt x="249" y="864" on="0"/>
        <pt x="268" y="845" on="0"/>
      </contour>
      <contour>
        <pt x="433" y="818" on="0"/>
        <pt x="414" y="800" on="0"/>
        <pt x="389" y="800" on="0"/>
        <pt x="370" y="818" on="0"/>
        <pt x="370" y="845" on="0"/>
        <pt x="390" y="864" on="0"/>
        <pt x="414" y="864" on="0"/>
        <pt x="433" y="845" on="0"/>
      </contour>
    </TTGlyph>
    <TTGlyph name="Z" xMin="81" yMin="0" xMax="640" yMax="750">
      <contour>
        <pt x="145" y="700" on="1"/>
        <pt x="611" y="700" on="1"/>
        <pt x="611" y="667" on="1"/>
        <pt x="128" y="33" on="1"/>
        <pt x="640" y="33" on="1"/>
        <pt x="640" y="0" on="1"/>
        <pt x="81" y="0" on="1"/>
        <pt x="81" y="33" on="1"/>
        <pt x="564" y="667" on="1"/>
        <pt x="141" y="667" on="1"/>
        <pt x="108" y="667" on="0"/>
        <pt x="81" y="685" on="0"/>
        <pt x="81" y="712" on="1"/>
        <pt x="81" y="750" on="1"/>
        <pt x="115" y="750" on="1"/>
        <pt x="115" y="723" on="1"/>
        <pt x="115" y="708" on="0"/>
        <pt x="127" y="700" on="0"/>
      </contour>
    </TTGlyph>
    <TTGlyph name="Zacute" xMin="81" yMin="0" xMax="640" yMax="937">
      <contour>
        <pt x="145" y="700" on="1"/>
        <pt x="611" y="700" on="1"/>
        <pt x="611" y="667" on="1"/>
        <pt x="128" y="33" on="1"/>
        <pt x="640" y="33" on="1"/>
        <pt x="640" y="0" on="1"/>
        <pt x="81" y="0" on="1"/>
        <pt x="81" y="33" on="1"/>
        <pt x="564" y="667" on="1"/>
        <pt x="141" y="667" on="1"/>
        <pt x="108" y="667" on="0"/>
        <pt x="81" y="685" on="0"/>
        <pt x="81" y="712" on="1"/>
        <pt x="81" y="750" on="1"/>
        <pt x="115" y="750" on="1"/>
        <pt x="115" y="723" on="1"/>
        <pt x="115" y="708" on="0"/>
        <pt x="127" y="700" on="0"/>
      </contour>
      <contour>
        <pt x="334" y="804" on="1"/>
        <pt x="424" y="937" on="1"/>
        <pt x="461" y="937" on="1"/>
        <pt x="367" y="804" on="1"/>
      </contour>
    </TTGlyph>
    <TTGlyph name="Zcaron" xMin="81" yMin="0" xMax="640" yMax="950">
      <contour>
        <pt x="474" y="950" on="1"/>
        <pt x="354" y="769" on="1"/>
        <pt x="234" y="950" on="1"/>
        <pt x="267" y="950" on="1"/>
        <pt x="354" y="828" on="1"/>
        <pt x="441" y="950" on="1"/>
      </contour>
      <contour>
        <pt x="145" y="700" on="1"/>
        <pt x="611" y="700" on="1"/>
        <pt x="611" y="667" on="1"/>
        <pt x="128" y="33" on="1"/>
        <pt x="640" y="33" on="1"/>
        <pt x="640" y="0" on="1"/>
        <pt x="81" y="0" on="1"/>
        <pt x="81" y="33" on="1"/>
        <pt x="564" y="667" on="1"/>
        <pt x="141" y="667" on="1"/>
        <pt x="108" y="667" on="0"/>
        <pt x="81" y="685" on="0"/>
        <pt x="81" y="712" on="1"/>
        <pt x="81" y="750" on="1"/>
        <pt x="115" y="750" on="1"/>
        <pt x="115" y="723" on="1"/>
        <pt x="115" y="708" on="0"/>
        <pt x="127" y="700" on="0"/>
      </contour>
    </TTGlyph>
    <TTGlyph name="Zdotaccent" xMin="81" yMin="0" xMax="640" yMax="890">
      <contour>
        <pt x="145" y="700" on="1"/>
        <pt x="611" y="700" on="1"/>
        <pt x="611" y="667" on="1"/>
        <pt x="128" y="33" on="1"/>
        <pt x="640" y="33" on="1"/>
        <pt x="640" y="0" on="1"/>
        <pt x="81" y="0" on="1"/>
        <pt x="81" y="33" on="1"/>
        <pt x="564" y="667" on="1"/>
        <pt x="141" y="667" on="1"/>
        <pt x="108" y="667" on="0"/>
        <pt x="81" y="685" on="0"/>
        <pt x="81" y="712" on="1"/>
        <pt x="81" y="750" on="1"/>
        <pt x="115" y="750" on="1"/>
        <pt x="115" y="723" on="1"/>
        <pt x="115" y="708" on="0"/>
        <pt x="127" y="700" on="0"/>
      </contour>
      <contour>
        <pt x="400" y="844" on="0"/>
        <pt x="381" y="826" on="0"/>
        <pt x="356" y="826" on="0"/>
        <pt x="337" y="844" on="0"/>
        <pt x="337" y="871" on="0"/>
        <pt x="357" y="890" on="0"/>
        <pt x="381" y="890" on="0"/>
        <pt x="400" y="871" on="0"/>
      </contour>
    </TTGlyph>
    <TTGlyph name="a" xMin="49" yMin="-9" xMax="444" yMax="382">
      <contour>
        <pt x="444" y="0" on="1"/>
        <pt x="407" y="0" on="1"/>
        <pt x="407" y="60" on="1"/>
        <pt x="410" y="105" on="1"/>
        <pt x="389" y="54" on="0"/>
        <pt x="301" y="-9" on="0"/>
        <pt x="244" y="-9" on="1"/>
        <pt x="163" y="-9" on="0"/>
        <pt x="49" y="106" on="0"/>
        <pt x="49" y="267" on="0"/>
        <pt x="163" y="382" on="0"/>
        <pt x="244" y="382" on="1"/>
        <pt x="302" y="382" on="0"/>
        <pt x="386" y="322" on="0"/>
        <pt x="407" y="272" on="1"/>
        <pt x="412" y="375" on="1"/>
        <pt x="444" y="375" on="1"/>
      </contour>
      <contour>
        <pt x="86" y="118" on="0"/>
        <pt x="175" y="24" on="0"/>
        <pt x="314" y="24" on="0"/>
        <pt x="403" y="118" on="0"/>
        <pt x="403" y="257" on="0"/>
        <pt x="314" y="349" on="0"/>
        <pt x="175" y="349" on="0"/>
        <pt x="86" y="257" on="0"/>
      </contour>
    </TTGlyph>
    <TTGlyph name="aacute" xMin="49" yMin="-9" xMax="444" yMax="612">
      <contour>
        <pt x="231" y="479" on="1"/>
        <pt x="321" y="612" on="1"/>
        <pt x="358" y="612" on="1"/>
        <pt x="264" y="479" on="1"/>
      </contour>
      <contour>
        <pt x="444" y="0" on="1"/>
        <pt x="407" y="0" on="1"/>
        <pt x="407" y="60" on="1"/>
        <pt x="410" y="105" on="1"/>
        <pt x="389" y="54" on="0"/>
        <pt x="301" y="-9" on="0"/>
        <pt x="244" y="-9" on="1"/>
        <pt x="163" y="-9" on="0"/>
        <pt x="49" y="106" on="0"/>
        <pt x="49" y="267" on="0"/>
        <pt x="163" y="382" on="0"/>
        <pt x="244" y="382" on="1"/>
        <pt x="302" y="382" on="0"/>
        <pt x="386" y="322" on="0"/>
        <pt x="407" y="272" on="1"/>
        <pt x="412" y="375" on="1"/>
        <pt x="444" y="375" on="1"/>
      </contour>
      <contour>
        <pt x="86" y="118" on="0"/>
        <pt x="175" y="24" on="0"/>
        <pt x="314" y="24" on="0"/>
        <pt x="403" y="118" on="0"/>
        <pt x="403" y="257" on="0"/>
        <pt x="314" y="349" on="0"/>
        <pt x="175" y="349" on="0"/>
        <pt x="86" y="257" on="0"/>
      </contour>
    </TTGlyph>
    <TTGlyph name="abreve" xMin="49" yMin="-9" xMax="444" yMax="617">
      <contour>
        <pt x="444" y="0" on="1"/>
        <pt x="407" y="0" on="1"/>
        <pt x="407" y="60" on="1"/>
        <pt x="410" y="105" on="1"/>
        <pt x="389" y="54" on="0"/>
        <pt x="301" y="-9" on="0"/>
        <pt x="244" y="-9" on="1"/>
        <pt x="163" y="-9" on="0"/>
        <pt x="49" y="106" on="0"/>
        <pt x="49" y="267" on="0"/>
        <pt x="163" y="382" on="0"/>
        <pt x="244" y="382" on="1"/>
        <pt x="302" y="382" on="0"/>
        <pt x="386" y="322" on="0"/>
        <pt x="407" y="272" on="1"/>
        <pt x="412" y="375" on="1"/>
        <pt x="444" y="375" on="1"/>
      </contour>
      <contour>
        <pt x="86" y="118" on="0"/>
        <pt x="175" y="24" on="0"/>
        <pt x="314" y="24" on="0"/>
        <pt x="403" y="118" on="0"/>
        <pt x="403" y="257" on="0"/>
        <pt x="314" y="349" on="0"/>
        <pt x="175" y="349" on="0"/>
        <pt x="86" y="257" on="0"/>
      </contour>
      <contour>
        <pt x="330" y="460" on="0"/>
        <pt x="198" y="460" on="0"/>
        <pt x="102" y="551" on="0"/>
        <pt x="101" y="617" on="1"/>
        <pt x="134" y="617" on="1"/>
        <pt x="135" y="561" on="0"/>
        <pt x="208" y="492" on="0"/>
        <pt x="321" y="492" on="0"/>
        <pt x="392" y="560" on="0"/>
        <pt x="393" y="617" on="1"/>
        <pt x="425" y="617" on="1"/>
        <pt x="425" y="551" on="0"/>
      </contour>
    </TTGlyph>
    <TTGlyph name="acircumflex" xMin="49" yMin="-9" xMax="444" yMax="660">
      <contour>
        <pt x="261" y="660" on="1"/>
        <pt x="381" y="479" on="1"/>
        <pt x="348" y="479" on="1"/>
        <pt x="261" y="601" on="1"/>
        <pt x="174" y="479" on="1"/>
        <pt x="141" y="479" on="1"/>
      </contour>
      <contour>
        <pt x="444" y="0" on="1"/>
        <pt x="407" y="0" on="1"/>
        <pt x="407" y="60" on="1"/>
        <pt x="410" y="105" on="1"/>
        <pt x="389" y="54" on="0"/>
        <pt x="301" y="-9" on="0"/>
        <pt x="244" y="-9" on="1"/>
        <pt x="163" y="-9" on="0"/>
        <pt x="49" y="106" on="0"/>
        <pt x="49" y="267" on="0"/>
        <pt x="163" y="382" on="0"/>
        <pt x="244" y="382" on="1"/>
        <pt x="302" y="382" on="0"/>
        <pt x="386" y="322" on="0"/>
        <pt x="407" y="272" on="1"/>
        <pt x="412" y="375" on="1"/>
        <pt x="444" y="375" on="1"/>
      </contour>
      <contour>
        <pt x="86" y="118" on="0"/>
        <pt x="175" y="24" on="0"/>
        <pt x="314" y="24" on="0"/>
        <pt x="403" y="118" on="0"/>
        <pt x="403" y="257" on="0"/>
        <pt x="314" y="349" on="0"/>
        <pt x="175" y="349" on="0"/>
        <pt x="86" y="257" on="0"/>
      </contour>
    </TTGlyph>
    <TTGlyph name="acute" xMin="100" yMin="479" xMax="227" yMax="612">
      <contour>
        <pt x="100" y="479" on="1"/>
        <pt x="190" y="612" on="1"/>
        <pt x="227" y="612" on="1"/>
        <pt x="133" y="479" on="1"/>
      </contour>
    </TTGlyph>
    <TTGlyph name="adieresis" xMin="49" yMin="-9" xMax="444" yMax="553">
      <contour>
        <pt x="211" y="507" on="0"/>
        <pt x="192" y="489" on="0"/>
        <pt x="167" y="489" on="0"/>
        <pt x="148" y="507" on="0"/>
        <pt x="148" y="534" on="0"/>
        <pt x="168" y="553" on="0"/>
        <pt x="192" y="553" on="0"/>
        <pt x="211" y="534" on="0"/>
      </contour>
      <contour>
        <pt x="376" y="507" on="0"/>
        <pt x="357" y="489" on="0"/>
        <pt x="332" y="489" on="0"/>
        <pt x="313" y="507" on="0"/>
        <pt x="313" y="534" on="0"/>
        <pt x="333" y="553" on="0"/>
        <pt x="357" y="553" on="0"/>
        <pt x="376" y="534" on="0"/>
      </contour>
      <contour>
        <pt x="444" y="0" on="1"/>
        <pt x="407" y="0" on="1"/>
        <pt x="407" y="60" on="1"/>
        <pt x="410" y="105" on="1"/>
        <pt x="389" y="54" on="0"/>
        <pt x="301" y="-9" on="0"/>
        <pt x="244" y="-9" on="1"/>
        <pt x="163" y="-9" on="0"/>
        <pt x="49" y="106" on="0"/>
        <pt x="49" y="267" on="0"/>
        <pt x="163" y="382" on="0"/>
        <pt x="244" y="382" on="1"/>
        <pt x="302" y="382" on="0"/>
        <pt x="386" y="322" on="0"/>
        <pt x="407" y="272" on="1"/>
        <pt x="412" y="375" on="1"/>
        <pt x="444" y="375" on="1"/>
      </contour>
      <contour>
        <pt x="86" y="118" on="0"/>
        <pt x="175" y="24" on="0"/>
        <pt x="314" y="24" on="0"/>
        <pt x="403" y="118" on="0"/>
        <pt x="403" y="257" on="0"/>
        <pt x="314" y="349" on="0"/>
        <pt x="175" y="349" on="0"/>
        <pt x="86" y="257" on="0"/>
      </contour>
    </TTGlyph>
    <TTGlyph name="ae" xMin="49" yMin="-10" xMax="584" yMax="383">
      <contour>
        <pt x="106" y="322" on="1"/>
        <pt x="81" y="346" on="1"/>
        <pt x="100" y="362" on="0"/>
        <pt x="172" y="383" on="0"/>
        <pt x="205" y="383" on="1"/>
        <pt x="281" y="383" on="0"/>
        <pt x="318" y="357" on="1"/>
        <pt x="361" y="381" on="0"/>
        <pt x="475" y="381" on="0"/>
        <pt x="564" y="307" on="0"/>
        <pt x="584" y="246" on="1"/>
        <pt x="360" y="159" on="1"/>
        <pt x="360" y="54" on="1"/>
        <pt x="360" y="38" on="0"/>
        <pt x="364" y="29" on="1"/>
        <pt x="386" y="23" on="0"/>
        <pt x="411" y="23" on="1"/>
        <pt x="475" y="23" on="0"/>
        <pt x="519" y="64" on="1"/>
        <pt x="544" y="44" on="1"/>
        <pt x="488" y="-10" on="0"/>
        <pt x="350" y="-10" on="0"/>
        <pt x="303" y="23" on="1"/>
        <pt x="268" y="-8" on="0"/>
        <pt x="130" y="-8" on="0"/>
        <pt x="49" y="40" on="0"/>
        <pt x="49" y="148" on="0"/>
        <pt x="135" y="193" on="0"/>
        <pt x="200" y="193" on="1"/>
        <pt x="323" y="193" on="1"/>
        <pt x="323" y="239" on="1"/>
        <pt x="323" y="299" on="0"/>
        <pt x="277" y="350" on="0"/>
        <pt x="204" y="350" on="1"/>
        <pt x="180" y="350" on="0"/>
        <pt x="121" y="333" on="0"/>
      </contour>
      <contour>
        <pt x="323" y="160" on="1"/>
        <pt x="205" y="160" on="1"/>
        <pt x="148" y="160" on="0"/>
        <pt x="86" y="135" on="0"/>
        <pt x="86" y="99" on="1"/>
        <pt x="86" y="25" on="0"/>
        <pt x="323" y="25" on="0"/>
        <pt x="323" y="104" on="1"/>
      </contour>
      <contour>
        <pt x="411" y="348" on="1"/>
        <pt x="371" y="348" on="0"/>
        <pt x="341" y="333" on="1"/>
        <pt x="360" y="303" on="0"/>
        <pt x="360" y="243" on="1"/>
        <pt x="360" y="195" on="1"/>
        <pt x="541" y="266" on="1"/>
        <pt x="500" y="348" on="0"/>
      </contour>
    </TTGlyph>
    <TTGlyph name="agrave" xMin="49" yMin="-9" xMax="444" yMax="612">
      <contour>
        <pt x="175" y="612" on="1"/>
        <pt x="265" y="479" on="1"/>
        <pt x="232" y="479" on="1"/>
        <pt x="138" y="612" on="1"/>
      </contour>
      <contour>
        <pt x="444" y="0" on="1"/>
        <pt x="407" y="0" on="1"/>
        <pt x="407" y="60" on="1"/>
        <pt x="410" y="105" on="1"/>
        <pt x="389" y="54" on="0"/>
        <pt x="301" y="-9" on="0"/>
        <pt x="244" y="-9" on="1"/>
        <pt x="163" y="-9" on="0"/>
        <pt x="49" y="106" on="0"/>
        <pt x="49" y="267" on="0"/>
        <pt x="163" y="382" on="0"/>
        <pt x="244" y="382" on="1"/>
        <pt x="302" y="382" on="0"/>
        <pt x="386" y="322" on="0"/>
        <pt x="407" y="272" on="1"/>
        <pt x="412" y="375" on="1"/>
        <pt x="444" y="375" on="1"/>
      </contour>
      <contour>
        <pt x="86" y="118" on="0"/>
        <pt x="175" y="24" on="0"/>
        <pt x="314" y="24" on="0"/>
        <pt x="403" y="118" on="0"/>
        <pt x="403" y="257" on="0"/>
        <pt x="314" y="349" on="0"/>
        <pt x="175" y="349" on="0"/>
        <pt x="86" y="257" on="0"/>
      </contour>
    </TTGlyph>
    <TTGlyph name="amacron" xMin="49" yMin="-9" xMax="444" yMax="516">
      <contour>
        <pt x="444" y="0" on="1"/>
        <pt x="407" y="0" on="1"/>
        <pt x="407" y="60" on="1"/>
        <pt x="410" y="105" on="1"/>
        <pt x="389" y="54" on="0"/>
        <pt x="301" y="-9" on="0"/>
        <pt x="244" y="-9" on="1"/>
        <pt x="163" y="-9" on="0"/>
        <pt x="49" y="106" on="0"/>
        <pt x="49" y="267" on="0"/>
        <pt x="163" y="382" on="0"/>
        <pt x="244" y="382" on="1"/>
        <pt x="302" y="382" on="0"/>
        <pt x="386" y="322" on="0"/>
        <pt x="407" y="272" on="1"/>
        <pt x="412" y="375" on="1"/>
        <pt x="444" y="375" on="1"/>
      </contour>
      <contour>
        <pt x="86" y="118" on="0"/>
        <pt x="175" y="24" on="0"/>
        <pt x="314" y="24" on="0"/>
        <pt x="403" y="118" on="0"/>
        <pt x="403" y="257" on="0"/>
        <pt x="314" y="349" on="0"/>
        <pt x="175" y="349" on="0"/>
        <pt x="86" y="257" on="0"/>
      </contour>
      <contour>
        <pt x="160" y="483" on="1"/>
        <pt x="160" y="516" on="1"/>
        <pt x="390" y="516" on="1"/>
        <pt x="390" y="483" on="1"/>
      </contour>
    </TTGlyph>
    <TTGlyph name="ampersand" xMin="105" yMin="-19" xMax="591" yMax="726">
      <contour>
        <pt x="541" y="1" on="1"/>
        <pt x="511" y="-19" on="1"/>
        <pt x="456" y="69" on="1"/>
        <pt x="398" y="-9" on="0"/>
        <pt x="300" y="-9" on="1"/>
        <pt x="219" y="-9" on="0"/>
        <pt x="105" y="106" on="0"/>
        <pt x="105" y="259" on="0"/>
        <pt x="198" y="368" on="0"/>
        <pt x="267" y="379" on="1"/>
        <pt x="196" y="496" on="1"/>
        <pt x="157" y="555" on="0"/>
        <pt x="180" y="688" on="0"/>
        <pt x="243" y="726" on="1"/>
        <pt x="334" y="782" on="0"/>
        <pt x="454" y="705" on="1"/>
        <pt x="441" y="680" on="1"/>
        <pt x="409" y="698" on="0"/>
        <pt x="359" y="718" on="0"/>
        <pt x="289" y="718" on="0"/>
        <pt x="260" y="700" on="1"/>
        <pt x="209" y="668" on="0"/>
        <pt x="193" y="564" on="0"/>
        <pt x="226" y="515" on="1"/>
        <pt x="453" y="144" on="1"/>
        <pt x="459" y="163" on="0"/>
        <pt x="459" y="187" on="1"/>
        <pt x="459" y="257" on="1"/>
        <pt x="459" y="327" on="0"/>
        <pt x="502" y="375" on="0"/>
        <pt x="544" y="375" on="1"/>
        <pt x="591" y="375" on="1"/>
        <pt x="591" y="339" on="1"/>
        <pt x="547" y="339" on="1"/>
        <pt x="515" y="339" on="0"/>
        <pt x="495" y="302" on="0"/>
        <pt x="495" y="239" on="1"/>
        <pt x="495" y="187" on="1"/>
        <pt x="495" y="139" on="0"/>
        <pt x="478" y="104" on="1"/>
      </contour>
      <contour>
        <pt x="300" y="24" on="1"/>
        <pt x="393" y="24" on="0"/>
        <pt x="437" y="101" on="1"/>
        <pt x="286" y="348" on="1"/>
        <pt x="222" y="344" on="0"/>
        <pt x="142" y="253" on="0"/>
        <pt x="142" y="118" on="0"/>
        <pt x="231" y="24" on="0"/>
      </contour>
    </TTGlyph>
    <TTGlyph name="aogonek" xMin="49" yMin="-241" xMax="444" yMax="382">
      <contour>
        <pt x="422" y="-209" on="1"/>
        <pt x="422" y="-241" on="1"/>
        <pt x="374" y="-241" on="0"/>
        <pt x="321" y="-180" on="0"/>
        <pt x="321" y="-86" on="0"/>
        <pt x="357" y="-59" on="1"/>
        <pt x="360" y="-57" on="0"/>
        <pt x="382" y="-44" on="0"/>
        <pt x="388" y="-39" on="1"/>
        <pt x="407" y="-25" on="0"/>
        <pt x="407" y="0" on="1"/>
        <pt x="407" y="60" on="1"/>
        <pt x="410" y="105" on="1"/>
        <pt x="389" y="54" on="0"/>
        <pt x="301" y="-9" on="0"/>
        <pt x="244" y="-9" on="1"/>
        <pt x="163" y="-9" on="0"/>
        <pt x="49" y="106" on="0"/>
        <pt x="49" y="267" on="0"/>
        <pt x="163" y="382" on="0"/>
        <pt x="244" y="382" on="1"/>
        <pt x="302" y="382" on="0"/>
        <pt x="386" y="322" on="0"/>
        <pt x="407" y="272" on="1"/>
        <pt x="412" y="375" on="1"/>
        <pt x="444" y="375" on="1"/>
        <pt x="444" y="0" on="1"/>
        <pt x="444" y="-30" on="0"/>
        <pt x="408" y="-58" on="1"/>
        <pt x="392" y="-70" on="1"/>
        <pt x="380" y="-79" on="0"/>
        <pt x="377" y="-81" on="1"/>
        <pt x="352" y="-105" on="0"/>
        <pt x="352" y="-168" on="0"/>
        <pt x="391" y="-209" on="0"/>
      </contour>
      <contour>
        <pt x="86" y="118" on="0"/>
        <pt x="175" y="24" on="0"/>
        <pt x="314" y="24" on="0"/>
        <pt x="403" y="118" on="0"/>
        <pt x="403" y="257" on="0"/>
        <pt x="314" y="349" on="0"/>
        <pt x="175" y="349" on="0"/>
        <pt x="86" y="257" on="0"/>
      </contour>
    </TTGlyph>
    <TTGlyph name="approxequal" xMin="53" yMin="250" xMax="116" yMax="314">
      <contour>
        <pt x="116" y="268" on="0"/>
        <pt x="97" y="250" on="0"/>
        <pt x="72" y="250" on="0"/>
        <pt x="53" y="268" on="0"/>
        <pt x="53" y="295" on="0"/>
        <pt x="73" y="314" on="0"/>
        <pt x="97" y="314" on="0"/>
        <pt x="116" y="295" on="0"/>
      </contour>
    </TTGlyph>
    <TTGlyph name="aring" xMin="49" yMin="-9" xMax="444" yMax="608">
      <contour>
        <pt x="183" y="514" on="0"/>
        <pt x="183" y="568" on="0"/>
        <pt x="223" y="608" on="0"/>
        <pt x="277" y="608" on="0"/>
        <pt x="317" y="568" on="0"/>
        <pt x="317" y="514" on="0"/>
        <pt x="277" y="474" on="0"/>
        <pt x="223" y="474" on="0"/>
      </contour>
      <contour>
        <pt x="211" y="558" on="0"/>
        <pt x="211" y="524" on="0"/>
        <pt x="233" y="502" on="0"/>
        <pt x="267" y="502" on="0"/>
        <pt x="289" y="524" on="0"/>
        <pt x="289" y="558" on="0"/>
        <pt x="267" y="580" on="0"/>
        <pt x="233" y="580" on="0"/>
      </contour>
      <contour>
        <pt x="444" y="0" on="1"/>
        <pt x="407" y="0" on="1"/>
        <pt x="407" y="60" on="1"/>
        <pt x="410" y="105" on="1"/>
        <pt x="389" y="54" on="0"/>
        <pt x="301" y="-9" on="0"/>
        <pt x="244" y="-9" on="1"/>
        <pt x="163" y="-9" on="0"/>
        <pt x="49" y="106" on="0"/>
        <pt x="49" y="267" on="0"/>
        <pt x="163" y="382" on="0"/>
        <pt x="244" y="382" on="1"/>
        <pt x="302" y="382" on="0"/>
        <pt x="386" y="322" on="0"/>
        <pt x="407" y="272" on="1"/>
        <pt x="412" y="375" on="1"/>
        <pt x="444" y="375" on="1"/>
      </contour>
      <contour>
        <pt x="86" y="118" on="0"/>
        <pt x="175" y="24" on="0"/>
        <pt x="314" y="24" on="0"/>
        <pt x="403" y="118" on="0"/>
        <pt x="403" y="257" on="0"/>
        <pt x="314" y="349" on="0"/>
        <pt x="175" y="349" on="0"/>
        <pt x="86" y="257" on="0"/>
      </contour>
    </TTGlyph>
    <TTGlyph name="asciicircum" xMin="112" yMin="479" xMax="352" yMax="660">
      <contour>
        <pt x="232" y="660" on="1"/>
        <pt x="352" y="479" on="1"/>
        <pt x="319" y="479" on="1"/>
        <pt x="232" y="601" on="1"/>
        <pt x="145" y="479" on="1"/>
        <pt x="112" y="479" on="1"/>
      </contour>
    </TTGlyph>
    <TTGlyph name="asciitilde" xMin="130" yMin="454" xMax="373" yMax="539">
      <contour>
        <pt x="371" y="490" on="0"/>
        <pt x="331" y="454" on="0"/>
        <pt x="274" y="454" on="0"/>
        <pt x="216" y="511" on="0"/>
        <pt x="201" y="511" on="1"/>
        <pt x="163" y="511" on="0"/>
        <pt x="158" y="464" on="1"/>
        <pt x="130" y="467" on="1"/>
        <pt x="132" y="503" on="0"/>
        <pt x="172" y="539" on="0"/>
        <pt x="226" y="539" on="0"/>
        <pt x="287" y="482" on="0"/>
        <pt x="302" y="482" on="1"/>
        <pt x="340" y="482" on="0"/>
        <pt x="345" y="529" on="1"/>
        <pt x="373" y="526" on="1"/>
      </contour>
    </TTGlyph>
    <TTGlyph name="asterisk" xMin="34" yMin="434" xMax="300" yMax="720">
      <contour>
        <pt x="282" y="489" on="1"/>
        <pt x="183" y="545" on="1"/>
        <pt x="182" y="434" on="1"/>
        <pt x="149" y="434" on="1"/>
        <pt x="149" y="545" on="1"/>
        <pt x="53" y="490" on="1"/>
        <pt x="34" y="523" on="1"/>
        <pt x="130" y="576" on="1"/>
        <pt x="34" y="632" on="1"/>
        <pt x="53" y="665" on="1"/>
        <pt x="149" y="607" on="1"/>
        <pt x="149" y="720" on="1"/>
        <pt x="186" y="720" on="1"/>
        <pt x="184" y="607" on="1"/>
        <pt x="284" y="662" on="1"/>
        <pt x="300" y="633" on="1"/>
        <pt x="201" y="576" on="1"/>
        <pt x="299" y="518" on="1"/>
      </contour>
    </TTGlyph>
    <TTGlyph name="at" xMin="89" yMin="-211" xMax="889" yMax="589">
      <contour>
        <pt x="851" y="188" on="1"/>
        <pt x="851" y="339" on="0"/>
        <pt x="639" y="551" on="0"/>
        <pt x="339" y="551" on="0"/>
        <pt x="128" y="339" on="0"/>
        <pt x="128" y="38" on="0"/>
        <pt x="339" y="-173" on="0"/>
        <pt x="489" y="-173" on="1"/>
        <pt x="603" y="-173" on="0"/>
        <pt x="698" y="-107" on="1"/>
        <pt x="722" y="-136" on="1"/>
        <pt x="617" y="-211" on="0"/>
        <pt x="489" y="-211" on="1"/>
        <pt x="323" y="-211" on="0"/>
        <pt x="89" y="23" on="0"/>
        <pt x="89" y="355" on="0"/>
        <pt x="323" y="589" on="0"/>
        <pt x="655" y="589" on="0"/>
        <pt x="889" y="354" on="0"/>
        <pt x="889" y="188" on="1"/>
        <pt x="886" y="90" on="0"/>
        <pt x="803" y="0" on="0"/>
        <pt x="743" y="0" on="1"/>
        <pt x="696" y="0" on="1"/>
        <pt x="669" y="0" on="0"/>
        <pt x="649" y="28" on="0"/>
        <pt x="648" y="60" on="1"/>
        <pt x="651" y="105" on="1"/>
        <pt x="630" y="54" on="0"/>
        <pt x="542" y="-9" on="0"/>
        <pt x="485" y="-9" on="1"/>
        <pt x="404" y="-9" on="0"/>
        <pt x="290" y="106" on="0"/>
        <pt x="290" y="267" on="0"/>
        <pt x="404" y="382" on="0"/>
        <pt x="485" y="382" on="1"/>
        <pt x="543" y="382" on="0"/>
        <pt x="627" y="322" on="0"/>
        <pt x="648" y="272" on="1"/>
        <pt x="653" y="375" on="1"/>
        <pt x="685" y="375" on="1"/>
        <pt x="685" y="64" on="1"/>
        <pt x="685" y="46" on="0"/>
        <pt x="693" y="34" on="0"/>
        <pt x="708" y="34" on="1"/>
        <pt x="743" y="34" on="1"/>
        <pt x="788" y="34" on="0"/>
        <pt x="848" y="107" on="0"/>
      </contour>
      <contour>
        <pt x="327" y="118" on="0"/>
        <pt x="416" y="24" on="0"/>
        <pt x="555" y="24" on="0"/>
        <pt x="644" y="118" on="0"/>
        <pt x="644" y="257" on="0"/>
        <pt x="555" y="349" on="0"/>
        <pt x="416" y="349" on="0"/>
        <pt x="327" y="257" on="0"/>
      </contour>
    </TTGlyph>
    <TTGlyph name="atilde" xMin="49" yMin="-9" xMax="444" yMax="544">
      <contour>
        <pt x="365" y="495" on="0"/>
        <pt x="325" y="459" on="0"/>
        <pt x="268" y="459" on="0"/>
        <pt x="210" y="516" on="0"/>
        <pt x="195" y="516" on="1"/>
        <pt x="157" y="516" on="0"/>
        <pt x="152" y="469" on="1"/>
        <pt x="124" y="472" on="1"/>
        <pt x="126" y="508" on="0"/>
        <pt x="166" y="544" on="0"/>
        <pt x="220" y="544" on="0"/>
        <pt x="281" y="487" on="0"/>
        <pt x="296" y="487" on="1"/>
        <pt x="334" y="487" on="0"/>
        <pt x="339" y="534" on="1"/>
        <pt x="367" y="531" on="1"/>
      </contour>
      <contour>
        <pt x="444" y="0" on="1"/>
        <pt x="407" y="0" on="1"/>
        <pt x="407" y="60" on="1"/>
        <pt x="410" y="105" on="1"/>
        <pt x="389" y="54" on="0"/>
        <pt x="301" y="-9" on="0"/>
        <pt x="244" y="-9" on="1"/>
        <pt x="163" y="-9" on="0"/>
        <pt x="49" y="106" on="0"/>
        <pt x="49" y="267" on="0"/>
        <pt x="163" y="382" on="0"/>
        <pt x="244" y="382" on="1"/>
        <pt x="302" y="382" on="0"/>
        <pt x="386" y="322" on="0"/>
        <pt x="407" y="272" on="1"/>
        <pt x="412" y="375" on="1"/>
        <pt x="444" y="375" on="1"/>
      </contour>
      <contour>
        <pt x="86" y="118" on="0"/>
        <pt x="175" y="24" on="0"/>
        <pt x="314" y="24" on="0"/>
        <pt x="403" y="118" on="0"/>
        <pt x="403" y="257" on="0"/>
        <pt x="314" y="349" on="0"/>
        <pt x="175" y="349" on="0"/>
        <pt x="86" y="257" on="0"/>
      </contour>
    </TTGlyph>
    <TTGlyph name="b" xMin="100" yMin="-9" xMax="495" yMax="750">
      <contour>
        <pt x="100" y="0" on="1"/>
        <pt x="100" y="750" on="1"/>
        <pt x="137" y="750" on="1"/>
        <pt x="137" y="272" on="1"/>
        <pt x="158" y="322" on="0"/>
        <pt x="242" y="382" on="0"/>
        <pt x="300" y="382" on="1"/>
        <pt x="381" y="382" on="0"/>
        <pt x="495" y="267" on="0"/>
        <pt x="495" y="106" on="0"/>
        <pt x="381" y="-9" on="0"/>
        <pt x="300" y="-9" on="1"/>
        <pt x="243" y="-9" on="0"/>
        <pt x="155" y="54" on="0"/>
        <pt x="134" y="105" on="1"/>
        <pt x="137" y="60" on="1"/>
        <pt x="137" y="0" on="1"/>
      </contour>
      <contour>
        <pt x="141" y="118" on="0"/>
        <pt x="230" y="24" on="0"/>
        <pt x="369" y="24" on="0"/>
        <pt x="458" y="118" on="0"/>
        <pt x="458" y="257" on="0"/>
        <pt x="369" y="349" on="0"/>
        <pt x="230" y="349" on="0"/>
        <pt x="141" y="257" on="0"/>
      </contour>
    </TTGlyph>
    <TTGlyph name="backslash" xMin="0" yMin="-19" xMax="313" yMax="736">
      <contour>
        <pt x="35" y="736" on="1"/>
        <pt x="313" y="-19" on="1"/>
        <pt x="278" y="-19" on="1"/>
        <pt x="0" y="736" on="1"/>
      </contour>
    </TTGlyph>
    <TTGlyph name="bar" xMin="91" yMin="-232" xMax="128" yMax="700">
      <contour>
        <pt x="91" y="-232" on="1"/>
        <pt x="91" y="700" on="1"/>
        <pt x="128" y="700" on="1"/>
        <pt x="128" y="-232" on="1"/>
      </contour>
    </TTGlyph>
    <TTGlyph name="braceleft" xMin="30" yMin="-149" xMax="242" yMax="746">
      <contour>
        <pt x="30" y="282" on="1"/>
        <pt x="30" y="315" on="1"/>
        <pt x="60" y="316" on="0"/>
        <pt x="98" y="364" on="0"/>
        <pt x="109" y="418" on="0"/>
        <pt x="109" y="450" on="1"/>
        <pt x="109" y="628" on="1"/>
        <pt x="109" y="698" on="0"/>
        <pt x="153" y="746" on="0"/>
        <pt x="195" y="746" on="1"/>
        <pt x="242" y="746" on="1"/>
        <pt x="242" y="713" on="1"/>
        <pt x="198" y="713" on="1"/>
        <pt x="167" y="713" on="0"/>
        <pt x="146" y="674" on="0"/>
        <pt x="146" y="610" on="1"/>
        <pt x="146" y="433" on="1"/>
        <pt x="146" y="340" on="0"/>
        <pt x="81" y="298" on="1"/>
        <pt x="146" y="256" on="0"/>
        <pt x="146" y="164" on="1"/>
        <pt x="146" y="-13" on="1"/>
        <pt x="146" y="-77" on="0"/>
        <pt x="167" y="-116" on="0"/>
        <pt x="198" y="-116" on="1"/>
        <pt x="242" y="-116" on="1"/>
        <pt x="242" y="-149" on="1"/>
        <pt x="195" y="-149" on="1"/>
        <pt x="153" y="-149" on="0"/>
        <pt x="109" y="-101" on="0"/>
        <pt x="109" y="-31" on="1"/>
        <pt x="109" y="147" on="1"/>
        <pt x="109" y="179" on="0"/>
        <pt x="98" y="233" on="0"/>
        <pt x="60" y="281" on="0"/>
      </contour>
    </TTGlyph>
    <TTGlyph name="braceright" xMin="30" yMin="-149" xMax="242" yMax="746">
      <contour>
        <pt x="242" y="315" on="1"/>
        <pt x="242" y="282" on="1"/>
        <pt x="212" y="281" on="0"/>
        <pt x="174" y="233" on="0"/>
        <pt x="163" y="179" on="0"/>
        <pt x="163" y="147" on="1"/>
        <pt x="163" y="-31" on="1"/>
        <pt x="163" y="-101" on="0"/>
        <pt x="119" y="-149" on="0"/>
        <pt x="77" y="-149" on="1"/>
        <pt x="30" y="-149" on="1"/>
        <pt x="30" y="-116" on="1"/>
        <pt x="74" y="-116" on="1"/>
        <pt x="105" y="-116" on="0"/>
        <pt x="126" y="-77" on="0"/>
        <pt x="126" y="-13" on="1"/>
        <pt x="126" y="164" on="1"/>
        <pt x="126" y="256" on="0"/>
        <pt x="191" y="298" on="1"/>
        <pt x="126" y="340" on="0"/>
        <pt x="126" y="433" on="1"/>
        <pt x="126" y="610" on="1"/>
        <pt x="126" y="674" on="0"/>
        <pt x="105" y="713" on="0"/>
        <pt x="74" y="713" on="1"/>
        <pt x="30" y="713" on="1"/>
        <pt x="30" y="746" on="1"/>
        <pt x="77" y="746" on="1"/>
        <pt x="119" y="746" on="0"/>
        <pt x="163" y="698" on="0"/>
        <pt x="163" y="628" on="1"/>
        <pt x="163" y="450" on="1"/>
        <pt x="163" y="418" on="0"/>
        <pt x="174" y="364" on="0"/>
        <pt x="212" y="316" on="0"/>
      </contour>
    </TTGlyph>
    <TTGlyph name="bracketleft" xMin="83" yMin="-149" xMax="251" yMax="746">
      <contour>
        <pt x="83" y="-149" on="1"/>
        <pt x="83" y="746" on="1"/>
        <pt x="251" y="746" on="1"/>
        <pt x="251" y="713" on="1"/>
        <pt x="120" y="713" on="1"/>
        <pt x="120" y="-116" on="1"/>
        <pt x="251" y="-116" on="1"/>
        <pt x="251" y="-149" on="1"/>
      </contour>
    </TTGlyph>
    <TTGlyph name="bracketright" xMin="83" yMin="-149" xMax="251" yMax="746">
      <contour>
        <pt x="251" y="746" on="1"/>
        <pt x="251" y="-149" on="1"/>
        <pt x="83" y="-149" on="1"/>
        <pt x="83" y="-116" on="1"/>
        <pt x="214" y="-116" on="1"/>
        <pt x="214" y="713" on="1"/>
        <pt x="83" y="713" on="1"/>
        <pt x="83" y="746" on="1"/>
      </contour>
    </TTGlyph>
    <TTGlyph name="breve" xMin="100" yMin="500" xMax="424" yMax="657">
      <contour>
        <pt x="329" y="500" on="0"/>
        <pt x="197" y="500" on="0"/>
        <pt x="101" y="591" on="0"/>
        <pt x="100" y="657" on="1"/>
        <pt x="133" y="657" on="1"/>
        <pt x="134" y="601" on="0"/>
        <pt x="207" y="532" on="0"/>
        <pt x="320" y="532" on="0"/>
        <pt x="391" y="600" on="0"/>
        <pt x="392" y="657" on="1"/>
        <pt x="424" y="657" on="1"/>
        <pt x="424" y="591" on="0"/>
      </contour>
    </TTGlyph>
    <TTGlyph name="brokenbar" xMin="91" yMin="-233" xMax="128" yMax="700">
      <contour>
        <pt x="128" y="350" on="1"/>
        <pt x="91" y="350" on="1"/>
        <pt x="91" y="700" on="1"/>
        <pt x="128" y="700" on="1"/>
      </contour>
      <contour>
        <pt x="128" y="-233" on="1"/>
        <pt x="91" y="-233" on="1"/>
        <pt x="91" y="117" on="1"/>
        <pt x="128" y="117" on="1"/>
      </contour>
    </TTGlyph>
    <TTGlyph name="bullet" xMin="143" yMin="204" xMax="336" yMax="397">
      <contour>
        <pt x="198" y="204" on="0"/>
        <pt x="143" y="260" on="0"/>
        <pt x="143" y="341" on="0"/>
        <pt x="199" y="397" on="0"/>
        <pt x="280" y="397" on="0"/>
        <pt x="336" y="340" on="0"/>
        <pt x="336" y="260" on="0"/>
        <pt x="280" y="204" on="0"/>
      </contour>
    </TTGlyph>
    <TTGlyph name="c" xMin="28" yMin="-8" xMax="353" yMax="382">
      <contour>
        <pt x="28" y="107" on="0"/>
        <pt x="28" y="267" on="0"/>
        <pt x="142" y="382" on="0"/>
        <pt x="298" y="382" on="0"/>
        <pt x="353" y="332" on="1"/>
        <pt x="333" y="307" on="1"/>
        <pt x="288" y="349" on="0"/>
        <pt x="154" y="349" on="0"/>
        <pt x="65" y="257" on="0"/>
        <pt x="65" y="117" on="0"/>
        <pt x="154" y="25" on="0"/>
        <pt x="288" y="25" on="0"/>
        <pt x="333" y="67" on="1"/>
        <pt x="353" y="42" on="1"/>
        <pt x="298" y="-8" on="0"/>
        <pt x="142" y="-8" on="0"/>
      </contour>
    </TTGlyph>
    <TTGlyph name="cacute" xMin="28" yMin="-8" xMax="353" yMax="612">
      <contour>
        <pt x="28" y="107" on="0"/>
        <pt x="28" y="267" on="0"/>
        <pt x="142" y="382" on="0"/>
        <pt x="298" y="382" on="0"/>
        <pt x="353" y="332" on="1"/>
        <pt x="333" y="307" on="1"/>
        <pt x="288" y="349" on="0"/>
        <pt x="154" y="349" on="0"/>
        <pt x="65" y="257" on="0"/>
        <pt x="65" y="117" on="0"/>
        <pt x="154" y="25" on="0"/>
        <pt x="288" y="25" on="0"/>
        <pt x="333" y="67" on="1"/>
        <pt x="353" y="42" on="1"/>
        <pt x="298" y="-8" on="0"/>
        <pt x="142" y="-8" on="0"/>
      </contour>
      <contour>
        <pt x="214" y="479" on="1"/>
        <pt x="304" y="612" on="1"/>
        <pt x="341" y="612" on="1"/>
        <pt x="247" y="479" on="1"/>
      </contour>
    </TTGlyph>
    <TTGlyph name="caron" xMin="44" yMin="500" xMax="284" yMax="681">
      <contour>
        <pt x="284" y="681" on="1"/>
        <pt x="164" y="500" on="1"/>
        <pt x="44" y="681" on="1"/>
        <pt x="77" y="681" on="1"/>
        <pt x="164" y="559" on="1"/>
        <pt x="251" y="681" on="1"/>
      </contour>
    </TTGlyph>
    <TTGlyph name="ccaron" xMin="28" yMin="-8" xMax="353" yMax="681">
      <contour>
        <pt x="28" y="107" on="0"/>
        <pt x="28" y="267" on="0"/>
        <pt x="142" y="382" on="0"/>
        <pt x="298" y="382" on="0"/>
        <pt x="353" y="332" on="1"/>
        <pt x="333" y="307" on="1"/>
        <pt x="288" y="349" on="0"/>
        <pt x="154" y="349" on="0"/>
        <pt x="65" y="257" on="0"/>
        <pt x="65" y="117" on="0"/>
        <pt x="154" y="25" on="0"/>
        <pt x="288" y="25" on="0"/>
        <pt x="333" y="67" on="1"/>
        <pt x="353" y="42" on="1"/>
        <pt x="298" y="-8" on="0"/>
        <pt x="142" y="-8" on="0"/>
      </contour>
      <contour>
        <pt x="343" y="681" on="1"/>
        <pt x="223" y="500" on="1"/>
        <pt x="103" y="681" on="1"/>
        <pt x="136" y="681" on="1"/>
        <pt x="223" y="559" on="1"/>
        <pt x="310" y="681" on="1"/>
      </contour>
    </TTGlyph>
    <TTGlyph name="ccedilla" xMin="28" yMin="-241" xMax="353" yMax="382">
      <contour>
        <pt x="122" y="6" on="0"/>
        <pt x="28" y="115" on="0"/>
        <pt x="28" y="267" on="0"/>
        <pt x="142" y="382" on="0"/>
        <pt x="298" y="382" on="0"/>
        <pt x="353" y="332" on="1"/>
        <pt x="333" y="307" on="1"/>
        <pt x="288" y="349" on="0"/>
        <pt x="154" y="349" on="0"/>
        <pt x="65" y="257" on="0"/>
        <pt x="65" y="117" on="0"/>
        <pt x="154" y="25" on="0"/>
        <pt x="288" y="25" on="0"/>
        <pt x="333" y="67" on="1"/>
        <pt x="353" y="42" on="1"/>
        <pt x="301" y="-5" on="0"/>
        <pt x="230" y="-8" on="1"/>
        <pt x="230" y="-33" on="0"/>
        <pt x="244" y="-42" on="1"/>
        <pt x="249" y="-46" on="0"/>
        <pt x="258" y="-51" on="1"/>
        <pt x="307" y="-78" on="0"/>
        <pt x="307" y="-137" on="1"/>
        <pt x="307" y="-180" on="0"/>
        <pt x="254" y="-241" on="0"/>
        <pt x="213" y="-241" on="1"/>
        <pt x="131" y="-241" on="0"/>
        <pt x="106" y="-169" on="1"/>
        <pt x="140" y="-161" on="1"/>
        <pt x="146" y="-182" on="0"/>
        <pt x="182" y="-209" on="0"/>
        <pt x="237" y="-209" on="0"/>
        <pt x="276" y="-168" on="0"/>
        <pt x="276" y="-105" on="0"/>
        <pt x="251" y="-81" on="1"/>
        <pt x="244" y="-76" on="0"/>
        <pt x="217" y="-59" on="0"/>
        <pt x="210" y="-54" on="1"/>
        <pt x="193" y="-41" on="0"/>
        <pt x="193" y="-16" on="1"/>
        <pt x="193" y="-5" on="1"/>
      </contour>
    </TTGlyph>
    <TTGlyph name="ccircumflex" xMin="28" yMin="-8" xMax="353" yMax="660">
      <contour>
        <pt x="28" y="107" on="0"/>
        <pt x="28" y="267" on="0"/>
        <pt x="142" y="382" on="0"/>
        <pt x="298" y="382" on="0"/>
        <pt x="353" y="332" on="1"/>
        <pt x="333" y="307" on="1"/>
        <pt x="288" y="349" on="0"/>
        <pt x="154" y="349" on="0"/>
        <pt x="65" y="257" on="0"/>
        <pt x="65" y="117" on="0"/>
        <pt x="154" y="25" on="0"/>
        <pt x="288" y="25" on="0"/>
        <pt x="333" y="67" on="1"/>
        <pt x="353" y="42" on="1"/>
        <pt x="298" y="-8" on="0"/>
        <pt x="142" y="-8" on="0"/>
      </contour>
      <contour>
        <pt x="226" y="660" on="1"/>
        <pt x="346" y="479" on="1"/>
        <pt x="313" y="479" on="1"/>
        <pt x="226" y="601" on="1"/>
        <pt x="139" y="479" on="1"/>
        <pt x="106" y="479" on="1"/>
      </contour>
    </TTGlyph>
    <TTGlyph name="cdotaccent" xMin="28" yMin="-8" xMax="353" yMax="553">
      <contour>
        <pt x="253" y="507" on="0"/>
        <pt x="234" y="489" on="0"/>
        <pt x="209" y="489" on="0"/>
        <pt x="190" y="507" on="0"/>
        <pt x="190" y="534" on="0"/>
        <pt x="210" y="553" on="0"/>
        <pt x="234" y="553" on="0"/>
        <pt x="253" y="534" on="0"/>
      </contour>
      <contour>
        <pt x="28" y="107" on="0"/>
        <pt x="28" y="267" on="0"/>
        <pt x="142" y="382" on="0"/>
        <pt x="298" y="382" on="0"/>
        <pt x="353" y="332" on="1"/>
        <pt x="333" y="307" on="1"/>
        <pt x="288" y="349" on="0"/>
        <pt x="154" y="349" on="0"/>
        <pt x="65" y="257" on="0"/>
        <pt x="65" y="117" on="0"/>
        <pt x="154" y="25" on="0"/>
        <pt x="288" y="25" on="0"/>
        <pt x="333" y="67" on="1"/>
        <pt x="353" y="42" on="1"/>
        <pt x="298" y="-8" on="0"/>
        <pt x="142" y="-8" on="0"/>
      </contour>
    </TTGlyph>
    <TTGlyph name="cedilla" xMin="106" yMin="-241" xMax="307" yMax="0">
      <contour>
        <pt x="193" y="0" on="1"/>
        <pt x="230" y="0" on="1"/>
        <pt x="230" y="-7" on="1"/>
        <pt x="230" y="-31" on="0"/>
        <pt x="244" y="-42" on="1"/>
        <pt x="249" y="-46" on="0"/>
        <pt x="258" y="-51" on="1"/>
        <pt x="307" y="-78" on="0"/>
        <pt x="307" y="-137" on="1"/>
        <pt x="307" y="-180" on="0"/>
        <pt x="254" y="-241" on="0"/>
        <pt x="213" y="-241" on="1"/>
        <pt x="131" y="-241" on="0"/>
        <pt x="106" y="-169" on="1"/>
        <pt x="140" y="-161" on="1"/>
        <pt x="146" y="-182" on="0"/>
        <pt x="182" y="-209" on="0"/>
        <pt x="237" y="-209" on="0"/>
        <pt x="276" y="-168" on="0"/>
        <pt x="276" y="-105" on="0"/>
        <pt x="251" y="-81" on="1"/>
        <pt x="244" y="-76" on="0"/>
        <pt x="217" y="-59" on="0"/>
        <pt x="210" y="-54" on="1"/>
        <pt x="193" y="-41" on="0"/>
        <pt x="193" y="-16" on="1"/>
      </contour>
    </TTGlyph>
    <TTGlyph name="cent" xMin="28" yMin="-67" xMax="353" yMax="438">
      <contour>
        <pt x="193" y="-67" on="1"/>
        <pt x="193" y="-5" on="1"/>
        <pt x="122" y="6" on="0"/>
        <pt x="28" y="115" on="0"/>
        <pt x="28" y="259" on="0"/>
        <pt x="122" y="368" on="0"/>
        <pt x="193" y="379" on="1"/>
        <pt x="193" y="438" on="1"/>
        <pt x="230" y="438" on="1"/>
        <pt x="230" y="382" on="1"/>
        <pt x="299" y="379" on="0"/>
        <pt x="353" y="332" on="1"/>
        <pt x="333" y="307" on="1"/>
        <pt x="289" y="346" on="0"/>
        <pt x="230" y="349" on="1"/>
        <pt x="230" y="25" on="1"/>
        <pt x="289" y="26" on="0"/>
        <pt x="333" y="67" on="1"/>
        <pt x="353" y="42" on="1"/>
        <pt x="301" y="-5" on="0"/>
        <pt x="230" y="-8" on="1"/>
        <pt x="230" y="-67" on="1"/>
      </contour>
      <contour>
        <pt x="65" y="249" on="0"/>
        <pt x="65" y="125" on="0"/>
        <pt x="135" y="37" on="0"/>
        <pt x="193" y="27" on="1"/>
        <pt x="193" y="346" on="1"/>
        <pt x="135" y="336" on="0"/>
      </contour>
    </TTGlyph>
    <TTGlyph name="circumflex" xMin="67" yMin="479" xMax="307" yMax="660">
      <contour>
        <pt x="187" y="660" on="1"/>
        <pt x="307" y="479" on="1"/>
        <pt x="274" y="479" on="1"/>
        <pt x="187" y="601" on="1"/>
        <pt x="100" y="479" on="1"/>
        <pt x="67" y="479" on="1"/>
      </contour>
    </TTGlyph>
    <TTGlyph name="colon" xMin="53" yMin="-1" xMax="116" yMax="314">
      <contour>
        <pt x="116" y="17" on="0"/>
        <pt x="97" y="-1" on="0"/>
        <pt x="72" y="-1" on="0"/>
        <pt x="53" y="17" on="0"/>
        <pt x="53" y="44" on="0"/>
        <pt x="73" y="63" on="0"/>
        <pt x="97" y="63" on="0"/>
        <pt x="116" y="44" on="0"/>
      </contour>
      <contour>
        <pt x="116" y="268" on="0"/>
        <pt x="97" y="250" on="0"/>
        <pt x="72" y="250" on="0"/>
        <pt x="53" y="268" on="0"/>
        <pt x="53" y="295" on="0"/>
        <pt x="73" y="314" on="0"/>
        <pt x="97" y="314" on="0"/>
        <pt x="116" y="295" on="0"/>
      </contour>
    </TTGlyph>
    <TTGlyph name="comma" xMin="23" yMin="-120" xMax="140" yMax="86">
      <contour>
        <pt x="140" y="86" on="1"/>
        <pt x="54" y="-120" on="1"/>
        <pt x="23" y="-120" on="1"/>
        <pt x="100" y="86" on="1"/>
      </contour>
    </TTGlyph>
    <TTGlyph name="copyright" xMin="144" yMin="115" xMax="656" yMax="626">
      <contour>
        <pt x="244" y="307" on="0"/>
        <pt x="244" y="441" on="0"/>
        <pt x="340" y="537" on="0"/>
        <pt x="469" y="537" on="0"/>
        <pt x="516" y="495" on="1"/>
        <pt x="496" y="472" on="1"/>
        <pt x="456" y="504" on="0"/>
        <pt x="350" y="504" on="0"/>
        <pt x="279" y="431" on="0"/>
        <pt x="279" y="317" on="0"/>
        <pt x="350" y="245" on="0"/>
        <pt x="462" y="245" on="0"/>
        <pt x="496" y="278" on="1"/>
        <pt x="516" y="254" on="1"/>
        <pt x="470" y="213" on="0"/>
        <pt x="340" y="213" on="0"/>
      </contour>
      <contour>
        <pt x="506" y="115" on="0"/>
        <pt x="294" y="115" on="0"/>
        <pt x="144" y="262" on="0"/>
        <pt x="144" y="480" on="0"/>
        <pt x="294" y="626" on="0"/>
        <pt x="506" y="626" on="0"/>
        <pt x="656" y="480" on="0"/>
        <pt x="656" y="262" on="0"/>
      </contour>
      <contour>
        <pt x="305" y="146" on="0"/>
        <pt x="495" y="146" on="0"/>
        <pt x="623" y="274" on="0"/>
        <pt x="623" y="467" on="0"/>
        <pt x="495" y="595" on="0"/>
        <pt x="305" y="595" on="0"/>
        <pt x="177" y="467" on="0"/>
        <pt x="177" y="274" on="0"/>
      </contour>
    </TTGlyph>
    <TTGlyph name="currency" xMin="106" yMin="221" xMax="387" yMax="502">
      <contour>
        <pt x="110" y="314" on="0"/>
        <pt x="110" y="408" on="0"/>
        <pt x="139" y="445" on="1"/>
        <pt x="106" y="479" on="1"/>
        <pt x="129" y="502" on="1"/>
        <pt x="162" y="468" on="1"/>
        <pt x="200" y="498" on="0"/>
        <pt x="293" y="498" on="0"/>
        <pt x="330" y="469" on="1"/>
        <pt x="363" y="502" on="1"/>
        <pt x="386" y="479" on="1"/>
        <pt x="354" y="447" on="1"/>
        <pt x="384" y="409" on="0"/>
        <pt x="384" y="314" on="0"/>
        <pt x="354" y="276" on="1"/>
        <pt x="387" y="244" on="1"/>
        <pt x="364" y="221" on="1"/>
        <pt x="331" y="253" on="1"/>
        <pt x="294" y="224" on="0"/>
        <pt x="200" y="224" on="0"/>
        <pt x="161" y="253" on="1"/>
        <pt x="129" y="221" on="1"/>
        <pt x="106" y="244" on="1"/>
        <pt x="139" y="277" on="1"/>
      </contour>
      <contour>
        <pt x="207" y="459" on="0"/>
        <pt x="150" y="401" on="0"/>
        <pt x="150" y="320" on="0"/>
        <pt x="208" y="262" on="0"/>
        <pt x="289" y="262" on="0"/>
        <pt x="347" y="319" on="0"/>
        <pt x="347" y="401" on="0"/>
        <pt x="289" y="459" on="0"/>
      </contour>
    </TTGlyph>
    <TTGlyph name="d" xMin="49" yMin="-9" xMax="444" yMax="750">
      <contour>
        <pt x="444" y="0" on="1"/>
        <pt x="407" y="0" on="1"/>
        <pt x="407" y="60" on="1"/>
        <pt x="410" y="105" on="1"/>
        <pt x="389" y="54" on="0"/>
        <pt x="301" y="-9" on="0"/>
        <pt x="244" y="-9" on="1"/>
        <pt x="163" y="-9" on="0"/>
        <pt x="49" y="106" on="0"/>
        <pt x="49" y="267" on="0"/>
        <pt x="163" y="382" on="0"/>
        <pt x="244" y="382" on="1"/>
        <pt x="302" y="382" on="0"/>
        <pt x="386" y="322" on="0"/>
        <pt x="407" y="272" on="1"/>
        <pt x="407" y="750" on="1"/>
        <pt x="444" y="750" on="1"/>
      </contour>
      <contour>
        <pt x="86" y="118" on="0"/>
        <pt x="175" y="24" on="0"/>
        <pt x="314" y="24" on="0"/>
        <pt x="403" y="118" on="0"/>
        <pt x="403" y="257" on="0"/>
        <pt x="314" y="349" on="0"/>
        <pt x="175" y="349" on="0"/>
        <pt x="86" y="257" on="0"/>
      </contour>
    </TTGlyph>
    <TTGlyph name="dagger" xMin="-1" yMin="100" xMax="301" yMax="638">
      <contour>
        <pt x="-1" y="482" on="1"/>
        <pt x="-1" y="515" on="1"/>
        <pt x="131" y="515" on="1"/>
        <pt x="131" y="638" on="1"/>
        <pt x="168" y="638" on="1"/>
        <pt x="168" y="515" on="1"/>
        <pt x="301" y="515" on="1"/>
        <pt x="301" y="482" on="1"/>
        <pt x="168" y="482" on="1"/>
        <pt x="168" y="100" on="1"/>
        <pt x="131" y="100" on="1"/>
        <pt x="131" y="482" on="1"/>
      </contour>
    </TTGlyph>
    <TTGlyph name="daggerdbl" xMin="-1" yMin="100" xMax="301" yMax="638">
      <contour>
        <pt x="-1" y="482" on="1"/>
        <pt x="-1" y="515" on="1"/>
        <pt x="131" y="515" on="1"/>
        <pt x="131" y="638" on="1"/>
        <pt x="168" y="638" on="1"/>
        <pt x="168" y="515" on="1"/>
        <pt x="301" y="515" on="1"/>
        <pt x="301" y="482" on="1"/>
        <pt x="168" y="482" on="1"/>
        <pt x="168" y="404" on="1"/>
        <pt x="301" y="404" on="1"/>
        <pt x="301" y="371" on="1"/>
        <pt x="168" y="371" on="1"/>
        <pt x="168" y="100" on="1"/>
        <pt x="131" y="100" on="1"/>
        <pt x="131" y="371" on="1"/>
        <pt x="-1" y="371" on="1"/>
        <pt x="-1" y="404" on="1"/>
        <pt x="131" y="404" on="1"/>
        <pt x="131" y="482" on="1"/>
      </contour>
    </TTGlyph>
    <TTGlyph name="dcaron" xMin="49" yMin="-9" xMax="643" yMax="750">
      <contour>
        <pt x="444" y="0" on="1"/>
        <pt x="407" y="0" on="1"/>
        <pt x="407" y="60" on="1"/>
        <pt x="410" y="105" on="1"/>
        <pt x="389" y="54" on="0"/>
        <pt x="301" y="-9" on="0"/>
        <pt x="244" y="-9" on="1"/>
        <pt x="163" y="-9" on="0"/>
        <pt x="49" y="106" on="0"/>
        <pt x="49" y="267" on="0"/>
        <pt x="163" y="382" on="0"/>
        <pt x="244" y="382" on="1"/>
        <pt x="302" y="382" on="0"/>
        <pt x="386" y="322" on="0"/>
        <pt x="407" y="272" on="1"/>
        <pt x="407" y="750" on="1"/>
        <pt x="444" y="750" on="1"/>
      </contour>
      <contour>
        <pt x="86" y="118" on="0"/>
        <pt x="175" y="24" on="0"/>
        <pt x="314" y="24" on="0"/>
        <pt x="403" y="118" on="0"/>
        <pt x="403" y="257" on="0"/>
        <pt x="314" y="349" on="0"/>
        <pt x="175" y="349" on="0"/>
        <pt x="86" y="257" on="0"/>
      </contour>
      <contour>
        <pt x="599" y="566" on="1"/>
        <pt x="578" y="590" on="1"/>
        <pt x="625" y="635" on="0"/>
        <pt x="611" y="704" on="1"/>
        <pt x="643" y="711" on="1"/>
        <pt x="660" y="627" on="0"/>
      </contour>
    </TTGlyph>
    <TTGlyph name="dcroat" xMin="49" yMin="-9" xMax="518" yMax="750">
      <contour>
        <pt x="518" y="587" on="1"/>
        <pt x="444" y="587" on="1"/>
        <pt x="444" y="0" on="1"/>
        <pt x="407" y="0" on="1"/>
        <pt x="407" y="60" on="1"/>
        <pt x="410" y="105" on="1"/>
        <pt x="389" y="54" on="0"/>
        <pt x="301" y="-9" on="0"/>
        <pt x="244" y="-9" on="1"/>
        <pt x="163" y="-9" on="0"/>
        <pt x="49" y="106" on="0"/>
        <pt x="49" y="267" on="0"/>
        <pt x="163" y="382" on="0"/>
        <pt x="244" y="382" on="1"/>
        <pt x="302" y="382" on="0"/>
        <pt x="386" y="322" on="0"/>
        <pt x="407" y="272" on="1"/>
        <pt x="407" y="587" on="1"/>
        <pt x="334" y="587" on="1"/>
        <pt x="334" y="620" on="1"/>
        <pt x="407" y="620" on="1"/>
        <pt x="407" y="750" on="1"/>
        <pt x="444" y="750" on="1"/>
        <pt x="444" y="620" on="1"/>
        <pt x="518" y="620" on="1"/>
      </contour>
      <contour>
        <pt x="86" y="118" on="0"/>
        <pt x="175" y="24" on="0"/>
        <pt x="314" y="24" on="0"/>
        <pt x="403" y="118" on="0"/>
        <pt x="403" y="257" on="0"/>
        <pt x="314" y="349" on="0"/>
        <pt x="175" y="349" on="0"/>
        <pt x="86" y="257" on="0"/>
      </contour>
    </TTGlyph>
    <TTGlyph name="degree" xMin="57" yMin="480" xMax="218" yMax="640">
      <contour>
        <pt x="218" y="526" on="0"/>
        <pt x="171" y="480" on="0"/>
        <pt x="104" y="480" on="0"/>
        <pt x="57" y="526" on="0"/>
        <pt x="57" y="594" on="0"/>
        <pt x="104" y="640" on="0"/>
        <pt x="171" y="640" on="0"/>
        <pt x="218" y="594" on="0"/>
      </contour>
      <contour>
        <pt x="114" y="504" on="0"/>
        <pt x="162" y="504" on="0"/>
        <pt x="191" y="535" on="0"/>
        <pt x="191" y="585" on="0"/>
        <pt x="163" y="615" on="0"/>
        <pt x="113" y="615" on="0"/>
        <pt x="84" y="585" on="0"/>
        <pt x="84" y="536" on="0"/>
      </contour>
    </TTGlyph>
    <TTGlyph name="dieresis" xMin="70" yMin="489" xMax="298" yMax="553">
      <contour>
        <pt x="133" y="507" on="0"/>
        <pt x="114" y="489" on="0"/>
        <pt x="89" y="489" on="0"/>
        <pt x="70" y="507" on="0"/>
        <pt x="70" y="534" on="0"/>
        <pt x="90" y="553" on="0"/>
        <pt x="114" y="553" on="0"/>
        <pt x="133" y="534" on="0"/>
      </contour>
      <contour>
        <pt x="298" y="507" on="0"/>
        <pt x="279" y="489" on="0"/>
        <pt x="254" y="489" on="0"/>
        <pt x="235" y="507" on="0"/>
        <pt x="235" y="534" on="0"/>
        <pt x="255" y="553" on="0"/>
        <pt x="279" y="553" on="0"/>
        <pt x="298" y="534" on="0"/>
      </contour>
    </TTGlyph>
    <TTGlyph name="divide" xMin="68" yMin="70" xMax="428" yMax="385">
      <contour>
        <pt x="282" y="88" on="0"/>
        <pt x="263" y="70" on="0"/>
        <pt x="238" y="70" on="0"/>
        <pt x="219" y="88" on="0"/>
        <pt x="219" y="115" on="0"/>
        <pt x="239" y="134" on="0"/>
        <pt x="263" y="134" on="0"/>
        <pt x="282" y="115" on="0"/>
      </contour>
      <contour>
        <pt x="282" y="339" on="0"/>
        <pt x="263" y="321" on="0"/>
        <pt x="238" y="321" on="0"/>
        <pt x="219" y="339" on="0"/>
        <pt x="219" y="366" on="0"/>
        <pt x="239" y="385" on="0"/>
        <pt x="263" y="385" on="0"/>
        <pt x="282" y="366" on="0"/>
      </contour>
      <contour>
        <pt x="428" y="215" on="1"/>
        <pt x="68" y="215" on="1"/>
        <pt x="68" y="248" on="1"/>
        <pt x="428" y="248" on="1"/>
      </contour>
    </TTGlyph>
    <TTGlyph name="dollar" xMin="74" yMin="-68" xMax="484" yMax="764">
      <contour>
        <pt x="425" y="644" on="1"/>
        <pt x="402" y="614" on="1"/>
        <pt x="351" y="660" on="0"/>
        <pt x="290" y="667" on="1"/>
        <pt x="290" y="379" on="1"/>
        <pt x="331" y="366" on="0"/>
        <pt x="383" y="343" on="0"/>
        <pt x="416" y="320" on="1"/>
        <pt x="484" y="275" on="0"/>
        <pt x="484" y="104" on="0"/>
        <pt x="373" y="-2" on="0"/>
        <pt x="290" y="-7" on="1"/>
        <pt x="290" y="-68" on="1"/>
        <pt x="253" y="-68" on="1"/>
        <pt x="253" y="-7" on="1"/>
        <pt x="153" y="0" on="0"/>
        <pt x="74" y="83" on="1"/>
        <pt x="100" y="110" on="1"/>
        <pt x="171" y="35" on="0"/>
        <pt x="253" y="28" on="1"/>
        <pt x="253" y="351" on="1"/>
        <pt x="252" y="352" on="1"/>
        <pt x="102" y="397" on="0"/>
        <pt x="96" y="517" on="1"/>
        <pt x="92" y="586" on="0"/>
        <pt x="173" y="697" on="0"/>
        <pt x="253" y="703" on="1"/>
        <pt x="253" y="764" on="1"/>
        <pt x="290" y="764" on="1"/>
        <pt x="290" y="703" on="1"/>
        <pt x="361" y="698" on="0"/>
      </contour>
      <contour>
        <pt x="290" y="340" on="1"/>
        <pt x="290" y="29" on="1"/>
        <pt x="355" y="35" on="0"/>
        <pt x="447" y="119" on="0"/>
        <pt x="447" y="252" on="0"/>
        <pt x="349" y="321" on="0"/>
      </contour>
      <contour>
        <pt x="134" y="581" on="0"/>
        <pt x="134" y="473" on="0"/>
        <pt x="196" y="412" on="0"/>
        <pt x="252" y="392" on="1"/>
        <pt x="252" y="391" on="0"/>
        <pt x="253" y="391" on="1"/>
        <pt x="253" y="667" on="1"/>
        <pt x="196" y="661" on="0"/>
      </contour>
    </TTGlyph>
    <TTGlyph name="dotaccent" xMin="64" yMin="501" xMax="127" yMax="565">
      <contour>
        <pt x="127" y="519" on="0"/>
        <pt x="108" y="501" on="0"/>
        <pt x="83" y="501" on="0"/>
        <pt x="64" y="519" on="0"/>
        <pt x="64" y="546" on="0"/>
        <pt x="84" y="565" on="0"/>
        <pt x="108" y="565" on="0"/>
        <pt x="127" y="546" on="0"/>
      </contour>
    </TTGlyph>
    <TTGlyph name="dotlessi" xMin="101" yMin="0" xMax="138" yMax="375">
      <contour>
        <pt x="138" y="0" on="1"/>
        <pt x="101" y="0" on="1"/>
        <pt x="101" y="375" on="1"/>
        <pt x="138" y="375" on="1"/>
      </contour>
    </TTGlyph>
    <TTGlyph name="e" xMin="39" yMin="-10" xMax="407" yMax="381">
      <contour>
        <pt x="407" y="246" on="1"/>
        <pt x="87" y="122" on="1"/>
        <pt x="105" y="77" on="0"/>
        <pt x="182" y="23" on="0"/>
        <pt x="298" y="23" on="0"/>
        <pt x="342" y="64" on="1"/>
        <pt x="367" y="44" on="1"/>
        <pt x="311" y="-10" on="0"/>
        <pt x="153" y="-10" on="0"/>
        <pt x="39" y="105" on="0"/>
        <pt x="39" y="266" on="0"/>
        <pt x="153" y="381" on="0"/>
        <pt x="234" y="381" on="1"/>
        <pt x="298" y="381" on="0"/>
        <pt x="387" y="307" on="0"/>
      </contour>
      <contour>
        <pt x="76" y="186" on="1"/>
        <pt x="76" y="175" on="0"/>
        <pt x="78" y="155" on="1"/>
        <pt x="364" y="266" on="1"/>
        <pt x="323" y="348" on="0"/>
        <pt x="234" y="348" on="1"/>
        <pt x="165" y="348" on="0"/>
        <pt x="76" y="256" on="0"/>
      </contour>
    </TTGlyph>
    <TTGlyph name="eacute" xMin="39" yMin="-10" xMax="407" yMax="612">
      <contour>
        <pt x="231" y="479" on="1"/>
        <pt x="321" y="612" on="1"/>
        <pt x="358" y="612" on="1"/>
        <pt x="264" y="479" on="1"/>
      </contour>
      <contour>
        <pt x="407" y="246" on="1"/>
        <pt x="87" y="122" on="1"/>
        <pt x="105" y="77" on="0"/>
        <pt x="182" y="23" on="0"/>
        <pt x="298" y="23" on="0"/>
        <pt x="342" y="64" on="1"/>
        <pt x="367" y="44" on="1"/>
        <pt x="311" y="-10" on="0"/>
        <pt x="153" y="-10" on="0"/>
        <pt x="39" y="105" on="0"/>
        <pt x="39" y="266" on="0"/>
        <pt x="153" y="381" on="0"/>
        <pt x="234" y="381" on="1"/>
        <pt x="298" y="381" on="0"/>
        <pt x="387" y="307" on="0"/>
      </contour>
      <contour>
        <pt x="76" y="186" on="1"/>
        <pt x="76" y="175" on="0"/>
        <pt x="78" y="155" on="1"/>
        <pt x="364" y="266" on="1"/>
        <pt x="323" y="348" on="0"/>
        <pt x="234" y="348" on="1"/>
        <pt x="165" y="348" on="0"/>
        <pt x="76" y="256" on="0"/>
      </contour>
    </TTGlyph>
    <TTGlyph name="ebreve" xMin="39" yMin="-10" xMax="407" yMax="617">
      <contour>
        <pt x="407" y="246" on="1"/>
        <pt x="87" y="122" on="1"/>
        <pt x="105" y="77" on="0"/>
        <pt x="182" y="23" on="0"/>
        <pt x="298" y="23" on="0"/>
        <pt x="342" y="64" on="1"/>
        <pt x="367" y="44" on="1"/>
        <pt x="311" y="-10" on="0"/>
        <pt x="153" y="-10" on="0"/>
        <pt x="39" y="105" on="0"/>
        <pt x="39" y="266" on="0"/>
        <pt x="153" y="381" on="0"/>
        <pt x="234" y="381" on="1"/>
        <pt x="298" y="381" on="0"/>
        <pt x="387" y="307" on="0"/>
      </contour>
      <contour>
        <pt x="76" y="186" on="1"/>
        <pt x="76" y="175" on="0"/>
        <pt x="78" y="155" on="1"/>
        <pt x="364" y="266" on="1"/>
        <pt x="323" y="348" on="0"/>
        <pt x="234" y="348" on="1"/>
        <pt x="165" y="348" on="0"/>
        <pt x="76" y="256" on="0"/>
      </contour>
      <contour>
        <pt x="293" y="460" on="0"/>
        <pt x="161" y="460" on="0"/>
        <pt x="65" y="551" on="0"/>
        <pt x="64" y="617" on="1"/>
        <pt x="97" y="617" on="1"/>
        <pt x="98" y="561" on="0"/>
        <pt x="171" y="492" on="0"/>
        <pt x="284" y="492" on="0"/>
        <pt x="355" y="560" on="0"/>
        <pt x="356" y="617" on="1"/>
        <pt x="388" y="617" on="1"/>
        <pt x="388" y="551" on="0"/>
      </contour>
    </TTGlyph>
    <TTGlyph name="ecaron" xMin="39" yMin="-10" xMax="407" yMax="681">
      <contour>
        <pt x="407" y="246" on="1"/>
        <pt x="87" y="122" on="1"/>
        <pt x="105" y="77" on="0"/>
        <pt x="182" y="23" on="0"/>
        <pt x="298" y="23" on="0"/>
        <pt x="342" y="64" on="1"/>
        <pt x="367" y="44" on="1"/>
        <pt x="311" y="-10" on="0"/>
        <pt x="153" y="-10" on="0"/>
        <pt x="39" y="105" on="0"/>
        <pt x="39" y="266" on="0"/>
        <pt x="153" y="381" on="0"/>
        <pt x="234" y="381" on="1"/>
        <pt x="298" y="381" on="0"/>
        <pt x="387" y="307" on="0"/>
      </contour>
      <contour>
        <pt x="76" y="186" on="1"/>
        <pt x="76" y="175" on="0"/>
        <pt x="78" y="155" on="1"/>
        <pt x="364" y="266" on="1"/>
        <pt x="323" y="348" on="0"/>
        <pt x="234" y="348" on="1"/>
        <pt x="165" y="348" on="0"/>
        <pt x="76" y="256" on="0"/>
      </contour>
      <contour>
        <pt x="345" y="681" on="1"/>
        <pt x="225" y="500" on="1"/>
        <pt x="105" y="681" on="1"/>
        <pt x="138" y="681" on="1"/>
        <pt x="225" y="559" on="1"/>
        <pt x="312" y="681" on="1"/>
      </contour>
    </TTGlyph>
    <TTGlyph name="ecircumflex" xMin="39" yMin="-10" xMax="407" yMax="660">
      <contour>
        <pt x="232" y="660" on="1"/>
        <pt x="352" y="479" on="1"/>
        <pt x="319" y="479" on="1"/>
        <pt x="232" y="601" on="1"/>
        <pt x="145" y="479" on="1"/>
        <pt x="112" y="479" on="1"/>
      </contour>
      <contour>
        <pt x="407" y="246" on="1"/>
        <pt x="87" y="122" on="1"/>
        <pt x="105" y="77" on="0"/>
        <pt x="182" y="23" on="0"/>
        <pt x="298" y="23" on="0"/>
        <pt x="342" y="64" on="1"/>
        <pt x="367" y="44" on="1"/>
        <pt x="311" y="-10" on="0"/>
        <pt x="153" y="-10" on="0"/>
        <pt x="39" y="105" on="0"/>
        <pt x="39" y="266" on="0"/>
        <pt x="153" y="381" on="0"/>
        <pt x="234" y="381" on="1"/>
        <pt x="298" y="381" on="0"/>
        <pt x="387" y="307" on="0"/>
      </contour>
      <contour>
        <pt x="76" y="186" on="1"/>
        <pt x="76" y="175" on="0"/>
        <pt x="78" y="155" on="1"/>
        <pt x="364" y="266" on="1"/>
        <pt x="323" y="348" on="0"/>
        <pt x="234" y="348" on="1"/>
        <pt x="165" y="348" on="0"/>
        <pt x="76" y="256" on="0"/>
      </contour>
    </TTGlyph>
    <TTGlyph name="edieresis" xMin="39" yMin="-10" xMax="407" yMax="553">
      <contour>
        <pt x="187" y="507" on="0"/>
        <pt x="168" y="489" on="0"/>
        <pt x="143" y="489" on="0"/>
        <pt x="124" y="507" on="0"/>
        <pt x="124" y="534" on="0"/>
        <pt x="144" y="553" on="0"/>
        <pt x="168" y="553" on="0"/>
        <pt x="187" y="534" on="0"/>
      </contour>
      <contour>
        <pt x="352" y="507" on="0"/>
        <pt x="333" y="489" on="0"/>
        <pt x="308" y="489" on="0"/>
        <pt x="289" y="507" on="0"/>
        <pt x="289" y="534" on="0"/>
        <pt x="309" y="553" on="0"/>
        <pt x="333" y="553" on="0"/>
        <pt x="352" y="534" on="0"/>
      </contour>
      <contour>
        <pt x="407" y="246" on="1"/>
        <pt x="87" y="122" on="1"/>
        <pt x="105" y="77" on="0"/>
        <pt x="182" y="23" on="0"/>
        <pt x="298" y="23" on="0"/>
        <pt x="342" y="64" on="1"/>
        <pt x="367" y="44" on="1"/>
        <pt x="311" y="-10" on="0"/>
        <pt x="153" y="-10" on="0"/>
        <pt x="39" y="105" on="0"/>
        <pt x="39" y="266" on="0"/>
        <pt x="153" y="381" on="0"/>
        <pt x="234" y="381" on="1"/>
        <pt x="298" y="381" on="0"/>
        <pt x="387" y="307" on="0"/>
      </contour>
      <contour>
        <pt x="76" y="186" on="1"/>
        <pt x="76" y="175" on="0"/>
        <pt x="78" y="155" on="1"/>
        <pt x="364" y="266" on="1"/>
        <pt x="323" y="348" on="0"/>
        <pt x="234" y="348" on="1"/>
        <pt x="165" y="348" on="0"/>
        <pt x="76" y="256" on="0"/>
      </contour>
    </TTGlyph>
    <TTGlyph name="edotaccent" xMin="39" yMin="-10" xMax="407" yMax="553">
      <contour>
        <pt x="253" y="507" on="0"/>
        <pt x="234" y="489" on="0"/>
        <pt x="209" y="489" on="0"/>
        <pt x="190" y="507" on="0"/>
        <pt x="190" y="534" on="0"/>
        <pt x="210" y="553" on="0"/>
        <pt x="234" y="553" on="0"/>
        <pt x="253" y="534" on="0"/>
      </contour>
      <contour>
        <pt x="407" y="246" on="1"/>
        <pt x="87" y="122" on="1"/>
        <pt x="105" y="77" on="0"/>
        <pt x="182" y="23" on="0"/>
        <pt x="298" y="23" on="0"/>
        <pt x="342" y="64" on="1"/>
        <pt x="367" y="44" on="1"/>
        <pt x="311" y="-10" on="0"/>
        <pt x="153" y="-10" on="0"/>
        <pt x="39" y="105" on="0"/>
        <pt x="39" y="266" on="0"/>
        <pt x="153" y="381" on="0"/>
        <pt x="234" y="381" on="1"/>
        <pt x="298" y="381" on="0"/>
        <pt x="387" y="307" on="0"/>
      </contour>
      <contour>
        <pt x="76" y="186" on="1"/>
        <pt x="76" y="175" on="0"/>
        <pt x="78" y="155" on="1"/>
        <pt x="364" y="266" on="1"/>
        <pt x="323" y="348" on="0"/>
        <pt x="234" y="348" on="1"/>
        <pt x="165" y="348" on="0"/>
        <pt x="76" y="256" on="0"/>
      </contour>
    </TTGlyph>
    <TTGlyph name="egrave" xMin="39" yMin="-10" xMax="407" yMax="612">
      <contour>
        <pt x="142" y="612" on="1"/>
        <pt x="232" y="479" on="1"/>
        <pt x="199" y="479" on="1"/>
        <pt x="105" y="612" on="1"/>
      </contour>
      <contour>
        <pt x="407" y="246" on="1"/>
        <pt x="87" y="122" on="1"/>
        <pt x="105" y="77" on="0"/>
        <pt x="182" y="23" on="0"/>
        <pt x="298" y="23" on="0"/>
        <pt x="342" y="64" on="1"/>
        <pt x="367" y="44" on="1"/>
        <pt x="311" y="-10" on="0"/>
        <pt x="153" y="-10" on="0"/>
        <pt x="39" y="105" on="0"/>
        <pt x="39" y="266" on="0"/>
        <pt x="153" y="381" on="0"/>
        <pt x="234" y="381" on="1"/>
        <pt x="298" y="381" on="0"/>
        <pt x="387" y="307" on="0"/>
      </contour>
      <contour>
        <pt x="76" y="186" on="1"/>
        <pt x="76" y="175" on="0"/>
        <pt x="78" y="155" on="1"/>
        <pt x="364" y="266" on="1"/>
        <pt x="323" y="348" on="0"/>
        <pt x="234" y="348" on="1"/>
        <pt x="165" y="348" on="0"/>
        <pt x="76" y="256" on="0"/>
      </contour>
    </TTGlyph>
    <TTGlyph name="eight" xMin="50" yMin="-8" xMax="462" yMax="658">
      <contour>
        <pt x="107" y="511" on="1"/>
        <pt x="107" y="572" on="0"/>
        <pt x="193" y="658" on="0"/>
        <pt x="314" y="658" on="0"/>
        <pt x="400" y="572" on="0"/>
        <pt x="400" y="511" on="1"/>
        <pt x="400" y="472" on="0"/>
        <pt x="360" y="406" on="0"/>
        <pt x="327" y="387" on="1"/>
        <pt x="387" y="366" on="0"/>
        <pt x="462" y="262" on="0"/>
        <pt x="462" y="197" on="1"/>
        <pt x="462" y="112" on="0"/>
        <pt x="340" y="-8" on="0"/>
        <pt x="170" y="-8" on="0"/>
        <pt x="50" y="112" on="0"/>
        <pt x="50" y="197" on="1"/>
        <pt x="50" y="261" on="0"/>
        <pt x="122" y="364" on="0"/>
        <pt x="181" y="386" on="1"/>
        <pt x="147" y="405" on="0"/>
        <pt x="107" y="471" on="0"/>
      </contour>
      <contour>
        <pt x="183" y="367" on="0"/>
        <pt x="87" y="268" on="0"/>
        <pt x="87" y="127" on="0"/>
        <pt x="184" y="25" on="0"/>
        <pt x="323" y="25" on="0"/>
        <pt x="425" y="127" on="0"/>
        <pt x="425" y="267" on="0"/>
        <pt x="324" y="367" on="0"/>
      </contour>
      <contour>
        <pt x="209" y="625" on="0"/>
        <pt x="144" y="556" on="0"/>
        <pt x="144" y="463" on="0"/>
        <pt x="208" y="400" on="0"/>
        <pt x="301" y="400" on="0"/>
        <pt x="363" y="462" on="0"/>
        <pt x="363" y="556" on="0"/>
        <pt x="301" y="625" on="0"/>
      </contour>
    </TTGlyph>
    <TTGlyph name="eightoldstyle" xMin="50" yMin="-8" xMax="462" yMax="658">
      <contour>
        <pt x="107" y="511" on="1"/>
        <pt x="107" y="572" on="0"/>
        <pt x="193" y="658" on="0"/>
        <pt x="314" y="658" on="0"/>
        <pt x="400" y="572" on="0"/>
        <pt x="400" y="511" on="1"/>
        <pt x="400" y="472" on="0"/>
        <pt x="360" y="406" on="0"/>
        <pt x="327" y="387" on="1"/>
        <pt x="387" y="366" on="0"/>
        <pt x="462" y="262" on="0"/>
        <pt x="462" y="197" on="1"/>
        <pt x="462" y="112" on="0"/>
        <pt x="340" y="-8" on="0"/>
        <pt x="170" y="-8" on="0"/>
        <pt x="50" y="112" on="0"/>
        <pt x="50" y="197" on="1"/>
        <pt x="50" y="261" on="0"/>
        <pt x="122" y="364" on="0"/>
        <pt x="181" y="386" on="1"/>
        <pt x="147" y="405" on="0"/>
        <pt x="107" y="471" on="0"/>
      </contour>
      <contour>
        <pt x="183" y="367" on="0"/>
        <pt x="87" y="268" on="0"/>
        <pt x="87" y="127" on="0"/>
        <pt x="184" y="25" on="0"/>
        <pt x="323" y="25" on="0"/>
        <pt x="425" y="127" on="0"/>
        <pt x="425" y="267" on="0"/>
        <pt x="324" y="367" on="0"/>
      </contour>
      <contour>
        <pt x="209" y="625" on="0"/>
        <pt x="144" y="556" on="0"/>
        <pt x="144" y="463" on="0"/>
        <pt x="208" y="400" on="0"/>
        <pt x="301" y="400" on="0"/>
        <pt x="363" y="462" on="0"/>
        <pt x="363" y="556" on="0"/>
        <pt x="301" y="625" on="0"/>
      </contour>
    </TTGlyph>
    <TTGlyph name="ellipsis" xMin="53" yMin="-1" xMax="442" yMax="63">
      <contour>
        <pt x="116" y="17" on="0"/>
        <pt x="97" y="-1" on="0"/>
        <pt x="72" y="-1" on="0"/>
        <pt x="53" y="17" on="0"/>
        <pt x="53" y="44" on="0"/>
        <pt x="73" y="63" on="0"/>
        <pt x="97" y="63" on="0"/>
        <pt x="116" y="44" on="0"/>
      </contour>
      <contour>
        <pt x="279" y="17" on="0"/>
        <pt x="260" y="-1" on="0"/>
        <pt x="235" y="-1" on="0"/>
        <pt x="216" y="17" on="0"/>
        <pt x="216" y="44" on="0"/>
        <pt x="236" y="63" on="0"/>
        <pt x="260" y="63" on="0"/>
        <pt x="279" y="44" on="0"/>
      </contour>
      <contour>
        <pt x="442" y="17" on="0"/>
        <pt x="423" y="-1" on="0"/>
        <pt x="398" y="-1" on="0"/>
        <pt x="379" y="17" on="0"/>
        <pt x="379" y="44" on="0"/>
        <pt x="399" y="63" on="0"/>
        <pt x="423" y="63" on="0"/>
        <pt x="442" y="44" on="0"/>
      </contour>
    </TTGlyph>
    <TTGlyph name="emacron" xMin="39" yMin="-10" xMax="407" yMax="516">
      <contour>
        <pt x="407" y="246" on="1"/>
        <pt x="87" y="122" on="1"/>
        <pt x="105" y="77" on="0"/>
        <pt x="182" y="23" on="0"/>
        <pt x="298" y="23" on="0"/>
        <pt x="342" y="64" on="1"/>
        <pt x="367" y="44" on="1"/>
        <pt x="311" y="-10" on="0"/>
        <pt x="153" y="-10" on="0"/>
        <pt x="39" y="105" on="0"/>
        <pt x="39" y="266" on="0"/>
        <pt x="153" y="381" on="0"/>
        <pt x="234" y="381" on="1"/>
        <pt x="298" y="381" on="0"/>
        <pt x="387" y="307" on="0"/>
      </contour>
      <contour>
        <pt x="76" y="186" on="1"/>
        <pt x="76" y="175" on="0"/>
        <pt x="78" y="155" on="1"/>
        <pt x="364" y="266" on="1"/>
        <pt x="323" y="348" on="0"/>
        <pt x="234" y="348" on="1"/>
        <pt x="165" y="348" on="0"/>
        <pt x="76" y="256" on="0"/>
      </contour>
      <contour>
        <pt x="110" y="483" on="1"/>
        <pt x="110" y="516" on="1"/>
        <pt x="340" y="516" on="1"/>
        <pt x="340" y="483" on="1"/>
      </contour>
    </TTGlyph>
    <TTGlyph name="emdash" xMin="99" yMin="174" xMax="601" yMax="207">
      <contour>
        <pt x="99" y="174" on="1"/>
        <pt x="99" y="207" on="1"/>
        <pt x="601" y="207" on="1"/>
        <pt x="601" y="174" on="1"/>
      </contour>
    </TTGlyph>
    <TTGlyph name="endash" xMin="100" yMin="174" xMax="401" yMax="207">
      <contour>
        <pt x="100" y="174" on="1"/>
        <pt x="100" y="207" on="1"/>
        <pt x="401" y="207" on="1"/>
        <pt x="401" y="174" on="1"/>
      </contour>
    </TTGlyph>
    <TTGlyph name="eng" xMin="100" yMin="-250" xMax="428" yMax="382">
      <contour>
        <pt x="391" y="-60" on="1"/>
        <pt x="391" y="270" on="1"/>
        <pt x="389" y="303" on="0"/>
        <pt x="343" y="347" on="0"/>
        <pt x="299" y="349" on="1"/>
        <pt x="235" y="349" on="0"/>
        <pt x="145" y="270" on="0"/>
        <pt x="137" y="209" on="1"/>
        <pt x="137" y="0" on="1"/>
        <pt x="100" y="0" on="1"/>
        <pt x="100" y="374" on="1"/>
        <pt x="133" y="374" on="1"/>
        <pt x="137" y="274" on="1"/>
        <pt x="158" y="323" on="0"/>
        <pt x="243" y="381" on="0"/>
        <pt x="356" y="382" on="0"/>
        <pt x="426" y="320" on="0"/>
        <pt x="428" y="270" on="1"/>
        <pt x="428" y="-60" on="1"/>
        <pt x="427" y="-140" on="0"/>
        <pt x="315" y="-250" on="0"/>
        <pt x="234" y="-250" on="1"/>
        <pt x="234" y="-218" on="1"/>
        <pt x="302" y="-218" on="0"/>
        <pt x="389" y="-128" on="0"/>
      </contour>
    </TTGlyph>
    <TTGlyph name="eogonek" xMin="39" yMin="-241" xMax="407" yMax="381">
      <contour>
        <pt x="278" y="-209" on="1"/>
        <pt x="278" y="-241" on="1"/>
        <pt x="230" y="-241" on="0"/>
        <pt x="177" y="-180" on="0"/>
        <pt x="177" y="-86" on="0"/>
        <pt x="213" y="-59" on="1"/>
        <pt x="216" y="-57" on="0"/>
        <pt x="236" y="-45" on="0"/>
        <pt x="242" y="-40" on="1"/>
        <pt x="260" y="-27" on="0"/>
        <pt x="262" y="-8" on="1"/>
        <pt x="244" y="-10" on="0"/>
        <pt x="234" y="-10" on="1"/>
        <pt x="153" y="-10" on="0"/>
        <pt x="39" y="105" on="0"/>
        <pt x="39" y="266" on="0"/>
        <pt x="153" y="381" on="0"/>
        <pt x="234" y="381" on="1"/>
        <pt x="298" y="381" on="0"/>
        <pt x="387" y="307" on="0"/>
        <pt x="407" y="246" on="1"/>
        <pt x="87" y="122" on="1"/>
        <pt x="105" y="77" on="0"/>
        <pt x="182" y="23" on="0"/>
        <pt x="298" y="23" on="0"/>
        <pt x="342" y="64" on="1"/>
        <pt x="367" y="44" on="1"/>
        <pt x="336" y="12" on="0"/>
        <pt x="292" y="-1" on="1"/>
        <pt x="292" y="-18" on="0"/>
        <pt x="271" y="-50" on="0"/>
        <pt x="262" y="-58" on="1"/>
        <pt x="233" y="-81" on="1"/>
        <pt x="208" y="-105" on="0"/>
        <pt x="208" y="-168" on="0"/>
        <pt x="247" y="-209" on="0"/>
      </contour>
      <contour>
        <pt x="76" y="186" on="1"/>
        <pt x="76" y="175" on="0"/>
        <pt x="78" y="155" on="1"/>
        <pt x="364" y="266" on="1"/>
        <pt x="323" y="348" on="0"/>
        <pt x="234" y="348" on="1"/>
        <pt x="165" y="348" on="0"/>
        <pt x="76" y="256" on="0"/>
      </contour>
    </TTGlyph>
    <TTGlyph name="equal" xMin="100" yMin="140" xMax="606" yMax="366">
      <contour>
        <pt x="606" y="366" on="1"/>
        <pt x="606" y="334" on="1"/>
        <pt x="100" y="334" on="1"/>
        <pt x="100" y="366" on="1"/>
      </contour>
      <contour>
        <pt x="606" y="172" on="1"/>
        <pt x="606" y="140" on="1"/>
        <pt x="100" y="140" on="1"/>
        <pt x="100" y="172" on="1"/>
      </contour>
    </TTGlyph>
    <TTGlyph name="eth" xMin="36" yMin="-9" xMax="427" yMax="738">
      <contour>
        <pt x="165" y="527" on="1"/>
        <pt x="142" y="550" on="1"/>
        <pt x="213" y="622" on="1"/>
        <pt x="213" y="623" on="1"/>
        <pt x="166" y="676" on="0"/>
        <pt x="122" y="714" on="1"/>
        <pt x="146" y="738" on="1"/>
        <pt x="183" y="709" on="0"/>
        <pt x="239" y="647" on="1"/>
        <pt x="308" y="717" on="1"/>
        <pt x="332" y="694" on="1"/>
        <pt x="261" y="623" on="1"/>
        <pt x="325" y="544" on="0"/>
        <pt x="425" y="299" on="0"/>
        <pt x="427" y="187" on="1"/>
        <pt x="427" y="106" on="0"/>
        <pt x="313" y="-9" on="0"/>
        <pt x="150" y="-9" on="0"/>
        <pt x="36" y="106" on="0"/>
        <pt x="36" y="267" on="0"/>
        <pt x="150" y="382" on="0"/>
        <pt x="312" y="382" on="0"/>
        <pt x="368" y="326" on="1"/>
        <pt x="327" y="471" on="0"/>
        <pt x="234" y="596" on="1"/>
      </contour>
      <contour>
        <pt x="73" y="118" on="0"/>
        <pt x="162" y="24" on="0"/>
        <pt x="301" y="24" on="0"/>
        <pt x="390" y="118" on="0"/>
        <pt x="390" y="257" on="0"/>
        <pt x="301" y="349" on="0"/>
        <pt x="162" y="349" on="0"/>
        <pt x="73" y="257" on="0"/>
      </contour>
    </TTGlyph>
    <TTGlyph name="exclam" xMin="68" yMin="17" xMax="131" yMax="750">
      <contour>
        <pt x="82" y="166" on="1"/>
        <pt x="82" y="750" on="1"/>
        <pt x="117" y="750" on="1"/>
        <pt x="117" y="166" on="1"/>
      </contour>
      <contour>
        <pt x="131" y="35" on="0"/>
        <pt x="112" y="17" on="0"/>
        <pt x="87" y="17" on="0"/>
        <pt x="68" y="35" on="0"/>
        <pt x="68" y="62" on="0"/>
        <pt x="88" y="81" on="0"/>
        <pt x="112" y="81" on="0"/>
        <pt x="131" y="62" on="0"/>
      </contour>
    </TTGlyph>
    <TTGlyph name="exclamdown" xMin="68" yMin="-210" xMax="131" yMax="523">
      <contour>
        <pt x="82" y="-210" on="1"/>
        <pt x="82" y="374" on="1"/>
        <pt x="117" y="374" on="1"/>
        <pt x="117" y="-210" on="1"/>
      </contour>
      <contour>
        <pt x="68" y="505" on="0"/>
        <pt x="87" y="523" on="0"/>
        <pt x="112" y="523" on="0"/>
        <pt x="131" y="505" on="0"/>
        <pt x="131" y="478" on="0"/>
        <pt x="112" y="459" on="0"/>
        <pt x="88" y="459" on="0"/>
        <pt x="68" y="478" on="0"/>
      </contour>
    </TTGlyph>
    <TTGlyph name="f" xMin="22" yMin="0" xMax="281" yMax="756">
      <contour>
        <pt x="281" y="756" on="1"/>
        <pt x="281" y="724" on="1"/>
        <pt x="213" y="724" on="0"/>
        <pt x="126" y="634" on="0"/>
        <pt x="124" y="566" on="1"/>
        <pt x="124" y="375" on="1"/>
        <pt x="240" y="375" on="1"/>
        <pt x="240" y="342" on="1"/>
        <pt x="124" y="342" on="1"/>
        <pt x="124" y="0" on="1"/>
        <pt x="87" y="0" on="1"/>
        <pt x="87" y="342" on="1"/>
        <pt x="22" y="342" on="1"/>
        <pt x="22" y="375" on="1"/>
        <pt x="87" y="375" on="1"/>
        <pt x="87" y="566" on="1"/>
        <pt x="88" y="646" on="0"/>
        <pt x="200" y="756" on="0"/>
      </contour>
    </TTGlyph>
    <TTGlyph name="ff" xMin="22" yMin="0" xMax="500" yMax="756">
      <contour>
        <pt x="500" y="756" on="1"/>
        <pt x="500" y="724" on="1"/>
        <pt x="432" y="724" on="0"/>
        <pt x="345" y="634" on="0"/>
        <pt x="343" y="566" on="1"/>
        <pt x="343" y="375" on="1"/>
        <pt x="459" y="375" on="1"/>
        <pt x="459" y="342" on="1"/>
        <pt x="343" y="342" on="1"/>
        <pt x="343" y="0" on="1"/>
        <pt x="306" y="0" on="1"/>
        <pt x="306" y="342" on="1"/>
        <pt x="124" y="342" on="1"/>
        <pt x="124" y="0" on="1"/>
        <pt x="87" y="0" on="1"/>
        <pt x="87" y="342" on="1"/>
        <pt x="22" y="342" on="1"/>
        <pt x="22" y="375" on="1"/>
        <pt x="87" y="375" on="1"/>
        <pt x="87" y="566" on="1"/>
        <pt x="88" y="646" on="0"/>
        <pt x="200" y="756" on="0"/>
        <pt x="281" y="756" on="1"/>
        <pt x="281" y="724" on="1"/>
        <pt x="213" y="724" on="0"/>
        <pt x="126" y="634" on="0"/>
        <pt x="124" y="566" on="1"/>
        <pt x="124" y="375" on="1"/>
        <pt x="306" y="375" on="1"/>
        <pt x="306" y="566" on="1"/>
        <pt x="307" y="646" on="0"/>
        <pt x="419" y="756" on="0"/>
      </contour>
    </TTGlyph>
    <TTGlyph name="ffi" xMin="23" yMin="0" xMax="555" yMax="756">
      <contour>
        <pt x="538" y="0" on="1"/>
        <pt x="501" y="0" on="1"/>
        <pt x="501" y="342" on="1"/>
        <pt x="343" y="342" on="1"/>
        <pt x="343" y="0" on="1"/>
        <pt x="306" y="0" on="1"/>
        <pt x="306" y="342" on="1"/>
        <pt x="125" y="342" on="1"/>
        <pt x="125" y="0" on="1"/>
        <pt x="88" y="0" on="1"/>
        <pt x="88" y="342" on="1"/>
        <pt x="23" y="342" on="1"/>
        <pt x="23" y="375" on="1"/>
        <pt x="88" y="375" on="1"/>
        <pt x="88" y="566" on="1"/>
        <pt x="89" y="646" on="0"/>
        <pt x="201" y="756" on="0"/>
        <pt x="282" y="756" on="1"/>
        <pt x="282" y="724" on="1"/>
        <pt x="214" y="724" on="0"/>
        <pt x="127" y="634" on="0"/>
        <pt x="125" y="566" on="1"/>
        <pt x="125" y="375" on="1"/>
        <pt x="306" y="375" on="1"/>
        <pt x="306" y="566" on="1"/>
        <pt x="307" y="646" on="0"/>
        <pt x="419" y="756" on="0"/>
        <pt x="500" y="756" on="1"/>
        <pt x="500" y="724" on="1"/>
        <pt x="432" y="724" on="0"/>
        <pt x="345" y="634" on="0"/>
        <pt x="343" y="566" on="1"/>
        <pt x="343" y="375" on="1"/>
        <pt x="538" y="375" on="1"/>
      </contour>
      <contour>
        <pt x="555" y="519" on="0"/>
        <pt x="536" y="501" on="0"/>
        <pt x="511" y="501" on="0"/>
        <pt x="492" y="519" on="0"/>
        <pt x="492" y="546" on="0"/>
        <pt x="512" y="565" on="0"/>
        <pt x="536" y="565" on="0"/>
        <pt x="555" y="546" on="0"/>
      </contour>
    </TTGlyph>
    <TTGlyph name="ffl" xMin="23" yMin="0" xMax="610" yMax="756">
      <contour>
        <pt x="610" y="0" on="1"/>
        <pt x="574" y="0" on="1"/>
        <pt x="574" y="724" on="1"/>
        <pt x="500" y="724" on="1"/>
        <pt x="432" y="724" on="0"/>
        <pt x="345" y="634" on="0"/>
        <pt x="343" y="566" on="1"/>
        <pt x="343" y="375" on="1"/>
        <pt x="459" y="375" on="1"/>
        <pt x="459" y="342" on="1"/>
        <pt x="343" y="342" on="1"/>
        <pt x="344" y="0" on="1"/>
        <pt x="306" y="0" on="1"/>
        <pt x="306" y="342" on="1"/>
        <pt x="125" y="342" on="1"/>
        <pt x="125" y="0" on="1"/>
        <pt x="88" y="0" on="1"/>
        <pt x="88" y="342" on="1"/>
        <pt x="23" y="342" on="1"/>
        <pt x="23" y="375" on="1"/>
        <pt x="88" y="375" on="1"/>
        <pt x="88" y="566" on="1"/>
        <pt x="89" y="646" on="0"/>
        <pt x="201" y="756" on="0"/>
        <pt x="282" y="756" on="1"/>
        <pt x="282" y="724" on="1"/>
        <pt x="214" y="724" on="0"/>
        <pt x="127" y="634" on="0"/>
        <pt x="125" y="566" on="1"/>
        <pt x="125" y="375" on="1"/>
        <pt x="306" y="375" on="1"/>
        <pt x="306" y="566" on="1"/>
        <pt x="307" y="646" on="0"/>
        <pt x="419" y="756" on="0"/>
        <pt x="500" y="756" on="1"/>
        <pt x="610" y="756" on="1"/>
      </contour>
    </TTGlyph>
    <TTGlyph name="fi" xMin="22" yMin="0" xMax="336" yMax="756">
      <contour>
        <pt x="319" y="0" on="1"/>
        <pt x="282" y="0" on="1"/>
        <pt x="282" y="342" on="1"/>
        <pt x="124" y="342" on="1"/>
        <pt x="125" y="0" on="1"/>
        <pt x="87" y="0" on="1"/>
        <pt x="87" y="342" on="1"/>
        <pt x="22" y="342" on="1"/>
        <pt x="22" y="375" on="1"/>
        <pt x="87" y="375" on="1"/>
        <pt x="87" y="566" on="1"/>
        <pt x="88" y="646" on="0"/>
        <pt x="200" y="756" on="0"/>
        <pt x="281" y="756" on="1"/>
        <pt x="281" y="724" on="1"/>
        <pt x="213" y="724" on="0"/>
        <pt x="126" y="634" on="0"/>
        <pt x="124" y="566" on="1"/>
        <pt x="124" y="375" on="1"/>
        <pt x="319" y="375" on="1"/>
      </contour>
      <contour>
        <pt x="336" y="519" on="0"/>
        <pt x="317" y="501" on="0"/>
        <pt x="292" y="501" on="0"/>
        <pt x="273" y="519" on="0"/>
        <pt x="273" y="546" on="0"/>
        <pt x="293" y="565" on="0"/>
        <pt x="317" y="565" on="0"/>
        <pt x="336" y="546" on="0"/>
      </contour>
    </TTGlyph>
    <TTGlyph name="five" xMin="103" yMin="-8" xMax="471" yMax="650">
      <contour>
        <pt x="140" y="359" on="1"/>
        <pt x="140" y="650" on="1"/>
        <pt x="440" y="650" on="1"/>
        <pt x="440" y="617" on="1"/>
        <pt x="177" y="617" on="1"/>
        <pt x="177" y="416" on="1"/>
        <pt x="211" y="430" on="0"/>
        <pt x="256" y="430" on="1"/>
        <pt x="341" y="430" on="0"/>
        <pt x="471" y="311" on="0"/>
        <pt x="471" y="114" on="0"/>
        <pt x="342" y="-8" on="0"/>
        <pt x="167" y="-8" on="0"/>
        <pt x="103" y="51" on="1"/>
        <pt x="128" y="78" on="1"/>
        <pt x="179" y="25" on="0"/>
        <pt x="334" y="25" on="0"/>
        <pt x="434" y="134" on="0"/>
        <pt x="434" y="295" on="0"/>
        <pt x="330" y="397" on="0"/>
        <pt x="190" y="397" on="0"/>
      </contour>
    </TTGlyph>
</ttFont>
